SplineFontDB: 3.0
FontName: FMDeranax
FullName: FMDerana x
FamilyName: FMDerana
Weight: Book
Copyright: Pushpananda Ekanayaka 1998
Version: Macromedia Fontographer 4.1.5 3/1/99
ItalicAngle: 0
UnderlinePosition: -109
UnderlineWidth: 48
Ascent: 800
Descent: 200
sfntRevision: 0x00010000
LayerCount: 2
Layer: 0 1 "Back"  1
Layer: 1 1 "Fore"  0
NeedsXUIDChange: 1
XUID: [1021 591 865932302 10676011]
FSType: 1
OS2Version: 0
OS2_WeightWidthSlopeOnly: 0
OS2_UseTypoMetrics: 1
CreationTime: 920287905
ModificationTime: 1330725225
PfmFamily: 81
TTFWeight: 400
TTFWidth: 5
LineGap: 0
VLineGap: 0
Panose: 0 0 4 0 0 0 0 0 0 0
OS2TypoAscent: -26
OS2TypoAOffset: 1
OS2TypoDescent: -68
OS2TypoDOffset: 1
OS2TypoLinegap: 0
OS2WinAscent: 0
OS2WinAOffset: 1
OS2WinDescent: 0
OS2WinDOffset: 1
HheadAscent: 0
HheadAOffset: 1
HheadDescent: 0
HheadDOffset: 1
OS2SubXSize: 700
OS2SubYSize: 650
OS2SubXOff: 0
OS2SubYOff: 143
OS2SupXSize: 700
OS2SupYSize: 650
OS2SupXOff: 0
OS2SupYOff: 453
OS2StrikeYSize: 50
OS2StrikeYPos: 259
OS2Vendor: 'Alts'
OS2UnicodeRanges: 00000000.00000000.00000000.00000000
DEI: 91125
TtTable: prep
NPUSHB
 9
 3
 3
 2
 2
 1
 1
 0
 0
 1
SCANTYPE
PUSHW_1
 511
SCANCTRL
RCVT
ROUND[Grey]
WCVTP
RCVT
ROUND[Grey]
WCVTP
RCVT
ROUND[Grey]
WCVTP
RCVT
ROUND[Grey]
WCVTP
PUSHB_4
 5
 4
 70
 0
CALL
PUSHB_4
 7
 6
 70
 0
CALL
PUSHB_2
 4
 4
RCVT
ROUND[Grey]
WCVTP
PUSHB_2
 6
 6
RCVT
ROUND[Grey]
WCVTP
EndTTInstrs
TtTable: fpgm
NPUSHB
 1
 0
FDEF
SROUND
RCVT
DUP
PUSHB_1
 3
CINDEX
RCVT
SWAP
SUB
ROUND[Grey]
RTG
SWAP
ROUND[Grey]
ADD
WCVTP
ENDF
EndTTInstrs
ShortTable: cvt  107
  -13
  235
  432
  456
  35
  32
  33
  36
  23427
  3269
  -2
  12336
  7424
  27478
  -24154
  -5902
  -14902
  7454
  19560
  -16480
  -30977
  -10022
  22341
  2784
  -4406
  24447
  11287
  -23930
  11561
  -8243
  16685
  -15290
  -22538
  18815
  -6124
  -29750
  26949
  830
  -9760
  18824
  5992
  -28409
  29603
  -16086
  -21800
  10322
  -27977
  -27432
  30546
  -16966
  -31265
  29822
  5857
  -14652
  18793
  8476

StartChar: .notdef
Encoding: 65536 -1 0
Width: 500
Flags: W
LayerCount: 2
Fore
SplineSet
63 0 m 1,0,-1
 63 739 l 1,1,-1
 438 739 l 1,2,-1
 438 0 l 1,3,-1
 63 0 l 1,0,-1
125 63 m 1,4,-1
 375 63 l 1,5,-1
 375 677 l 1,6,-1
 125 677 l 1,7,-1
 125 63 l 1,4,-1
EndSplineSet
EndChar

StartChar: exclam
Encoding: 33 33 4
Width: 298
Flags: W
LayerCount: 2
Fore
SplineSet
122 360 m 1,0,-1
 80 376 l 1,1,2
 41 346 41 346 22 290 c 0,3,4
 9 253 9 253 9 218 c 0,5,6
 9 166 9 166 42 150 c 0,7,8
 57 143 57 143 72 143 c 0,9,10
 121 143 121 143 164 210 c 0,11,12
 171 221 171 221 171 242 c 0,13,14
 171 249 171 249 170 263 c 128,-1,15
 169 277 169 277 169 284 c 0,16,17
 169 317 169 317 196 320 c 0,18,19
 212 322 212 322 212 273 c 0,20,21
 212 218 212 218 194 160 c 0,22,23
 151 24 151 24 104 24 c 0,24,25
 73 24 73 24 30 70 c 1,26,-1
 32 -2 l 1,27,28
 65 -10 65 -10 94 -10 c 0,29,30
 247 -10 247 -10 274 196 c 0,31,32
 279 231 279 231 279 261 c 0,33,34
 279 373 279 373 214 373 c 0,35,36
 157 373 157 373 124 284 c 0,37,38
 122 279 122 279 118 222 c 0,39,40
 116 181 116 181 98 184 c 0,41,42
 78 187 78 187 78 219 c 0,43,44
 78 249 78 249 94 297 c 0,45,46
 108 337 108 337 122 360 c 1,0,-1
EndSplineSet
EndChar

StartChar: quotedbl
Encoding: 34 34 5
Width: 140
Flags: W
LayerCount: 2
Fore
SplineSet
36 74 m 1,0,-1
 110 56 l 1,1,-1
 58 -108 l 1,2,-1
 10 -114 l 1,3,-1
 36 74 l 1,0,-1
EndSplineSet
EndChar

StartChar: numbersign
Encoding: 35 35 6
Width: 202
Flags: W
LayerCount: 2
Fore
SplineSet
63 283 m 0,0,1
 63 262 63 262 77 244 c 1,2,3
 85 226 85 226 107 225 c 0,4,5
 121 224 121 224 127.5 235 c 128,-1,6
 134 246 134 246 134 264 c 0,7,8
 134 288 134 288 119 311 c 1,9,10
 96 332 96 332 80 330 c 1,11,12
 63 314 63 314 63 283 c 0,0,1
61 336 m 1,13,14
 71 346 71 346 82 351 c 128,-1,15
 93 356 93 356 109 356 c 0,16,17
 133 356 133 356 155 337 c 1,18,19
 170 317 170 317 170 291 c 0,20,21
 170 252 170 252 141 226 c 1,22,23
 115 197 115 197 81 197 c 0,24,25
 58 197 58 197 41 215.5 c 128,-1,26
 24 234 24 234 24 263 c 1,27,28
 24 261 24 261 30 294 c 1,29,30
 39 317 39 317 61 336 c 1,13,14
63 107 m 0,31,32
 63 86 63 86 77 68 c 1,33,34
 85 50 85 50 107 49 c 0,35,36
 121 48 121 48 127.5 59 c 128,-1,37
 134 70 134 70 134 88 c 0,38,39
 134 112 134 112 119 135 c 1,40,41
 96 156 96 156 80 154 c 1,42,43
 63 138 63 138 63 107 c 0,31,32
61 160 m 1,44,45
 71 170 71 170 82 175 c 128,-1,46
 93 180 93 180 109 180 c 0,47,48
 133 180 133 180 155 161 c 1,49,50
 170 141 170 141 170 115 c 0,51,52
 170 76 170 76 141 50 c 1,53,54
 115 21 115 21 81 21 c 0,55,56
 58 21 58 21 41 39.5 c 128,-1,57
 24 58 24 58 24 87 c 1,58,59
 24 85 24 85 30 118 c 1,60,61
 39 141 39 141 61 160 c 1,44,45
EndSplineSet
EndChar

StartChar: dollar
Encoding: 36 36 7
Width: 388
Flags: W
LayerCount: 2
Fore
SplineSet
277 593 m 1,0,-1
 347 593 l 1,1,2
 294 474 294 474 193 234 c 1,3,4
 156 142 156 142 99 -8 c 1,5,-1
 21 -14 l 1,6,7
 33 -1 33 -1 69 67 c 0,8,9
 90 106 90 106 152 256 c 0,10,11
 209 393 209 393 277 593 c 1,0,-1
EndSplineSet
EndChar

StartChar: percent
Encoding: 37 37 8
Width: 6
Flags: W
LayerCount: 2
Fore
SplineSet
-402 -24 m 1,0,-1
 -476 -48 l 1,1,2
 -462 -85 -462 -85 -411.5 -121.5 c 128,-1,3
 -361 -158 -361 -158 -308 -168 c 0,4,5
 -276 -174 -276 -174 -242 -174 c 0,6,7
 -150 -174 -150 -174 -84 -136 c 0,8,9
 -11 -94 -11 -94 -11 -25 c 0,10,11
 -11 48 -11 48 -68 100 c 1,12,-1
 -102 60 l 1,13,14
 -84 31 -84 31 -84 -2 c 0,15,16
 -84 -45 -84 -45 -112.5 -75.5 c 128,-1,17
 -141 -106 -141 -106 -184 -118 c 0,18,19
 -222 -129 -222 -129 -252 -129 c 0,20,21
 -289 -129 -289 -129 -316 -110 c 0,22,23
 -333 -99 -333 -99 -359 -68 c 128,-1,24
 -385 -37 -385 -37 -402 -24 c 1,0,-1
EndSplineSet
EndChar

StartChar: ampersand
Encoding: 38 38 9
Width: 218
Flags: W
LayerCount: 2
Fore
SplineSet
46 530 m 1,0,-1
 88 530 l 1,1,2
 193 422 193 422 193 296 c 0,3,4
 193 214 193 214 161 128 c 1,5,6
 129 39 129 39 74 -18 c 1,7,-1
 28 -18 l 1,8,9
 125 121 125 121 125 308 c 0,10,11
 125 421 125 421 46 530 c 1,0,-1
EndSplineSet
EndChar

StartChar: quotesingle
Encoding: 39 39 10
Width: 127
Flags: W
LayerCount: 2
Fore
SplineSet
33 86 m 1,0,-1
 113 86 l 1,1,2
 103 71 103 71 99 39 c 0,3,4
 96 10 96 10 99 -8 c 1,5,-1
 21 0 l 1,6,7
 15 15 15 15 15 33 c 0,8,9
 15 63 15 63 33 86 c 1,0,-1
EndSplineSet
EndChar

StartChar: parenleft
Encoding: 40 40 11
Width: 127
Flags: W
LayerCount: 2
Fore
SplineSet
33 148 m 1,0,-1
 113 148 l 1,1,2
 103 133 103 133 99 101 c 0,3,4
 96 72 96 72 99 54 c 1,5,-1
 21 62 l 1,6,7
 15 77 15 77 15 95 c 0,8,9
 15 125 15 125 33 148 c 1,0,-1
33 290 m 1,10,-1
 113 290 l 1,11,12
 103 275 103 275 99 243 c 0,13,14
 96 214 96 214 99 196 c 1,15,-1
 21 204 l 1,16,17
 15 219 15 219 15 237 c 0,18,19
 15 267 15 267 33 290 c 1,10,-1
EndSplineSet
EndChar

StartChar: parenright
Encoding: 41 41 12
Width: 284
Flags: W
LayerCount: 2
Fore
SplineSet
204 615 m 1,0,-1
 240 551 l 1,1,-1
 229 551 l 2,2,3
 203 551 203 551 176 536 c 1,4,5
 196 529 196 529 204 524.5 c 128,-1,6
 212 520 212 520 233 495 c 1,7,-1
 182 444 l 1,8,9
 175 468 175 468 167.5 480.5 c 128,-1,10
 160 493 160 493 144 507 c 1,11,12
 144 469 144 469 126 433 c 1,13,-1
 59 472 l 1,14,15
 91 490 91 490 110 524 c 1,16,17
 90 518 90 518 76 516 c 1,18,19
 58 516 58 516 35 527 c 1,20,-1
 54 599 l 1,21,22
 82 568 82 568 112 565 c 1,23,24
 110 568 110 568 98 592 c 1,25,26
 92 609 92 609 92 636 c 1,27,-1
 165 636 l 1,28,29
 162 628 162 628 155.5 610.5 c 128,-1,30
 149 593 149 593 149 575 c 2,31,-1
 149 567 l 1,32,33
 153 575 153 575 168 595 c 1,34,35
 180 605 180 605 204 615 c 1,0,-1
EndSplineSet
EndChar

StartChar: asterisk
Encoding: 42 42 13
Width: 471
Flags: W
LayerCount: 2
Fore
SplineSet
252 -10 m 1,0,1
 304 31 304 31 347 124.5 c 128,-1,2
 390 218 390 218 390 285 c 0,3,4
 390 315 390 315 380.5 331 c 128,-1,5
 371 347 371 347 350 347 c 0,6,7
 326 347 326 347 309 328 c 0,8,9
 275 290 275 290 250.5 210.5 c 128,-1,10
 226 131 226 131 222 51 c 1,11,-1
 161 52 l 1,12,13
 168 100 168 100 174 149 c 0,14,15
 184 229 184 229 184 273 c 0,16,17
 184 337 184 337 164 336 c 0,18,19
 135 334 135 334 107 305 c 0,20,21
 75 271 75 271 77 188 c 0,22,23
 79 110 79 110 80 103 c 0,24,25
 84 63 84 63 100 2 c 1,26,-1
 36 -18 l 1,27,28
 6 54 6 54 7 157 c 0,29,30
 7 226 7 226 23 283 c 0,31,32
 36 327 36 327 75.5 352.5 c 128,-1,33
 115 378 115 378 165 378 c 0,34,35
 181 378 181 378 196 375 c 0,36,37
 223 370 223 370 234 344 c 1,38,39
 239 335 239 335 249 289 c 1,40,41
 266 330 266 330 290 353 c 1,42,43
 307 365 307 365 324 377 c 0,44,45
 332 383 332 383 359 384 c 0,46,47
 385 384 385 384 396 379 c 0,48,49
 455 351 455 351 455 275 c 0,50,51
 455 232 455 232 437 174 c 0,52,53
 400 56 400 56 335 -20 c 1,54,-1
 252 -10 l 1,0,1
EndSplineSet
EndChar

StartChar: plus
Encoding: 43 43 14
Width: 5
Flags: W
LayerCount: 2
Fore
SplineSet
-27 -154 m 1,0,-1
 9 -68 l 1,1,2
 -13 -89 -13 -89 -41 -104 c 0,3,4
 -72 -121 -72 -121 -89 -118 c 0,5,6
 -107 -115 -107 -115 -107 -100 c 0,7,8
 -107 -80 -107 -80 -62 -77 c 1,9,-1
 -44 -54 l 1,10,11
 -72 -58 -72 -58 -85 -58 c 0,12,13
 -94 -58 -94 -58 -94 -55 c 0,14,15
 -94 -51 -94 -51 -36 -26 c 1,16,17
 -60 7 -60 7 -120 7 c 0,18,19
 -152 7 -152 7 -181 -4 c 1,20,-1
 -191 -32 l 1,21,22
 -161 -25 -161 -25 -144 -25 c 0,23,24
 -122 -25 -122 -25 -117 -35 c 1,25,26
 -187 -49 -187 -49 -192 -88 c 1,27,28
 -153 -80 -153 -80 -131 -80 c 1,29,30
 -174 -98 -174 -98 -174 -125 c 0,31,32
 -174 -133 -174 -133 -169 -138 c 0,33,34
 -143 -168 -143 -168 -99 -168 c 0,35,36
 -70 -168 -70 -168 -27 -154 c 1,0,-1
EndSplineSet
EndChar

StartChar: comma
Encoding: 44 44 15
Width: 482
Flags: W
LayerCount: 2
Fore
SplineSet
176 238 m 1,0,-1
 138 224 l 1,1,2
 127 180 127 180 156 164 c 0,3,4
 168 157 168 157 181 157 c 0,5,6
 191 157 191 157 207 163 c 0,7,8
 230 171 230 171 236 172 c 1,9,10
 166 123 166 123 166 79 c 0,11,12
 166 51 166 51 190 29 c 0,13,14
 211 9 211 9 240 2 c 0,15,16
 253 -1 253 -1 267 -1 c 0,17,18
 338 -1 338 -1 402 63 c 128,-1,19
 466 127 466 127 466 205 c 0,20,21
 466 219 466 219 464 232 c 0,22,23
 446 334 446 334 372 366 c 0,24,25
 325 386 325 386 276 386 c 0,26,27
 144 386 144 386 64 274 c 0,28,29
 10 198 10 198 10 84 c 0,30,31
 10 -10 10 -10 44 -66 c 0,32,33
 85 -132 85 -132 150 -150 c 0,34,35
 193 -162 193 -162 236 -162 c 0,36,37
 351 -162 351 -162 428 -83 c 0,38,39
 433 -78 433 -78 480 -6 c 1,40,-1
 432 44 l 1,41,42
 411 19 411 19 384 -25 c 0,43,44
 360 -64 360 -64 340 -84 c 0,45,46
 303 -119 303 -119 245 -119 c 0,47,48
 232 -119 232 -119 221 -116 c 0,49,50
 154 -94 154 -94 119 -32 c 0,51,52
 87 24 87 24 87 100 c 256,53,54
 87 176 87 176 119 242.5 c 128,-1,55
 151 309 151 309 202 332 c 0,56,57
 232 346 232 346 262 346 c 0,58,59
 315 346 315 346 352.5 305.5 c 128,-1,60
 390 265 390 265 396 206 c 0,61,62
 400 165 400 165 378 117 c 1,63,64
 352 64 352 64 314 62 c 0,65,66
 292 61 292 61 271 69 c 1,67,68
 246 80 246 80 240 98 c 0,69,70
 238 105 238 105 238 112 c 0,71,72
 238 144 238 144 278 171 c 0,73,74
 312 194 312 194 346 200 c 1,75,-1
 332 268 l 1,76,77
 264 247 264 247 230 230 c 0,78,79
 205 218 205 218 189 218 c 0,80,81
 170 218 170 218 176 238 c 1,0,-1
EndSplineSet
EndChar

StartChar: hyphen
Encoding: 45 45 16
AltUni2: 002010.ffffffff.0
Width: 378
Flags: W
LayerCount: 2
Fore
SplineSet
108 232 m 1,0,1
 146 220 146 220 203 222 c 2,2,-1
 339 226 l 1,3,-1
 255 161 l 1,4,5
 208 166 208 166 150 168 c 0,6,7
 144 168 144 168 82 167 c 0,8,9
 60 167 60 167 24 165 c 1,10,-1
 108 232 l 1,0,1
EndSplineSet
EndChar

StartChar: period
Encoding: 46 46 17
Width: 494
Flags: W
LayerCount: 2
Fore
SplineSet
393 181 m 0,0,1
 359 48 359 48 354 -16 c 1,2,-1
 438 14 l 1,3,4
 449 76 449 76 468 202 c 0,5,6
 474 244 474 244 474 273 c 0,7,8
 474 335 474 335 442 358 c 0,9,10
 415 377 415 377 380 377 c 0,11,12
 306 377 306 377 259 318 c 0,13,14
 215 263 215 263 189 194 c 1,15,16
 202 194 202 194 202 173 c 0,17,18
 202 134 202 134 172 87 c 0,19,20
 138 34 138 34 98 36 c 0,21,22
 66 38 66 38 66 75 c 0,23,24
 66 122 66 122 132 256 c 0,25,26
 146 284 146 284 172 319.5 c 128,-1,27
 198 355 198 355 214 366 c 1,28,-1
 154 384 l 1,29,30
 116 363 116 363 74 298 c 0,31,32
 38 243 38 243 26 200 c 0,33,34
 12 152 12 152 12 113 c 0,35,36
 12 35 12 35 68 6 c 0,37,38
 85 -3 85 -3 126 -3 c 0,39,40
 176 -3 176 -3 197 13 c 0,41,42
 230 38 230 38 247 76 c 0,43,44
 254 91 254 91 268 142 c 0,45,46
 271 154 271 154 269 170 c 0,47,48
 266 190 266 190 256 193 c 1,49,50
 275 244 275 244 303 281 c 0,51,52
 334 322 334 322 361 322 c 0,53,54
 401 322 401 322 401 247 c 0,55,56
 401 214 401 214 393 181 c 0,0,1
EndSplineSet
EndChar

StartChar: slash
Encoding: 47 47 18
Width: 664
Flags: W
LayerCount: 2
Fore
SplineSet
188 621 m 1,0,1
 191 583 191 583 126 423 c 0,2,3
 34 199 34 199 22 162 c 0,4,5
 6 114 6 114 6 91 c 0,6,7
 6 61 6 61 28 36 c 0,8,9
 66 -7 66 -7 138 -7 c 0,10,11
 162 -7 162 -7 188 -2 c 0,12,13
 249 9 249 9 313 89 c 128,-1,14
 377 169 377 169 384 246 c 0,15,16
 387 279 387 279 363.5 317.5 c 128,-1,17
 340 356 340 356 308 364 c 0,18,19
 297 367 297 367 284 367 c 0,20,21
 209 367 209 367 142 294 c 1,22,23
 260 556 260 556 260 625 c 0,24,25
 260 633 260 633 258 638 c 1,26,-1
 188 621 l 1,0,1
120 210 m 0,27,28
 141 245 141 245 176 268.5 c 128,-1,29
 211 292 211 292 244 292 c 0,30,31
 268 292 268 292 285 279 c 0,32,33
 316 256 316 256 316 215 c 0,34,35
 316 157 316 157 268 102 c 0,36,37
 207 31 207 31 147 31 c 0,38,39
 112 31 112 31 85 57 c 0,40,41
 74 68 74 68 74 89 c 0,42,43
 74 133 74 133 120 210 c 0,27,28
598 572 m 1,44,45
 503 456 503 456 444 342 c 0,46,47
 380 218 380 218 380 134 c 0,48,49
 380 75 380 75 416 35 c 0,50,51
 455 -8 455 -8 514 -8 c 0,52,53
 531 -8 531 -8 548 -4 c 0,54,55
 633 15 633 15 652 104 c 1,56,-1
 604 178 l 1,57,58
 595 122 595 122 567 76 c 0,59,60
 538 27 538 27 507 27 c 0,61,62
 489 27 489 27 474 46 c 0,63,64
 456 68 456 68 456 133 c 0,65,66
 456 192 456 192 470 240 c 0,67,68
 496 330 496 330 530 392 c 0,69,70
 553 434 553 434 654 588 c 1,71,-1
 626 630 l 1,72,73
 601 622 601 622 561 616 c 0,74,75
 537 613 537 613 513 610 c 1,76,77
 491 606 491 606 459 610 c 0,78,79
 453 611 453 611 454 619 c 0,80,81
 455 626 455 626 460 631 c 1,82,-1
 409 631 l 1,83,84
 381 602 381 602 381 568 c 0,85,86
 381 533 381 533 429 533 c 0,87,88
 442 533 442 533 456 537 c 1,89,90
 508 548 508 548 598 572 c 1,44,45
EndSplineSet
EndChar

StartChar: zero
Encoding: 48 48 19
Width: 364
Flags: W
LayerCount: 2
Fore
SplineSet
67 198 m 0,0,1
 77 141 77 141 105 101 c 0,2,3
 136 57 136 57 174 56 c 0,4,5
 187 56 187 56 212.5 72.5 c 128,-1,6
 238 89 238 89 248.5 105 c 128,-1,7
 259 121 259 121 271 153 c 0,8,9
 285 190 285 190 285 210 c 0,10,11
 285 294 285 294 252 366 c 0,12,13
 231 413 231 413 184 413 c 0,14,15
 147 413 147 413 119 387 c 0,16,17
 64 336 64 336 64 234 c 0,18,19
 64 215 64 215 67 198 c 0,0,1
86 412 m 0,20,21
 132 475 132 475 204 475 c 0,22,23
 264 475 264 475 309 410 c 0,24,25
 347 355 347 355 348 272 c 0,26,27
 349 168 349 168 284 79 c 128,-1,28
 219 -10 219 -10 137 -10 c 0,29,30
 89 -10 89 -10 46 48 c 0,31,32
 8 100 8 100 8 179 c 0,33,34
 8 306 8 306 86 412 c 0,20,21
EndSplineSet
EndChar

StartChar: one
Encoding: 49 49 20
Width: 202
Flags: W
LayerCount: 2
Fore
SplineSet
14 404 m 1,0,-1
 84 475 l 2,1,2
 103 494 103 494 115 494 c 0,3,4
 133 494 133 494 138 452 c 0,5,6
 144 405 144 405 144 319 c 2,7,-1
 143 19 l 1,8,-1
 79 -22 l 1,9,10
 79 12 79 12 81 79 c 128,-1,11
 83 146 83 146 83 180 c 0,12,13
 83 312 83 312 76.5 348.5 c 128,-1,14
 70 385 70 385 47 386 c 0,15,16
 29 387 29 387 21 381 c 1,17,-1
 14 404 l 1,0,-1
EndSplineSet
EndChar

StartChar: two
Encoding: 50 50 21
Width: 298
Flags: W
LayerCount: 2
Fore
SplineSet
100 72 m 1,0,1
 116 75 116 75 191 71 c 1,2,3
 219 67 219 67 285 58 c 1,4,-1
 235 -10 l 1,5,6
 179 12 179 12 107 7 c 0,7,8
 89 6 89 6 27 -2 c 1,9,-1
 11 31 l 1,10,11
 35 52 35 52 82 103 c 1,12,13
 191 241 191 241 200 299 c 0,14,15
 203 315 203 315 203 329 c 0,16,17
 203 375 203 375 175 403 c 0,18,19
 161 417 161 417 138 417 c 0,20,21
 119 417 119 417 103 408 c 0,22,23
 67 387 67 387 38 363 c 1,24,-1
 27 396 l 1,25,26
 53 427 53 427 92 452 c 0,27,28
 136 481 136 481 163 481 c 0,29,30
 213 481 213 481 245 443 c 128,-1,31
 277 405 277 405 277 354 c 0,32,33
 277 308 277 308 253.5 264 c 128,-1,34
 230 220 230 220 100 72 c 1,0,1
EndSplineSet
EndChar

StartChar: three
Encoding: 51 51 22
Width: 293
Flags: W
LayerCount: 2
Fore
SplineSet
171 291 m 1,0,1
 221 282 221 282 248 248 c 0,2,3
 272 218 272 218 273 175 c 0,4,5
 274 131 274 131 237 83 c 0,6,7
 208 44 208 44 57 -35 c 1,8,-1
 39 2 l 1,9,10
 85 16 85 16 130 53 c 0,11,12
 205 114 205 114 199 166 c 0,13,14
 192 231 192 231 119 231 c 0,15,16
 82 231 82 231 36 211 c 1,17,-1
 34 244 l 1,18,19
 151 286 151 286 166 347 c 0,20,21
 172 370 172 370 172 378 c 0,22,23
 172 401 172 401 154 417 c 0,24,25
 144 426 144 426 129 426 c 0,26,27
 83 426 83 426 17 369 c 1,28,-1
 3 400 l 1,29,30
 86 479 86 479 154 481 c 0,31,32
 189 482 189 482 217.5 457.5 c 128,-1,33
 246 433 246 433 246 399 c 0,34,35
 246 377 246 377 231 351 c 0,36,37
 210 315 210 315 171 291 c 1,0,1
EndSplineSet
EndChar

StartChar: four
Encoding: 52 52 23
Width: 366
Flags: W
LayerCount: 2
Fore
SplineSet
253 179 m 1,0,1
 280 179 280 179 299 183.5 c 128,-1,2
 318 188 318 188 347 194 c 1,3,-1
 307 113 l 1,4,-1
 253 111 l 1,5,-1
 250 21 l 1,6,-1
 186 -31 l 1,7,8
 186 47 186 47 191 106 c 1,9,10
 164 105 164 105 111 102 c 0,11,12
 43 97 43 97 21 123 c 0,13,14
 4 143 4 143 4 172 c 0,15,16
 4 224 4 224 59 309 c 0,17,18
 147 444 147 444 191 479 c 1,19,-1
 218 453 l 1,20,21
 167 397 167 397 123 322 c 0,22,23
 72 235 72 235 72 198 c 0,24,25
 72 179 72 179 85 173 c 256,26,27
 98 167 98 167 189 174 c 1,28,29
 189 219 189 219 195 321 c 1,30,-1
 259 380 l 1,31,-1
 253 179 l 1,0,1
EndSplineSet
EndChar

StartChar: five
Encoding: 53 53 24
Width: 310
Flags: W
LayerCount: 2
Fore
SplineSet
108 469 m 1,0,1
 105 469 105 469 143 462.5 c 128,-1,2
 181 456 181 456 224 455 c 0,3,4
 270 454 270 454 320 465 c 1,5,6
 281 398 281 398 277.5 394.5 c 128,-1,7
 274 391 274 391 239 386 c 0,8,9
 191 379 191 379 120 395 c 1,10,-1
 68 305 l 1,11,12
 219 284 219 284 235 170 c 0,13,14
 242 122 242 122 191 66 c 0,15,16
 165 37 165 37 114 11 c 1,17,18
 68 -11 68 -11 22 -34 c 1,19,-1
 -5 0 l 1,20,21
 151 63 151 63 156 154 c 0,22,23
 158 194 158 194 111 224 c 128,-1,24
 64 254 64 254 2 258 c 1,25,-1
 108 469 l 1,0,1
EndSplineSet
EndChar

StartChar: six
Encoding: 54 54 25
Width: 327
Flags: W
LayerCount: 2
Fore
SplineSet
108 218 m 1,0,-1
 113 260 l 1,1,2
 147 309 147 309 215 306 c 0,3,4
 246 304 246 304 275 271 c 0,5,6
 307 235 307 235 307 188 c 0,7,8
 307 105 307 105 259 53 c 0,9,10
 219 10 219 10 187 -3 c 0,11,12
 170 -9 170 -9 134 -10 c 0,13,14
 84 -11 84 -11 46.5 44 c 128,-1,15
 9 99 9 99 9 173 c 0,16,17
 9 264 9 264 74 353 c 0,18,19
 106 397 106 397 210 488 c 1,20,-1
 233 453 l 1,21,22
 147 377 147 377 122 343 c 0,23,24
 74 278 74 278 74 201 c 0,25,26
 74 149 74 149 97 106 c 0,27,28
 127 49 127 49 173 49 c 0,29,30
 188 49 188 49 201 58 c 0,31,32
 242 85 242 85 242 151 c 0,33,34
 242 187 242 187 223.5 216 c 128,-1,35
 205 245 205 245 168 245 c 0,36,37
 137 245 137 245 108 218 c 1,0,-1
EndSplineSet
EndChar

StartChar: seven
Encoding: 55 55 26
Width: 292
Flags: W
LayerCount: 2
Fore
SplineSet
264 455 m 1,0,-1
 275 440 l 1,1,2
 204 312 204 312 174 241 c 0,3,4
 120 113 120 113 120 40 c 0,5,6
 120 32 120 32 121 27 c 1,7,-1
 19 -26 l 1,8,-1
 119 224 l 2,9,10
 144 285 144 285 190 393 c 1,11,12
 147 384 147 384 108 380 c 0,13,14
 73 377 73 377 46 384 c 0,15,16
 15 393 15 393 11 411 c 0,17,18
 10 417 10 417 10 423 c 0,19,20
 10 451 10 451 41 477 c 1,21,22
 54 453 54 453 92.5 450.5 c 128,-1,23
 131 448 131 448 170 448 c 1,24,25
 197 447 197 447 264 455 c 1,0,-1
EndSplineSet
EndChar

StartChar: eight
Encoding: 56 56 27
Width: 328
Flags: W
LayerCount: 2
Fore
SplineSet
147 223 m 1,0,1
 72 160 72 160 68 124 c 0,2,3
 64 91 64 91 87 65 c 1,4,5
 114 32 114 32 166 35 c 0,6,7
 188 36 188 36 208 58 c 0,8,9
 232 85 232 85 232 124 c 0,10,11
 232 136 232 136 230 149 c 0,12,13
 223 189 223 189 147 223 c 1,0,1
296 399 m 0,15,16
 296 372 296 372 279 345 c 0,17,18
 258 311 258 311 201 275 c 1,19,20
 255 251 255 251 277 231 c 1,21,22
 307 206 307 206 308 173 c 0,23,24
 309 146 309 146 292 109 c 0,25,26
 272 65 272 65 239 37 c 0,27,28
 179 -13 179 -13 126 -13 c 0,29,30
 110 -13 110 -13 93 -9 c 0,31,32
 54 0 54 0 30 28 c 128,-1,33
 6 56 6 56 6 93 c 0,34,35
 6 121 6 121 20 148 c 0,36,37
 41 191 41 191 110 236 c 1,38,39
 69 257 69 257 49 272 c 0,40,41
 22 292 22 292 22 339 c 0,42,43
 22 368 22 368 36 394 c 0,44,45
 58 435 58 435 105 463 c 0,46,47
 142 484 142 484 189 484 c 0,48,49
 248 484 248 484 272 457 c 128,-1,14
 296 430 296 430 296 399 c 0,15,16
90 385 m 0,50,51
 86 373 86 373 86 362 c 0,52,53
 86 322 86 322 166 286 c 1,54,55
 231 343 231 343 231 389 c 0,56,57
 231 413 231 413 213.5 429 c 128,-1,58
 196 445 196 445 171 445 c 0,59,60
 113 445 113 445 90 385 c 0,50,51
EndSplineSet
EndChar

StartChar: nine
Encoding: 57 57 28
Width: 327
Flags: W
LayerCount: 2
Fore
SplineSet
208 246 m 1,0,-1
 203 204 l 1,1,2
 169 155 169 155 101 158 c 0,3,4
 70 160 70 160 41 193 c 0,5,6
 9 229 9 229 9 276 c 0,7,8
 9 359 9 359 57 411 c 0,9,10
 97 454 97 454 129 467 c 0,11,12
 146 473 146 473 182 474 c 0,13,14
 232 475 232 475 269.5 420 c 128,-1,15
 307 365 307 365 307 291 c 0,16,17
 307 200 307 200 242 111 c 0,18,19
 210 67 210 67 106 -24 c 1,20,-1
 83 11 l 1,21,22
 169 87 169 87 194 121 c 0,23,24
 242 186 242 186 242 263 c 0,25,26
 242 315 242 315 219 358 c 0,27,28
 189 415 189 415 143 415 c 0,29,30
 128 415 128 415 115 406 c 0,31,32
 74 379 74 379 74 313 c 0,33,34
 74 277 74 277 92.5 248 c 128,-1,35
 111 219 111 219 148 219 c 0,36,37
 179 219 179 219 208 246 c 1,0,-1
EndSplineSet
EndChar

StartChar: colon
Encoding: 58 58 29
Width: 456
Flags: W
LayerCount: 2
Fore
SplineSet
298 530 m 0,0,1
 277 536 277 536 257 538 c 0,2,3
 232 540 232 540 228 541 c 1,4,5
 215 554 215 554 188 554 c 0,6,7
 160 554 160 554 132 542 c 1,8,-1
 132 504 l 1,9,10
 150 494 150 494 190 490 c 1,11,12
 183 459 183 459 183 442 c 0,13,14
 183 374 183 374 280 374 c 0,15,16
 312 374 312 374 355 381 c 1,17,18
 389 309 389 309 389 246 c 0,19,20
 389 219 389 219 383 194 c 0,21,22
 362 113 362 113 295 79 c 0,23,24
 256 59 256 59 211 59 c 0,25,26
 171 59 171 59 130 74 c 0,27,28
 67 97 67 97 67 124 c 0,29,30
 67 149 67 149 111 187 c 0,31,32
 211 273 211 273 231 325 c 1,33,-1
 168 363 l 1,34,35
 145 324 145 324 117 294 c 1,36,37
 86 263 86 263 56 232 c 0,38,39
 10 183 10 183 10 129 c 0,40,41
 10 104 10 104 20 78 c 0,42,43
 35 38 35 38 90 16 c 0,44,45
 136 -3 136 -3 199 -3 c 0,46,47
 279 -3 279 -3 324 28 c 0,48,49
 362 54 362 54 399 131 c 0,50,51
 442 221 442 221 436 298 c 0,52,53
 430 382 430 382 397 442 c 1,54,55
 360 512 360 512 298 530 c 0,0,1
336 414 m 1,56,57
 292 409 292 409 261 432.5 c 128,-1,58
 230 456 230 456 234 492 c 1,59,60
 292 481 292 481 336 414 c 1,56,57
EndSplineSet
EndChar

StartChar: semicolon
Encoding: 59 59 30
Width: 514
Flags: W
LayerCount: 2
Fore
SplineSet
138 390 m 1,0,1
 132 382 132 382 131 373 c 256,2,3
 130 364 130 364 136 364 c 0,4,5
 145 364 145 364 200 372 c 0,6,7
 243 378 243 378 244 320 c 1,8,9
 312 382 312 382 399 382 c 0,10,11
 442 382 442 382 470.5 361.5 c 128,-1,12
 499 341 499 341 499 282 c 0,13,14
 499 250 499 250 492 202 c 0,15,16
 487 165 487 165 468 100 c 0,17,18
 444 16 444 16 440 -2 c 1,19,-1
 356 -22 l 1,20,21
 361 -3 361 -3 404 136 c 0,22,23
 419 183 419 183 419 230 c 0,24,25
 419 295 419 295 388 310 c 0,26,27
 371 318 371 318 350 318 c 0,28,29
 302 318 302 318 270 288 c 1,30,31
 307 269 307 269 326 216 c 0,32,33
 334 194 334 194 334 169 c 0,34,35
 334 91 334 91 282 46 c 0,36,37
 225 -3 225 -3 155 -3 c 0,38,39
 115 -3 115 -3 88 16 c 0,40,41
 78 23 78 23 65 51 c 0,42,43
 54 75 54 75 47 75 c 0,44,45
 42 75 42 75 35 65 c 128,-1,46
 28 55 28 55 22 46 c 1,47,-1
 2 92 l 1,48,49
 26 119 26 119 91 183 c 128,-1,50
 156 247 156 247 184 270 c 1,51,52
 187 297 187 297 156 297 c 0,53,54
 143 297 143 297 121.5 291 c 128,-1,55
 100 285 100 285 89 285 c 0,56,57
 53 285 53 285 53 313 c 0,58,59
 53 347 53 347 86 388 c 1,60,-1
 138 390 l 1,0,1
100 126 m 1,61,62
 112 119 112 119 126.5 90.5 c 128,-1,63
 141 62 141 62 170 54 c 0,64,65
 188 49 188 49 202 49 c 0,66,67
 261 49 261 49 266 130 c 0,68,69
 268 160 268 160 249 189 c 0,70,71
 232 215 232 215 206 228 c 1,72,73
 143 175 143 175 100 126 c 1,61,62
EndSplineSet
EndChar

StartChar: less
Encoding: 60 60 31
Width: 473
Flags: W
LayerCount: 2
Fore
SplineSet
439 182 m 1,0,1
 422 192 422 192 373 202 c 0,2,3
 317 213 317 213 265 213 c 0,4,5
 171 213 171 213 133 174 c 1,6,7
 151 93 151 93 239 78 c 0,8,9
 267 73 267 73 303 101 c 0,10,11
 334 126 334 126 365 150 c 1,12,-1
 413 98 l 1,13,14
 372 68 372 68 331 38 c 1,15,16
 281 6 281 6 237 6 c 0,17,18
 220 6 220 6 203 10 c 0,19,20
 149 24 149 24 117 68 c 1,21,22
 100 98 100 98 84 128 c 1,23,24
 67 109 67 109 67 75 c 0,25,26
 67 21 67 21 104 -28 c 0,27,28
 146 -84 146 -84 215 -98 c 0,29,30
 245 -104 245 -104 272 -104 c 0,31,32
 341 -104 341 -104 381 -69 c 0,33,34
 426 -30 426 -30 425 46 c 1,35,-1
 491 2 l 1,36,37
 470 -61 470 -61 433 -99 c 0,38,39
 352 -182 352 -182 236 -182 c 0,40,41
 124 -182 124 -182 53 -100 c 0,42,43
 8 -48 8 -48 8 37 c 0,44,45
 8 90 8 90 27 136.5 c 128,-1,46
 46 183 46 183 77 202 c 1,47,48
 75 217 75 217 75 232 c 0,49,50
 75 288 75 288 102 327 c 0,51,52
 133 371 133 371 186 371 c 0,53,54
 214 371 214 371 237.5 357 c 128,-1,55
 261 343 261 343 267 324 c 1,56,57
 292 366 292 366 347 366 c 0,58,59
 397 366 397 366 426.5 333 c 128,-1,60
 456 300 456 300 456 251 c 0,61,62
 456 216 456 216 439 182 c 1,0,1
375 256 m 1,63,64
 381 270 381 270 381 281 c 0,65,66
 381 299 381 299 365 307 c 0,67,68
 355 312 355 312 345 312 c 0,69,70
 324 312 324 312 307 295 c 128,-1,71
 290 278 290 278 288 262 c 1,72,73
 331 266 331 266 375 256 c 1,63,64
219 258 m 1,74,75
 222 287 222 287 209.5 302.5 c 128,-1,76
 197 318 197 318 177 318 c 0,77,78
 167 318 167 318 157 314 c 0,79,80
 121 298 121 298 121 248 c 0,81,82
 121 239 121 239 123 230 c 1,83,84
 157 252 157 252 219 258 c 1,74,75
EndSplineSet
EndChar

StartChar: equal
Encoding: 61 61 32
Width: 5
Flags: W
LayerCount: 2
Fore
SplineSet
-23 -154 m 1,0,-1
 11 -50 l 1,1,2
 -13 -67 -13 -67 -37 -83 c 0,3,4
 -70 -104 -70 -104 -85 -102 c 0,5,6
 -117 -98 -117 -98 -117 -40 c 0,7,8
 -117 -14 -117 -14 -110 32 c 0,9,10
 -102 84 -102 84 -101 92 c 1,11,12
 -132 5 -132 5 -177 -4 c 1,13,14
 -187 -47 -187 -47 -187 -69 c 0,15,16
 -187 -106 -187 -106 -165 -132 c 0,17,18
 -136 -166 -136 -166 -87 -166 c 0,19,20
 -59 -166 -59 -166 -23 -154 c 1,0,-1
EndSplineSet
EndChar

StartChar: greater
Encoding: 62 62 33
Width: 526
Flags: W
LayerCount: 2
Fore
SplineSet
169 400 m 1,0,-1
 118 400 l 1,1,2
 85 360 85 360 85 327 c 0,3,4
 85 307 85 307 117 304 c 1,5,6
 115 304 115 304 163 304 c 0,7,8
 197 304 197 304 208 301 c 0,9,10
 229 294 229 294 235 269 c 0,11,12
 239 253 239 253 201.5 213.5 c 128,-1,13
 164 174 164 174 127 154 c 1,14,15
 122 161 122 161 105 170 c 128,-1,16
 88 179 88 179 78 178 c 0,17,18
 52 175 52 175 13.5 129.5 c 128,-1,19
 -25 84 -25 84 -17 70 c 0,20,21
 -13 63 -13 63 0 63 c 0,22,23
 48 63 48 63 97 97 c 1,24,25
 116 69 116 69 147.5 35.5 c 128,-1,26
 179 2 179 2 191 -3 c 0,27,28
 214 -14 214 -14 235 1 c 128,-1,29
 256 16 256 16 277 31 c 1,30,31
 303 53 303 53 303 71 c 0,32,33
 303 82 303 82 294.5 106 c 128,-1,34
 286 130 286 130 286 139 c 0,35,36
 286 155 286 155 302 159 c 0,37,38
 311 161 311 161 317 161 c 0,39,40
 336 161 336 161 336 140 c 0,41,42
 336 128 336 128 326.5 92.5 c 128,-1,43
 317 57 317 57 317 41 c 0,44,45
 317 32 317 32 320 25 c 0,46,47
 331 -2 331 -2 392 -2 c 0,48,49
 442 -2 442 -2 476 28.5 c 128,-1,50
 510 59 510 59 510 108 c 0,51,52
 510 135 510 135 488 187 c 128,-1,53
 466 239 466 239 466 260 c 0,54,55
 466 289 466 289 495 317 c 1,56,57
 521 337 521 337 547 358 c 1,58,-1
 505 382 l 1,59,60
 461 371 461 371 444 362 c 0,61,62
 417 349 417 349 400 322 c 0,63,64
 389 304 389 304 389 285 c 0,65,66
 389 260 389 260 413 214 c 0,67,68
 439 165 439 165 442 142 c 0,69,70
 449 81 449 81 426 61 c 0,71,72
 415 51 415 51 407 52 c 0,73,74
 383 54 383 54 383 72 c 0,75,76
 383 82 383 82 400 119 c 0,77,78
 415 153 415 153 412 170 c 0,79,80
 406 200 406 200 352 200 c 0,81,82
 319 200 319 200 285 188 c 128,-1,83
 251 176 251 176 237 157.5 c 128,-1,84
 223 139 223 139 223 120 c 0,85,86
 223 103 223 103 237 82.5 c 128,-1,87
 251 62 251 62 251 60 c 0,88,89
 251 54 251 54 238 54 c 0,90,91
 213 54 213 54 163 124 c 1,92,93
 221 156 221 156 262 193 c 0,94,95
 327 251 327 251 327 287 c 0,96,97
 327 307 327 307 305 335 c 0,98,99
 285 360 285 360 250 367 c 1,100,101
 219 369 219 369 164 379 c 0,102,103
 160 380 160 380 160 384 c 0,104,105
 160 389 160 389 169 400 c 1,0,-1
EndSplineSet
EndChar

StartChar: question
Encoding: 63 63 34
Width: 664
Flags: W
LayerCount: 2
Fore
SplineSet
188 621 m 1,0,1
 191 583 191 583 126 423 c 0,2,3
 34 199 34 199 22 162 c 0,4,5
 6 114 6 114 6 91 c 0,6,7
 6 61 6 61 28 36 c 0,8,9
 66 -7 66 -7 138 -7 c 0,10,11
 162 -7 162 -7 188 -2 c 0,12,13
 249 9 249 9 313 89 c 128,-1,14
 377 169 377 169 384 246 c 0,15,16
 387 279 387 279 363.5 317.5 c 128,-1,17
 340 356 340 356 308 364 c 0,18,19
 297 367 297 367 284 367 c 0,20,21
 209 367 209 367 142 294 c 1,22,23
 260 556 260 556 260 625 c 0,24,25
 260 633 260 633 258 638 c 1,26,-1
 188 621 l 1,0,1
120 210 m 0,27,28
 141 245 141 245 176 268.5 c 128,-1,29
 211 292 211 292 244 292 c 0,30,31
 268 292 268 292 285 279 c 0,32,33
 316 256 316 256 316 215 c 0,34,35
 316 157 316 157 268 102 c 0,36,37
 207 31 207 31 147 31 c 0,38,39
 112 31 112 31 85 57 c 0,40,41
 74 68 74 68 74 89 c 0,42,43
 74 133 74 133 120 210 c 0,27,28
562 566 m 1,44,45
 518 543 518 543 473 520 c 1,46,47
 406 482 406 482 406 456 c 0,48,49
 406 418 406 418 491 418 c 0,50,51
 533 418 533 418 551 429 c 1,52,53
 467 355 467 355 421 274 c 0,54,55
 377 198 377 198 377 133 c 0,56,57
 377 99 377 99 390 72 c 0,58,59
 428 -8 428 -8 512 -8 c 0,60,61
 530 -8 530 -8 548 -4 c 0,62,63
 634 17 634 17 652 104 c 1,64,-1
 604 178 l 1,65,66
 595 122 595 122 567 76 c 0,67,68
 538 27 538 27 507 27 c 0,69,70
 489 27 489 27 474 46 c 0,71,72
 456 68 456 68 456 133 c 0,73,74
 456 193 456 193 470 240 c 0,75,76
 490 309 490 309 523.5 353.5 c 128,-1,77
 557 398 557 398 633 459 c 1,78,-1
 634 518 l 1,79,80
 608 507 608 507 583 496 c 0,81,82
 522 467 522 467 503 467 c 0,83,84
 494 467 494 467 492 472 c 0,85,86
 490 480 490 480 562 523 c 0,87,88
 641 570 641 570 654 588 c 1,89,-1
 626 630 l 1,90,91
 601 622 601 622 561 616 c 0,92,93
 537 613 537 613 513 610 c 1,94,95
 491 606 491 606 459 610 c 0,96,97
 453 611 453 611 454 619 c 0,98,99
 455 626 455 626 460 631 c 1,100,-1
 409 631 l 1,101,102
 381 602 381 602 381 568 c 0,103,104
 381 533 381 533 429 533 c 0,105,106
 442 533 442 533 456 537 c 0,107,108
 485 546 485 546 562 566 c 1,44,45
EndSplineSet
EndChar

StartChar: at
Encoding: 64 64 35
Width: 274
Flags: W
LayerCount: 2
Fore
SplineSet
75 266 m 1,0,-1
 25 286 l 1,1,2
 10 315 10 315 10 343 c 0,3,4
 10 389 10 389 49 422 c 1,5,6
 87 452 87 452 135 452 c 0,7,8
 188 452 188 452 224 409.5 c 128,-1,9
 260 367 260 367 253 314 c 0,10,11
 246 263 246 263 198 213 c 1,12,13
 147 162 147 162 137 112 c 1,14,-1
 57 108 l 1,15,16
 67 145 67 145 104 178 c 0,17,18
 159 229 159 229 163 233 c 0,19,20
 190 268 190 268 185 316 c 0,21,22
 182 347 182 347 164 374 c 0,23,24
 143 407 143 407 115 408 c 0,25,26
 68 410 68 410 68 331 c 0,27,28
 68 301 68 301 75 266 c 1,0,-1
58 86 m 1,29,-1
 138 86 l 1,30,31
 128 71 128 71 124 39 c 0,32,33
 121 10 121 10 124 -8 c 1,34,-1
 46 0 l 1,35,36
 40 15 40 15 40 33 c 0,37,38
 40 63 40 63 58 86 c 1,29,-1
EndSplineSet
EndChar

StartChar: A
Encoding: 65 65 36
Width: 9
Flags: W
LayerCount: 2
Fore
SplineSet
47 672 m 1,0,-1
 -51 648 l 1,1,2
 -73 626 -73 626 -85 559 c 0,3,4
 -94 509 -94 509 -93 472 c 1,5,6
 -74 454 -74 454 -58 415 c 0,7,8
 -44 380 -44 380 -41 354 c 1,9,10
 -43 423 -43 423 -19 529 c 0,11,12
 9 653 9 653 47 672 c 1,0,-1
EndSplineSet
EndChar

StartChar: B
Encoding: 66 66 37
Width: 398
Flags: W
LayerCount: 2
Fore
SplineSet
120 210 m 0,0,1
 74 133 74 133 74 89 c 0,2,3
 74 68 74 68 85 57 c 0,4,5
 112 31 112 31 147 31 c 0,6,7
 207 31 207 31 268 102 c 0,8,9
 316 157 316 157 316 215 c 0,10,11
 316 256 316 256 285 279 c 0,12,13
 268 292 268 292 244 292 c 0,14,15
 211 292 211 292 176 268.5 c 128,-1,16
 141 245 141 245 120 210 c 0,0,1
96 579 m 1,17,18
 36 537 36 537 36 511 c 0,19,20
 36 494 36 494 55 477 c 128,-1,21
 74 460 74 460 92 460 c 0,22,23
 101 460 101 460 110 464 c 0,24,25
 140 477 140 477 140 520 c 0,26,27
 140 545 140 545 96 579 c 1,17,18
329 581 m 1,28,-1
 356 559 l 1,29,-1
 372 570 l 1,30,31
 432 521 432 521 427 472 c 0,32,33
 423 432 423 432 393.5 406.5 c 128,-1,34
 364 381 364 381 324 383 c 0,35,36
 263 387 263 387 238 451 c 0,37,38
 234 460 234 460 234 470 c 0,39,40
 234 508 234 508 329 581 c 1,28,-1
344 531 m 1,41,42
 284 489 284 489 284 463 c 0,43,44
 284 446 284 446 303 429 c 128,-1,45
 322 412 322 412 340 412 c 0,46,47
 349 412 349 412 358 416 c 0,48,49
 388 429 388 429 388 472 c 0,50,51
 388 497 388 497 344 531 c 1,41,42
22 162 m 0,52,53
 40 215 40 215 135 446 c 1,54,55
 112 429 112 429 76 431 c 0,56,57
 15 434 15 434 -10 499 c 0,58,59
 -14 508 -14 508 -14 518 c 0,60,61
 -14 556 -14 556 81 629 c 1,62,-1
 108 607 l 1,63,-1
 124 618 l 1,64,65
 164 586 164 586 175 555 c 1,66,67
 190 595 190 595 188 621 c 1,68,-1
 258 638 l 1,69,70
 260 633 260 633 260 625 c 0,71,72
 260 556 260 556 142 294 c 1,73,74
 209 367 209 367 284 367 c 0,75,76
 297 367 297 367 308 364 c 0,77,78
 340 356 340 356 363.5 317.5 c 128,-1,79
 387 279 387 279 384 246 c 0,80,81
 377 169 377 169 313 89 c 128,-1,82
 249 9 249 9 188 -2 c 0,83,84
 162 -7 162 -7 138 -7 c 0,85,86
 66 -7 66 -7 28 36 c 0,87,88
 6 61 6 61 6 91 c 0,89,90
 6 114 6 114 22 162 c 0,52,53
EndSplineSet
EndChar

StartChar: C
Encoding: 67 67 38
Width: 412
Flags: W
LayerCount: 2
Fore
SplineSet
196 209 m 1,0,1
 232 231 232 231 269 231 c 0,2,3
 291 231 291 231 312 223 c 0,4,5
 347 209 347 209 362 161 c 0,6,7
 366 148 366 148 366 132 c 0,8,9
 366 103 366 103 353 79 c 128,-1,10
 340 55 340 55 322 55 c 0,11,12
 315 55 315 55 308 59 c 0,13,14
 293 68 293 68 293 90 c 0,15,16
 293 103 293 103 299 127 c 0,17,18
 310 165 310 165 310 167 c 1,19,-1
 230 149 l 1,20,21
 212 94 212 94 185 69 c 0,22,23
 182 67 182 67 179 67 c 0,24,25
 173 67 173 67 157 82 c 0,26,27
 138 99 138 99 128 103 c 0,28,29
 122 106 122 106 106 110 c 1,30,31
 121 129 121 129 158 171 c 0,32,33
 169 183 169 183 196 209 c 1,0,1
530 322 m 1,34,35
 515 337 515 337 504 347 c 0,36,37
 470 378 470 378 400 378 c 0,38,39
 375 378 375 378 352 373 c 0,40,41
 291 361 291 361 226 309 c 1,42,43
 234 343 234 343 213 364 c 0,44,45
 200 377 200 377 163 370 c 0,46,47
 134 364 134 364 121 366 c 256,48,49
 108 368 108 368 122 385 c 1,50,-1
 71 385 l 1,51,52
 40 352 40 352 40 315 c 0,53,54
 40 289 40 289 75 289 c 0,55,56
 90 289 90 289 117 296 c 128,-1,57
 144 303 144 303 157 303 c 0,58,59
 183 303 183 303 184 270 c 1,60,61
 163 250 163 250 98 177 c 0,62,63
 66 141 66 141 4 67 c 1,64,-1
 24 7 l 1,65,66
 38 27 38 27 46.5 33 c 128,-1,67
 55 39 55 39 70 37 c 0,68,69
 90 34 90 34 124 5 c 0,70,71
 140 -9 140 -9 156 -3 c 0,72,73
 183 7 183 7 222 53 c 1,74,75
 239 13 239 13 268 1 c 0,76,77
 281 -4 281 -4 304 -4 c 1,78,79
 326 -3 326 -3 336 3 c 0,80,81
 371 25 371 25 396.5 78.5 c 128,-1,82
 422 132 422 132 422 183 c 0,83,84
 422 231 422 231 398 257 c 0,85,86
 368 290 368 290 322 290 c 0,87,88
 308 290 308 290 278 287 c 1,89,90
 333 325 333 325 392 319 c 0,91,92
 416 316 416 316 439 299 c 128,-1,93
 462 282 462 282 473 262 c 1,94,95
 479 271 479 271 530 322 c 1,34,35
EndSplineSet
EndChar

StartChar: D
Encoding: 68 68 39
Width: 267
Flags: W
LayerCount: 2
Fore
SplineSet
163 86 m 1,0,1
 159 87 159 87 155 87 c 0,2,3
 143 87 143 87 128.5 72.5 c 128,-1,4
 114 58 114 58 108 58 c 0,5,6
 103 58 103 58 99 62 c 0,7,8
 78 83 78 83 78 126 c 0,9,10
 78 143 78 143 81 164 c 0,11,12
 88 206 88 206 134 206 c 0,13,14
 153 206 153 206 179 199 c 1,15,16
 174 144 174 144 163 86 c 1,0,1
184 248 m 1,17,18
 168 250 168 250 153 250 c 0,19,20
 9 250 9 250 9 104 c 0,21,22
 9 9 9 9 75 -4 c 0,23,24
 81 -5 81 -5 87 -5 c 0,25,26
 106 -5 106 -5 124.5 13.5 c 128,-1,27
 143 32 143 32 155 34 c 1,28,-1
 151 2 l 1,29,-1
 201 -12 l 1,30,31
 241 93 241 93 247 208 c 0,32,33
 251 281 251 281 227 326 c 0,34,35
 200 377 200 377 143 377 c 0,36,37
 78 377 78 377 25 324 c 1,38,-1
 37 284 l 1,39,40
 68 284 68 284 100 307.5 c 128,-1,41
 132 331 132 331 145 332 c 0,42,43
 171 334 171 334 180 301 c 0,44,45
 185 282 185 282 184 248 c 1,17,18
EndSplineSet
EndChar

StartChar: E
Encoding: 69 69 40
Width: 296
Flags: W
LayerCount: 2
Fore
SplineSet
198 330 m 1,0,1
 160 310 160 310 122 290 c 0,2,3
 58 256 58 256 52 245 c 0,4,5
 48 239 48 239 48 234 c 0,6,7
 48 215 48 215 93 215 c 0,8,9
 130 215 130 215 174 226 c 1,10,11
 120 205 120 205 36 158 c 1,12,13
 3 130 3 130 3 97 c 0,14,15
 3 80 3 80 12 62 c 0,16,17
 50 -18 50 -18 138 -18 c 0,18,19
 156 -18 156 -18 174 -14 c 0,20,21
 250 3 250 3 278 76 c 1,22,-1
 222 124 l 1,23,24
 211 81 211 81 188.5 54.5 c 128,-1,25
 166 28 166 28 141 28 c 0,26,27
 123 28 123 28 108 42 c 0,28,29
 83 64 83 64 83 99 c 0,30,31
 83 121 83 121 97 138 c 0,32,33
 131 176 131 176 239 221 c 1,34,-1
 253 276 l 1,35,36
 235 272 235 272 217 268 c 0,37,38
 172 256 172 256 159 256 c 0,39,40
 152 256 152 256 151 258 c 0,41,42
 146 268 146 268 201 300 c 0,43,44
 249 327 249 327 288 342 c 1,45,-1
 260 384 l 1,46,47
 213 378 213 378 147 368 c 1,48,49
 119 362 119 362 93 366 c 0,50,51
 80 368 80 368 94 385 c 1,52,-1
 43 385 l 1,53,54
 15 356 15 356 15 322 c 0,55,56
 15 287 15 287 63 287 c 0,57,58
 76 287 76 287 90 291 c 0,59,60
 149 308 149 308 198 330 c 1,0,1
EndSplineSet
EndChar

StartChar: F
Encoding: 70 70 41
Width: 328
Flags: W
LayerCount: 2
Fore
SplineSet
100 126 m 1,0,1
 112 119 112 119 126.5 90.5 c 128,-1,2
 141 62 141 62 170 54 c 0,3,4
 188 49 188 49 202 49 c 0,5,6
 261 49 261 49 266 130 c 0,7,8
 268 160 268 160 249 189 c 0,9,10
 232 215 232 215 206 228 c 1,11,12
 143 175 143 175 100 126 c 1,0,1
414 270 m 1,13,14
 407 300 407 300 389 309 c 128,-1,15
 371 318 371 318 350 318 c 0,16,17
 302 318 302 318 270 288 c 1,18,19
 307 269 307 269 326 216 c 0,20,21
 334 194 334 194 334 169 c 0,22,23
 334 91 334 91 282 46 c 0,24,25
 225 -3 225 -3 155 -3 c 0,26,27
 115 -3 115 -3 88 16 c 0,28,29
 78 23 78 23 65 51 c 0,30,31
 54 75 54 75 47 75 c 0,32,33
 42 75 42 75 35 65 c 128,-1,34
 28 55 28 55 22 46 c 1,35,-1
 2 92 l 1,36,37
 26 119 26 119 91 183 c 128,-1,38
 156 247 156 247 184 270 c 1,39,40
 187 297 187 297 156 297 c 0,41,42
 143 297 143 297 121.5 291 c 128,-1,43
 100 285 100 285 89 285 c 0,44,45
 53 285 53 285 53 313 c 0,46,47
 53 347 53 347 86 388 c 1,48,-1
 138 390 l 1,49,50
 132 382 132 382 131 373 c 256,51,52
 130 364 130 364 136 364 c 0,53,54
 145 364 145 364 200 372 c 0,55,56
 243 378 243 378 244 320 c 1,57,58
 312 382 312 382 399 382 c 0,59,60
 442 382 442 382 470 362 c 0,61,62
 484 352 484 352 491 337 c 1,63,64
 439 309 439 309 414 270 c 1,13,14
EndSplineSet
EndChar

StartChar: G
Encoding: 71 71 42
Width: 456
Flags: W
LayerCount: 2
Fore
SplineSet
298 530 m 0,0,1
 277 536 277 536 257 538 c 0,2,3
 232 540 232 540 228 541 c 1,4,5
 215 554 215 554 188 554 c 0,6,7
 160 554 160 554 132 542 c 1,8,-1
 132 504 l 1,9,10
 150 494 150 494 190 490 c 1,11,12
 183 459 183 459 183 442 c 0,13,14
 183 374 183 374 280 374 c 0,15,16
 312 374 312 374 355 381 c 1,17,18
 389 310 389 310 389 242 c 0,19,20
 389 215 389 215 383 194 c 0,21,22
 370 145 370 145 356 120 c 0,23,24
 336 86 336 86 301 69 c 0,25,26
 294 65 294 65 287 65 c 0,27,28
 250 65 250 65 250 171 c 0,29,30
 250 193 250 193 252 212 c 1,31,-1
 183 197 l 1,32,33
 178 77 178 77 130 46 c 0,34,35
 116 37 116 37 95 44 c 0,36,37
 79 50 79 50 79 74 c 0,38,39
 79 120 79 120 130 216 c 0,40,41
 175 301 175 301 219 354 c 1,42,-1
 126 354 l 1,43,44
 61 257 61 257 28 176 c 0,45,46
 6 122 6 122 6 85 c 0,47,48
 6 44 6 44 33 21 c 0,49,50
 41 15 41 15 79 -3 c 0,51,52
 90 -8 90 -8 111 -7 c 0,53,54
 132 -5 132 -5 141 1 c 0,55,56
 168 20 168 20 168 21 c 0,57,58
 185 37 185 37 198 71 c 1,59,60
 194 36 194 36 212.5 14.5 c 128,-1,61
 231 -7 231 -7 266 -7 c 0,62,63
 285 -7 285 -7 306 0 c 0,64,65
 364 18 364 18 404 116 c 0,66,67
 443 210 443 210 436 298 c 0,68,69
 429 382 429 382 397 443 c 0,70,71
 360 512 360 512 298 530 c 0,0,1
336 414 m 1,72,73
 292 409 292 409 261 432.5 c 128,-1,74
 230 456 230 456 234 492 c 1,75,76
 292 481 292 481 336 414 c 1,72,73
EndSplineSet
EndChar

StartChar: H
Encoding: 72 72 43
Width: 420
Flags: W
LayerCount: 2
Fore
SplineSet
110 400 m 1,0,-1
 59 400 l 1,1,2
 26 360 26 360 26 327 c 0,3,4
 26 307 26 307 58 304 c 1,5,6
 56 304 56 304 104 304 c 0,7,8
 139 304 139 304 145 302 c 0,9,10
 162 296 162 296 162 269 c 0,11,12
 162 257 162 257 122 211 c 0,13,14
 68 149 68 149 46 116 c 0,15,16
 5 54 5 54 2 4 c 1,17,-1
 82 -1 l 1,18,19
 79 40 79 40 98 40 c 0,20,21
 107 40 107 40 124 29 c 0,22,23
 147 14 147 14 148 13 c 0,24,25
 179 -1 179 -1 240 -1 c 0,26,27
 304 -1 304 -1 349 22 c 0,28,29
 405 52 405 52 405 110 c 0,30,31
 405 137 405 137 383.5 188.5 c 128,-1,32
 362 240 362 240 362 260 c 0,33,34
 362 289 362 289 390 317 c 1,35,36
 416 337 416 337 442 358 c 1,37,-1
 400 382 l 1,38,39
 356 371 356 371 339 362 c 0,40,41
 312 349 312 349 295 322 c 0,42,43
 284 304 284 304 284 285 c 0,44,45
 284 260 284 260 308 214 c 0,46,47
 334 165 334 165 337 142 c 0,48,49
 345 74 345 74 228 74 c 0,50,51
 218 74 218 74 179 76 c 0,52,53
 172 76 172 76 142 91 c 1,54,55
 114 103 114 103 96 100 c 1,56,57
 128 127 128 127 192 190.5 c 128,-1,58
 256 254 256 254 249 293 c 0,59,60
 245 319 245 319 232 335 c 0,61,62
 212 360 212 360 177 367 c 1,63,64
 153 369 153 369 105 379 c 0,65,66
 101 380 101 380 101 384 c 0,67,68
 101 389 101 389 110 400 c 1,0,-1
EndSplineSet
EndChar

StartChar: I
Encoding: 73 73 44
Width: 475
Flags: W
LayerCount: 2
Fore
SplineSet
116 400 m 1,0,-1
 65 400 l 1,1,2
 32 360 32 360 32 327 c 0,3,4
 32 307 32 307 64 304 c 1,5,6
 62 304 62 304 110 304 c 0,7,8
 144 304 144 304 155 301 c 0,9,10
 176 294 176 294 182 269 c 0,11,12
 185 255 185 255 115 192 c 0,13,14
 75 157 75 157 34 122 c 1,15,16
 8 97 8 97 8 74 c 0,17,18
 8 41 8 41 57 18 c 0,19,20
 97 -1 97 -1 130 -1 c 1,21,22
 128 -1 128 -1 154 -2 c 128,-1,23
 180 -3 180 -3 204 -3 c 0,24,25
 457 -3 457 -3 457 111 c 0,26,27
 457 136 457 136 440 178 c 0,28,29
 419 229 419 229 416 242 c 1,30,31
 453 272 453 272 460 285 c 0,32,33
 472 305 472 305 494 358 c 1,34,-1
 452 382 l 1,35,36
 408 371 408 371 391 362 c 0,37,38
 364 349 364 349 347 322 c 0,39,40
 336 305 336 305 336 286 c 0,41,42
 336 272 336 272 342 255 c 1,43,44
 324 239 324 239 281 215 c 0,45,46
 218 180 218 180 214 178 c 0,47,48
 180 157 180 157 180 137 c 0,49,50
 180 118 180 118 211 106 c 128,-1,51
 242 94 242 94 296 94 c 0,52,53
 312 94 312 94 329 95 c 1,54,-1
 321 149 l 1,55,56
 287 143 287 143 273 143 c 0,57,58
 263 143 263 143 263 146 c 0,59,60
 263 150 263 150 280 159 c 1,61,62
 309 171 309 171 366 203 c 1,63,64
 386 166 386 166 389 142 c 0,65,66
 396 74 396 74 265 74 c 0,67,68
 255 74 255 74 213 76 c 0,69,70
 185 77 185 77 148 88 c 0,71,72
 102 101 102 101 102 116 c 0,73,74
 102 121 102 121 108 126 c 0,75,76
 129 145 129 145 156 161 c 0,77,78
 192 183 192 183 205 193 c 0,79,80
 274 244 274 244 274 287 c 0,81,82
 274 307 274 307 252 335 c 0,83,84
 232 360 232 360 197 367 c 1,85,86
 166 369 166 369 111 379 c 0,87,88
 107 380 107 380 107 384 c 0,89,90
 107 389 107 389 116 400 c 1,0,-1
EndSplineSet
EndChar

StartChar: J
Encoding: 74 74 45
Width: 332
Flags: W
LayerCount: 2
Fore
SplineSet
92 116 m 1,0,1
 114 129 114 129 162 166 c 1,2,3
 193 196 193 196 208 222 c 1,4,5
 270 191 270 191 266 130 c 0,6,7
 260 45 260 45 192 45 c 0,8,9
 177 45 177 45 160 50 c 0,10,11
 121 60 121 60 92 116 c 1,0,1
491 335 m 1,12,13
 484 352 484 352 470 362 c 0,14,15
 442 383 442 383 399 383 c 0,16,17
 312 383 312 383 244 320 c 1,18,19
 243 378 243 378 200 372 c 0,20,21
 145 364 145 364 136 364 c 0,22,23
 130 364 130 364 131 373 c 256,24,25
 132 382 132 382 138 390 c 1,26,-1
 86 388 l 1,27,28
 53 347 53 347 53 313 c 0,29,30
 53 285 53 285 89 285 c 0,31,32
 100 285 100 285 123 291.5 c 128,-1,33
 146 298 146 298 158 298 c 0,34,35
 192 298 192 298 186 266 c 1,36,37
 163 233 163 233 124 198 c 0,38,39
 101 177 101 177 76 160 c 1,40,-1
 64 208 l 1,41,-1
 8 144 l 1,42,43
 11 99 11 99 33 61 c 0,44,45
 52 28 52 28 76 14 c 0,46,47
 107 -4 107 -4 149 -4 c 0,48,49
 223 -4 223 -4 282 46 c 0,50,51
 334 91 334 91 334 169 c 0,52,53
 334 194 334 194 326 216 c 0,54,55
 307 269 307 269 270 288 c 1,56,57
 302 319 302 319 350 319 c 256,58,59
 398 319 398 319 412 280 c 1,60,61
 437 308 437 308 491 335 c 1,12,13
EndSplineSet
EndChar

StartChar: K
Encoding: 75 75 46
Width: 604
Flags: W
LayerCount: 2
Fore
SplineSet
150 324 m 1,0,-1
 90 217 l 1,1,2
 72 236 72 236 82 272 c 0,3,4
 87 289 87 289 108.5 306.5 c 128,-1,5
 130 324 130 324 150 324 c 1,0,-1
248 308 m 0,6,7
 274 291 274 291 291.5 250 c 128,-1,8
 309 209 309 209 308 167 c 0,9,10
 307 105 307 105 285 70 c 128,-1,11
 263 35 263 35 227 35 c 0,12,13
 219 35 219 35 211 37 c 0,14,15
 207 38 207 38 158 74 c 1,16,17
 115 107 115 107 88 102 c 1,18,-1
 103 128 l 1,19,20
 127 114 127 114 157 114 c 0,21,22
 198 114 198 114 228.5 140 c 128,-1,23
 259 166 259 166 259 207 c 0,24,25
 259 226 259 226 252 246 c 1,26,-1
 210 246 l 1,27,28
 210 226 210 226 194 204 c 0,29,30
 176 179 176 179 153 179 c 0,31,32
 145 179 145 179 136 183 c 1,33,-1
 218 322 l 1,34,35
 231 319 231 319 248 308 c 0,6,7
398 304 m 0,36,37
 407 259 407 259 407 236 c 0,38,39
 407 195 407 195 392 148 c 1,40,-1
 460 162 l 1,41,42
 468 185 468 185 468 213 c 0,43,44
 468 228 468 228 465.5 251.5 c 128,-1,45
 463 275 463 275 463 283 c 0,46,47
 463 303 463 303 474 306 c 0,48,49
 510 316 510 316 510 232 c 0,50,51
 510 199 510 199 504 177 c 0,52,53
 502 169 502 169 476 88 c 0,54,55
 460 36 460 36 460 6 c 0,56,57
 460 -6 460 -6 462 -17 c 1,58,-1
 542 7 l 1,59,60
 540 18 540 18 561 96 c 0,61,62
 584 181 584 181 584 234 c 0,63,64
 584 315 584 315 538 359 c 0,65,66
 523 374 523 374 497 374 c 0,67,68
 453 374 453 374 430 333 c 1,69,70
 408 378 408 378 374 378 c 0,71,72
 366 378 366 378 344 372 c 128,-1,73
 322 366 322 366 296 350 c 1,74,75
 274 363 274 363 246 370 c 1,76,-1
 304 468 l 1,77,-1
 248 500 l 1,78,-1
 178 375 l 1,79,80
 119 371 119 371 81 336 c 0,81,82
 40 299 40 299 40 242 c 0,83,84
 40 201 40 201 62 167 c 1,85,-1
 2 59 l 1,86,-1
 40 -9 l 1,87,88
 57 42 57 42 73 42 c 0,89,90
 76 42 76 42 92 37 c 1,91,92
 113 24 113 24 135 12 c 0,93,94
 168 -7 168 -7 202 -7 c 256,95,96
 236 -7 236 -7 276 9 c 0,97,98
 324 28 324 28 352 80 c 0,99,100
 378 128 378 128 378 188 c 0,101,102
 378 215 378 215 372 241 c 0,103,104
 363 281 363 281 348 303 c 1,105,106
 359 327 359 327 374 327 c 0,107,108
 393 327 393 327 398 304 c 0,36,37
EndSplineSet
EndChar

StartChar: L
Encoding: 76 76 47
Width: 468
Flags: W
LayerCount: 2
Fore
SplineSet
34 8 m 0,0,1
 11 25 11 25 11 93 c 0,2,3
 11 225 11 225 107 313 c 0,4,5
 162 363 162 363 248 357 c 0,6,7
 343 350 343 350 335 228 c 0,8,9
 333 204 333 204 296.5 141 c 128,-1,10
 260 78 260 78 258 64 c 1,11,12
 276 76 276 76 299 71 c 0,13,14
 311 68 311 68 319 68 c 0,15,16
 334 68 334 68 345 77 c 0,17,18
 348 80 348 80 365 99 c 0,19,20
 397 135 397 135 397 220 c 0,21,22
 397 356 397 356 314 414 c 0,23,24
 255 455 255 455 200 455 c 0,25,26
 118 455 118 455 53 366 c 1,27,-1
 68 462 l 1,28,29
 149 511 149 511 233 511 c 0,30,31
 247 511 247 511 263 510 c 0,32,33
 329 505 329 505 368 473 c 128,-1,34
 407 441 407 441 430 387.5 c 128,-1,35
 453 334 453 334 453 265 c 0,36,37
 453 189 453 189 428 118 c 128,-1,38
 403 47 403 47 368 17 c 0,39,40
 346 -2 346 -2 320 -2 c 0,41,42
 303 -2 303 -2 279 6.5 c 128,-1,43
 255 15 255 15 250 15 c 0,44,45
 237 15 237 15 241 -11 c 1,46,-1
 178 -11 l 1,47,48
 176 -5 176 -5 176 2 c 0,49,50
 176 29 176 29 210 81 c 0,51,52
 253 147 253 147 257 156 c 0,53,54
 271 189 271 189 271 214 c 0,55,56
 271 276 271 276 200 276 c 0,57,58
 122 276 122 276 83 213 c 1,59,60
 118 235 118 235 146 235 c 0,61,62
 169 235 169 235 185 219 c 0,63,64
 211 193 211 193 211 145 c 0,65,66
 211 108 211 108 196 74 c 0,67,68
 180 37 180 37 146 16 c 128,-1,69
 112 -5 112 -5 78 -5 c 0,70,71
 51 -5 51 -5 34 8 c 0,0,1
75 145 m 1,72,73
 63 116 63 116 66 80 c 0,74,75
 68 50 68 50 87 50 c 0,76,77
 96 50 96 50 107 58 c 0,78,79
 130 74 130 74 132 127 c 0,80,81
 133 157 133 157 106 157 c 0,82,83
 91 157 91 157 75 145 c 1,72,73
EndSplineSet
EndChar

StartChar: M
Encoding: 77 77 48
Width: 456
Flags: W
LayerCount: 2
Fore
SplineSet
355 381 m 1,0,1
 389 309 389 309 389 243 c 0,2,3
 389 216 389 216 383 194 c 0,4,5
 360 112 360 112 295 79 c 0,6,7
 260 61 260 61 208 61 c 0,8,9
 122 61 122 61 100 104 c 0,10,11
 96 111 96 111 146 139 c 0,12,13
 208 174 208 174 225 189 c 0,14,15
 290 247 290 247 290 283 c 0,16,17
 290 303 290 303 268 331 c 0,18,19
 248 356 248 356 213 363 c 1,20,21
 182 365 182 365 127 375 c 0,22,23
 123 376 123 376 123 380 c 0,24,25
 123 385 123 385 132 396 c 1,26,-1
 81 396 l 1,27,28
 48 356 48 356 48 323 c 0,29,30
 48 303 48 303 80 300 c 1,31,32
 78 300 78 300 126 300 c 0,33,34
 160 300 160 300 171 297 c 0,35,36
 192 290 192 290 198 265 c 0,37,38
 201 250 201 250 153 206 c 1,39,40
 110 168 110 168 80 150 c 0,41,42
 7 106 7 106 7 72 c 0,43,44
 7 45 7 45 68 12 c 0,45,46
 103 -7 103 -7 171 -7 c 0,47,48
 274 -7 274 -7 324 28 c 0,49,50
 362 54 362 54 399 131 c 0,51,52
 442 221 442 221 436 298 c 0,53,54
 429 382 429 382 397 442 c 0,55,56
 360 512 360 512 298 530 c 0,57,58
 277 536 277 536 257 538 c 0,59,60
 232 540 232 540 228 541 c 1,61,62
 215 554 215 554 188 554 c 0,63,64
 160 554 160 554 132 542 c 1,65,-1
 132 504 l 1,66,67
 150 494 150 494 190 490 c 1,68,69
 183 459 183 459 183 442 c 0,70,71
 183 374 183 374 280 374 c 0,72,73
 312 374 312 374 355 381 c 1,0,1
336 414 m 1,74,75
 292 409 292 409 261 432.5 c 128,-1,76
 230 456 230 456 234 492 c 1,77,78
 292 481 292 481 336 414 c 1,74,75
EndSplineSet
EndChar

StartChar: N
Encoding: 78 78 49
Width: 560
Flags: W
LayerCount: 2
Fore
SplineSet
140 2 m 0,0,1
 172 -10 172 -10 205 -10 c 0,2,3
 274 -10 274 -10 306 42 c 0,4,5
 318 62 318 62 349 135 c 0,6,7
 386 222 386 222 408 266 c 0,8,9
 432 315 432 315 450 315 c 0,10,11
 470 315 470 315 470 286 c 0,12,13
 470 244 470 244 434 152 c 0,14,15
 390 38 390 38 350 4 c 1,16,-1
 414 -16 l 1,17,18
 461 17 461 17 489 76 c 0,19,20
 503 106 503 106 524 176 c 0,21,22
 539 228 539 228 539 287 c 0,23,24
 539 349 539 349 519.5 362 c 128,-1,25
 500 375 500 375 480 375 c 0,26,27
 455 375 455 375 388 329 c 0,28,29
 346 300 346 300 331 269 c 0,30,31
 296 192 296 192 262 115 c 1,32,33
 229 46 229 46 211 46 c 256,34,35
 193 46 193 46 176 81 c 1,36,37
 162 107 162 107 158 130 c 1,38,39
 175 143 175 143 231 193 c 0,40,41
 296 251 296 251 296 287 c 0,42,43
 296 307 296 307 274 335 c 0,44,45
 254 360 254 360 219 367 c 1,46,47
 188 369 188 369 133 379 c 0,48,49
 129 380 129 380 129 384 c 0,50,51
 129 389 129 389 138 400 c 1,52,-1
 87 400 l 1,53,54
 54 360 54 360 54 327 c 0,55,56
 54 307 54 307 86 304 c 1,57,58
 84 304 84 304 132 304 c 0,59,60
 166 304 166 304 177 301 c 0,61,62
 198 294 198 294 204 269 c 0,63,64
 208 251 208 251 187.5 219 c 128,-1,65
 167 187 167 187 132 164 c 1,66,67
 127 171 127 171 111 177.5 c 128,-1,68
 95 184 95 184 85 182 c 0,69,70
 66 178 66 178 29 147 c 0,71,72
 -11 114 -11 114 -11 92 c 0,73,74
 -11 76 -11 76 13 76 c 0,75,76
 55 76 55 76 94 103 c 1,77,78
 95 71 95 71 108.5 40 c 128,-1,79
 122 9 122 9 140 2 c 0,0,1
EndSplineSet
EndChar

StartChar: O
Encoding: 79 79 50
Width: 438
Flags: W
LayerCount: 2
Fore
SplineSet
306 0 m 0,0,1
 359 17 359 17 394 103 c 0,2,3
 427 183 427 183 427 271 c 0,4,5
 427 357 427 357 390 420 c 0,6,7
 348 492 348 492 268 506 c 0,8,9
 236 512 236 512 207 512 c 0,10,11
 138 512 138 512 64 474 c 1,12,-1
 34 404 l 1,13,14
 94 448 94 448 159 448 c 0,15,16
 199 448 199 448 244 432 c 0,17,18
 308 410 308 410 344.5 360.5 c 128,-1,19
 381 311 381 311 381 249 c 0,20,21
 381 222 381 222 373 194 c 0,22,23
 356 134 356 134 350 121 c 0,24,25
 334 85 334 85 301 69 c 0,26,27
 294 65 294 65 287 65 c 0,28,29
 250 65 250 65 250 171 c 0,30,31
 250 193 250 193 252 212 c 1,32,-1
 183 197 l 1,33,34
 178 74 178 74 134 46 c 0,35,36
 118 36 118 36 95 44 c 0,37,38
 80 49 80 49 80 74 c 0,39,40
 80 123 80 123 134 229 c 0,41,42
 183 325 183 325 227 378 c 1,43,-1
 134 378 l 1,44,45
 86 307 86 307 30 176 c 0,46,47
 7 123 7 123 7 85 c 0,48,49
 7 45 7 45 34 22 c 0,50,51
 44 14 44 14 79 -3 c 0,52,53
 90 -8 90 -8 109 -7 c 0,54,55
 128 -5 128 -5 137 1 c 0,56,57
 156 14 156 14 166 27 c 1,58,59
 185 48 185 48 198 83 c 1,60,61
 199 -6 199 -6 271 -6 c 0,62,63
 287 -6 287 -6 306 0 c 0,0,1
EndSplineSet
EndChar

StartChar: P
Encoding: 80 80 51
Width: 510
Flags: W
LayerCount: 2
Fore
SplineSet
418 228 m 1,0,1
 444 267 444 267 450 292 c 0,2,3
 451 297 451 297 451 302 c 0,4,5
 451 330 451 330 424 334 c 1,6,7
 404 298 404 298 396 250 c 1,8,9
 397 250 397 250 418 228 c 1,0,1
338 278 m 1,10,11
 338 307 338 307 356 334 c 1,12,13
 352 335 352 335 346 335 c 0,14,15
 305 335 305 335 305 315 c 0,16,17
 305 293 305 293 338 278 c 1,10,11
384 155 m 1,18,19
 365 149 365 149 352 149 c 0,20,21
 320 149 320 149 320 182 c 0,22,23
 320 199 320 199 328 224 c 1,24,25
 249 265 249 265 249 303 c 0,26,27
 249 311 249 311 253 320 c 0,28,29
 269 355 269 355 303 366 c 0,30,31
 323 372 323 372 372 372 c 1,32,33
 397 403 397 403 409 415 c 0,34,35
 429 436 429 436 458 460 c 0,36,37
 474 473 474 473 479 482 c 0,38,39
 489 499 489 499 503 516 c 1,40,-1
 579 503 l 1,41,42
 577 453 577 453 527 421 c 1,43,44
 483 397 483 397 438 374 c 1,45,46
 482 378 482 378 498 354 c 0,47,48
 509 337 509 337 509 310 c 0,49,50
 509 275 509 275 491 238 c 128,-1,51
 473 201 473 201 442 180 c 1,52,53
 460 146 460 146 460 127 c 0,54,55
 460 112 460 112 455 91 c 0,56,57
 434 -4 434 -4 207 -4 c 0,58,59
 182 -4 182 -4 155 -2.5 c 128,-1,60
 128 -1 128 -1 130 -1 c 1,61,62
 97 -1 97 -1 57 18 c 0,63,64
 8 41 8 41 8 74 c 0,65,66
 8 97 8 97 34 122 c 0,67,68
 162 247 162 247 156 271 c 0,69,70
 150 297 150 297 142 302 c 0,71,72
 138 304 138 304 110 304 c 0,73,74
 62 304 62 304 64 304 c 1,75,76
 32 307 32 307 32 327 c 0,77,78
 32 360 32 360 65 400 c 1,79,-1
 116 400 l 1,80,81
 107 389 107 389 107 384 c 0,82,83
 107 380 107 380 111 379 c 0,84,85
 124 374 124 374 136 373 c 0,86,87
 155 372 155 372 171 369 c 0,88,89
 206 362 206 362 226 337 c 0,90,91
 248 309 248 309 248 290 c 0,92,93
 248 254 248 254 178 192 c 0,94,95
 161 176 161 176 108 126 c 0,96,97
 99 118 99 118 99 110 c 0,98,99
 99 94 99 94 135 80 c 0,100,101
 165 68 165 68 205 64 c 0,102,103
 226 62 226 62 249 62 c 0,104,105
 396 62 396 62 389 142 c 0,106,107
 388 148 388 148 384 155 c 1,18,19
EndSplineSet
EndChar

StartChar: Q
Encoding: 81 81 52
Width: 9
Flags: W
LayerCount: 2
Fore
SplineSet
-34 176 m 1,0,1
 -40 141 -40 141 -52 -27 c 0,2,3
 -64 -186 -64 -186 -64 -214 c 1,4,5
 -75 -210 -75 -210 -136 -184 c 0,6,7
 -170 -169 -170 -169 -194 -169 c 0,8,9
 -204 -169 -204 -169 -214 -171 c 0,10,11
 -235 -175 -235 -175 -299.5 -208.5 c 128,-1,12
 -364 -242 -364 -242 -386 -245 c 0,13,14
 -403 -247 -403 -247 -417 -247 c 0,15,16
 -458 -247 -458 -247 -486 -229 c 1,17,18
 -504 -213 -504 -213 -522 -198 c 1,19,20
 -522 -169 -522 -169 -518 -112 c 1,21,22
 -512 -111 -512 -111 -469.5 -150.5 c 128,-1,23
 -427 -190 -427 -190 -398 -190 c 0,24,25
 -387 -190 -387 -190 -377 -185 c 0,26,27
 -374 -184 -374 -184 -299 -132 c 0,28,29
 -250 -98 -250 -98 -205 -93 c 0,30,31
 -153 -88 -153 -88 -128 -118 c 1,32,33
 -125 -49 -125 -49 -114 50 c 1,34,35
 -84 68 -84 68 -34 176 c 1,0,1
EndSplineSet
EndChar

StartChar: R
Encoding: 82 82 53
Width: 700
Flags: W
LayerCount: 2
Fore
SplineSet
88 400 m 1,0,-1
 37 400 l 1,1,2
 4 360 4 360 4 327 c 0,3,4
 4 307 4 307 36 304 c 1,5,6
 34 304 34 304 82 304 c 0,7,8
 116 304 116 304 127 301 c 0,9,10
 148 294 148 294 154 269 c 0,11,12
 156 259 156 259 83 204.5 c 128,-1,13
 10 150 10 150 10 116 c 0,14,15
 10 92 10 92 47 50.5 c 128,-1,16
 84 9 84 9 110 -3 c 0,17,18
 134 -14 134 -14 153.5 0.5 c 128,-1,19
 173 15 173 15 182 25 c 0,20,21
 198 42 198 42 217 73 c 1,22,23
 231 9 231 9 280 1 c 0,24,25
 296 -2 296 -2 312 -2 c 0,26,27
 361 -2 361 -2 395 28.5 c 128,-1,28
 429 59 429 59 429 108 c 0,29,30
 429 135 429 135 407 187 c 128,-1,31
 385 239 385 239 385 260 c 0,32,33
 385 289 385 289 414 317 c 1,34,35
 440 337 440 337 466 358 c 1,36,-1
 424 382 l 1,37,38
 380 371 380 371 363 362 c 0,39,40
 336 349 336 349 319 322 c 0,41,42
 308 304 308 304 308 285 c 0,43,44
 308 260 308 260 332 214 c 0,45,46
 358 165 358 165 361 142 c 0,47,48
 368 81 368 81 345 61 c 0,49,50
 340 57 340 57 326 52 c 1,51,52
 315 51 315 51 304 83 c 128,-1,53
 293 115 293 115 293 147 c 0,54,55
 293 158 293 158 295 166 c 1,56,-1
 214 151 l 1,57,58
 203 123 203 123 193 95 c 1,59,60
 175 54 175 54 157 54 c 256,61,62
 139 54 139 54 116 75 c 128,-1,63
 93 96 93 96 82 122 c 0,64,65
 77 134 77 134 114 153 c 0,66,67
 166 179 166 179 181 193 c 0,68,69
 246 251 246 251 246 287 c 0,70,71
 246 307 246 307 224 335 c 0,72,73
 204 360 204 360 169 367 c 1,74,75
 138 369 138 369 83 379 c 0,76,77
 79 380 79 380 79 384 c 0,78,79
 79 389 79 389 88 400 c 1,0,-1
597 86 m 1,80,81
 593 87 593 87 589 87 c 0,82,83
 577 87 577 87 562.5 72.5 c 128,-1,84
 548 58 548 58 542 58 c 0,85,86
 537 58 537 58 533 62 c 0,87,88
 512 83 512 83 512 126 c 0,89,90
 512 143 512 143 515 164 c 0,91,92
 522 206 522 206 568 206 c 0,93,94
 587 206 587 206 613 199 c 1,95,96
 608 144 608 144 597 86 c 1,80,81
618 248 m 1,97,98
 602 250 602 250 587 250 c 0,99,100
 443 250 443 250 443 104 c 0,101,102
 443 9 443 9 509 -4 c 0,103,104
 515 -5 515 -5 521 -5 c 0,105,106
 540 -5 540 -5 558.5 13.5 c 128,-1,107
 577 32 577 32 589 34 c 1,108,-1
 585 2 l 1,109,-1
 635 -12 l 1,110,111
 675 93 675 93 681 208 c 0,112,113
 685 281 685 281 661 326 c 0,114,115
 634 377 634 377 577 377 c 0,116,117
 512 377 512 377 459 324 c 1,118,-1
 471 284 l 1,119,120
 502 284 502 284 534 307.5 c 128,-1,121
 566 331 566 331 579 332 c 0,122,123
 605 334 605 334 614 301 c 0,124,125
 619 282 619 282 618 248 c 1,97,98
EndSplineSet
EndChar

StartChar: S
Encoding: 83 83 54
Width: 8
Flags: W
LayerCount: 2
Fore
SplineSet
-319 436 m 1,0,-1
 -397 398 l 1,1,2
 -402 491 -402 491 -298 557 c 1,3,4
 -207 616 -207 616 -107 616 c 0,5,6
 -10 616 -10 616 19 544 c 0,7,8
 31 514 31 514 31 483 c 0,9,10
 31 455 31 455 19.5 434.5 c 128,-1,11
 8 414 8 414 -25 400 c 128,-1,12
 -58 386 -58 386 -96 386 c 0,13,14
 -149 386 -149 386 -182 413 c 0,15,16
 -222 445 -222 445 -222 508 c 0,17,18
 -222 528 -222 528 -217 552 c 1,19,20
 -262 539 -262 539 -292.5 513 c 128,-1,21
 -323 487 -323 487 -323 456 c 0,22,23
 -323 446 -323 446 -319 436 c 1,0,-1
-174 560 m 1,24,25
 -172 520 -172 520 -140 476 c 128,-1,26
 -108 432 -108 432 -72 432 c 0,27,28
 -39 432 -39 432 -39 461 c 0,29,30
 -39 493 -39 493 -66 527 c 128,-1,31
 -93 561 -93 561 -154 561 c 0,32,33
 -164 561 -164 561 -174 560 c 1,24,25
EndSplineSet
EndChar

StartChar: T
Encoding: 84 84 55
Width: 473
Flags: W
LayerCount: 2
Fore
SplineSet
101 257 m 0,0,1
 122 310 122 310 172 310 c 0,2,3
 195 310 195 310 212.5 297 c 128,-1,4
 230 284 230 284 230 266 c 0,5,6
 230 255 230 255 223 244 c 0,7,8
 202 210 202 210 130 210 c 0,9,10
 106 210 106 210 87 216 c 1,11,12
 95 242 95 242 101 257 c 0,0,1
283 280 m 0,13,14
 285 292 285 292 285 302 c 0,15,16
 285 362 285 362 207 362 c 0,17,18
 177 362 177 362 151 353 c 0,19,20
 102 335 102 335 57 278 c 1,21,22
 9 214 9 214 9 150 c 0,23,24
 9 127 9 127 16 105 c 0,25,26
 28 71 28 71 63 34 c 0,27,28
 91 5 91 5 108 -3 c 0,29,30
 132 -14 132 -14 151.5 0.5 c 128,-1,31
 171 15 171 15 180 25 c 0,32,33
 196 42 196 42 215 73 c 1,34,35
 229 9 229 9 278 1 c 0,36,37
 294 -2 294 -2 308 -2 c 0,38,39
 390 -2 390 -2 421 91 c 0,40,41
 440 147 440 147 444 165 c 0,42,43
 453 205 453 205 453 259 c 0,44,45
 453 278 453 278 452 300 c 0,46,47
 444 479 444 479 304 504 c 0,48,49
 269 510 269 510 232 510 c 0,50,51
 139 510 139 510 68 474 c 1,52,-1
 38 404 l 1,53,54
 98 448 98 448 185 448 c 0,55,56
 235 448 235 448 280 432 c 0,57,58
 388 395 388 395 388 265 c 0,59,60
 388 231 388 231 381 188 c 0,61,62
 362 78 362 78 343 61 c 0,63,64
 338 57 338 57 324 52 c 1,65,66
 313 51 313 51 302 83 c 128,-1,67
 291 115 291 115 291 147 c 0,68,69
 291 158 291 158 293 166 c 1,70,-1
 212 151 l 1,71,72
 201 123 201 123 191 95 c 1,73,74
 173 54 173 54 156 54 c 0,75,76
 124 54 124 54 90 118 c 0,77,78
 88 123 88 123 82 145 c 1,79,80
 260 170 260 170 283 280 c 0,13,14
EndSplineSet
EndChar

StartChar: U
Encoding: 85 85 56
Width: 471
Flags: W
LayerCount: 2
Fore
SplineSet
281 283 m 0,0,1
 283 294 283 294 283 304 c 0,2,3
 283 372 283 372 194 372 c 0,4,5
 166 372 166 372 145 363 c 0,6,7
 94 341 94 341 54 287 c 0,8,9
 10 226 10 226 10 159 c 0,10,11
 10 134 10 134 17 109 c 0,12,13
 27 75 27 75 63 39 c 0,14,15
 90 11 90 11 108 3 c 0,16,17
 137 -11 137 -11 158 4 c 128,-1,18
 179 19 179 19 200 34 c 1,19,20
 226 56 226 56 226 74 c 0,21,22
 226 85 226 85 217.5 109 c 128,-1,23
 209 133 209 133 209 142 c 0,24,25
 209 158 209 158 225 162 c 0,26,27
 234 164 234 164 240 164 c 0,28,29
 259 164 259 164 259 143 c 0,30,31
 259 131 259 131 249.5 95.5 c 128,-1,32
 240 60 240 60 240 44 c 0,33,34
 240 35 240 35 243 28 c 0,35,36
 251 9 251 9 276 4 c 0,37,38
 292 1 292 1 307 1 c 0,39,40
 388 1 388 1 419 94 c 0,41,42
 438 150 438 150 442 168 c 0,43,44
 451 208 451 208 451 262 c 0,45,46
 451 281 451 281 450 303 c 0,47,48
 442 482 442 482 302 507 c 0,49,50
 267 513 267 513 230 513 c 0,51,52
 137 513 137 513 66 477 c 1,53,-1
 36 407 l 1,54,55
 96 451 96 451 183 451 c 0,56,57
 233 451 233 451 278 435 c 0,58,59
 386 398 386 398 386 268 c 0,60,61
 386 234 386 234 379 191 c 0,62,63
 360 81 360 81 341 64 c 0,64,65
 336 60 336 60 322 55 c 0,66,67
 317 54 317 54 317 62 c 0,68,69
 317 68 317 68 326.5 104 c 128,-1,70
 336 140 336 140 336 160 c 0,71,72
 336 203 336 203 275 203 c 0,73,74
 242 203 242 203 208 191 c 128,-1,75
 174 179 174 179 160 160.5 c 128,-1,76
 146 142 146 142 146 124 c 0,77,78
 146 108 146 108 157.5 89.5 c 128,-1,79
 169 71 169 71 169 67 c 0,80,81
 169 57 169 57 154 57 c 0,82,83
 137 57 137 57 116.5 77 c 128,-1,84
 96 97 96 97 87 121 c 0,85,86
 73 157 73 157 79 203 c 1,87,88
 111 193 111 193 146 193 c 0,89,90
 262 193 262 193 281 283 c 0,0,1
222 250 m 0,91,92
 210 232 210 232 172 232 c 0,93,94
 126 232 126 232 94 255 c 1,95,96
 122 314 122 314 174 314 c 0,97,98
 197 314 197 314 213 302 c 128,-1,99
 229 290 229 290 229 272 c 0,100,101
 229 261 229 261 222 250 c 0,91,92
EndSplineSet
EndChar

StartChar: V
Encoding: 86 86 57
Width: 490
Flags: W
LayerCount: 2
Fore
SplineSet
409 188 m 0,0,1
 404 82 404 82 379 61 c 0,2,3
 374 57 374 57 360 52 c 1,4,5
 349 51 349 51 338 83 c 128,-1,6
 327 115 327 115 327 147 c 0,7,8
 327 158 327 158 329 166 c 1,9,-1
 248 151 l 1,10,11
 236 121 236 121 224 91.5 c 128,-1,12
 212 62 212 62 201 56 c 0,13,14
 196 53 196 53 191 53 c 0,15,16
 181 53 181 53 169 71 c 0,17,18
 153 95 153 95 138 118 c 1,19,20
 235 154 235 154 275 189 c 0,21,22
 340 247 340 247 340 283 c 0,23,24
 340 303 340 303 318 331 c 0,25,26
 298 356 298 356 263 363 c 1,27,28
 232 365 232 365 177 375 c 0,29,30
 173 376 173 376 173 380 c 0,31,32
 173 385 173 385 182 396 c 1,33,-1
 131 396 l 1,34,35
 98 356 98 356 98 323 c 0,36,37
 98 303 98 303 130 300 c 1,38,39
 128 300 128 300 176 300 c 0,40,41
 210 300 210 300 221 297 c 0,42,43
 242 290 242 290 248 265 c 0,44,45
 252 249 252 249 207.5 209 c 128,-1,46
 163 169 163 169 124 148 c 1,47,48
 116 155 116 155 88.5 167 c 128,-1,49
 61 179 61 179 51 178 c 0,50,51
 28 175 28 175 5.5 142 c 128,-1,52
 -17 109 -17 109 -17 87 c 0,53,54
 -17 72 -17 72 3 72 c 0,55,56
 33 72 33 72 70 97 c 1,57,58
 91 66 91 66 111 35 c 1,59,60
 135 1 135 1 144 -3 c 0,61,62
 168 -14 168 -14 187.5 0.5 c 128,-1,63
 207 15 207 15 216 25 c 0,64,65
 232 42 232 42 251 73 c 1,66,67
 265 12 265 12 314 1 c 0,68,69
 329 -2 329 -2 342 -2 c 0,70,71
 401 -2 401 -2 435 55 c 128,-1,72
 469 112 469 112 469 221 c 0,73,74
 469 326 469 326 442 402 c 0,75,76
 406 506 406 506 327 530 c 0,77,78
 306 536 306 536 286 538 c 0,79,80
 261 540 261 540 257 541 c 1,81,82
 244 554 244 554 217 554 c 0,83,84
 189 554 189 554 161 542 c 1,85,-1
 161 504 l 1,86,87
 179 494 179 494 219 490 c 1,88,89
 212 459 212 459 212 442 c 0,90,91
 212 374 212 374 309 374 c 0,92,93
 341 374 341 374 384 381 c 1,94,95
 415 309 415 309 409 188 c 0,0,1
365 414 m 1,96,97
 321 409 321 409 290 432.5 c 128,-1,98
 259 456 259 456 263 492 c 1,99,100
 321 481 321 481 365 414 c 1,96,97
EndSplineSet
EndChar

StartChar: W
Encoding: 87 87 58
Width: 405
Flags: W
LayerCount: 2
Fore
SplineSet
447 25 m 1,0,1
 372 -139 372 -139 267 -139 c 0,2,3
 199 -139 199 -139 141 -66 c 0,4,5
 105 -20 105 -20 105 24 c 0,6,7
 105 82 105 82 177 150 c 0,8,9
 188 161 188 161 267 220 c 0,10,11
 337 272 337 272 349 289 c 0,12,13
 357 301 357 301 357 313 c 0,14,15
 357 342 357 342 324 355 c 1,16,17
 298 367 298 367 267 363 c 0,18,19
 197 354 197 354 193 367 c 0,20,21
 190 376 190 376 200 388 c 1,22,-1
 149 388 l 1,23,24
 113 344 113 344 113 315 c 0,25,26
 113 284 113 284 190 291 c 0,27,28
 253 297 253 297 246 297 c 1,29,30
 273 297 273 297 273 282 c 0,31,32
 273 277 273 277 270 271 c 0,33,34
 265 260 265 260 207 221 c 0,35,36
 138 176 138 176 135 173 c 0,37,38
 93 138 93 138 51 103 c 1,39,40
 9 59 9 59 9 10 c 0,41,42
 9 0 9 0 11 -11 c 0,43,44
 30 -135 30 -135 156 -181 c 0,45,46
 183 -191 183 -191 218 -191 c 0,47,48
 293 -191 293 -191 368 -153 c 0,49,50
 449 -112 449 -112 485 -47 c 1,51,-1
 447 25 l 1,0,1
EndSplineSet
EndChar

StartChar: X
Encoding: 88 88 59
Width: 463
Flags: W
LayerCount: 2
Fore
SplineSet
221 173 m 1,0,1
 252 184 252 184 265 199 c 0,2,3
 284 221 284 221 283 263 c 0,4,5
 279 372 279 372 111 369 c 0,6,7
 73 368 73 368 40.5 341 c 128,-1,8
 8 314 8 314 8 280 c 0,9,10
 8 264 8 264 17 250 c 0,11,12
 43 208 43 208 92 208 c 0,13,14
 128 208 128 208 157.5 234 c 128,-1,15
 187 260 187 260 196 308 c 1,16,17
 208 303 208 303 217.5 285.5 c 128,-1,18
 227 268 227 268 227 252 c 0,19,20
 227 237 227 237 218 229 c 0,21,22
 205 217 205 217 155 210 c 0,23,24
 97 202 97 202 72 190 c 0,25,26
 27 168 27 168 12 117 c 0,27,28
 8 103 8 103 8 90 c 0,29,30
 8 48 8 48 43 20 c 0,31,32
 75 -6 75 -6 114 -6 c 0,33,34
 139 -6 139 -6 154 7 c 0,35,36
 176 26 176 26 179 28 c 0,37,38
 193 42 193 42 211 73 c 1,39,40
 225 9 225 9 274 1 c 0,41,42
 290 -2 290 -2 304 -2 c 0,43,44
 382 -2 382 -2 417 90 c 128,-1,45
 452 182 452 182 448 300 c 0,46,47
 445 381 445 381 410 433 c 0,48,49
 372 491 372 491 300 504 c 0,50,51
 265 510 265 510 228 510 c 0,52,53
 135 510 135 510 64 474 c 1,54,-1
 34 404 l 1,55,56
 94 448 94 448 181 448 c 0,57,58
 231 448 231 448 276 432 c 0,59,60
 382 395 382 395 382 259 c 0,61,62
 382 214 382 214 371 152 c 0,63,64
 358 77 358 77 339 61 c 0,65,66
 334 57 334 57 320 52 c 1,67,68
 309 51 309 51 298 83 c 128,-1,69
 287 115 287 115 287 147 c 0,70,71
 287 158 287 158 289 166 c 1,72,-1
 208 151 l 1,73,74
 197 123 197 123 187 94 c 1,75,76
 169 54 169 54 150 54 c 0,77,78
 128 54 128 54 103 75.5 c 128,-1,79
 78 97 78 97 84 120 c 0,80,81
 92 155 92 155 145 163 c 0,82,83
 183 168 183 168 221 173 c 1,0,1
148 318 m 1,84,85
 146 299 146 299 135 276 c 0,86,87
 122 248 122 248 108 248 c 0,88,89
 103 248 103 248 98 252 c 0,90,91
 75 269 75 269 82 296 c 0,92,93
 87 315 87 315 109 319 c 0,94,95
 119 321 119 321 148 318 c 1,84,85
EndSplineSet
EndChar

StartChar: Y
Encoding: 89 89 60
Width: 494
Flags: W
LayerCount: 2
Fore
SplineSet
393 181 m 1,0,1
 336 170 336 170 279 129 c 0,2,3
 215 83 215 83 215 39 c 0,4,5
 215 27 215 27 221 15 c 0,6,7
 233 -9 233 -9 262 -9 c 0,8,9
 306 -9 306 -9 358 35 c 1,10,11
 358 16 358 16 354 -16 c 1,12,-1
 438 14 l 1,13,14
 449 76 449 76 468 202 c 0,15,16
 474 244 474 244 474 273 c 0,17,18
 474 335 474 335 442 358 c 0,19,20
 416 377 416 377 381 377 c 0,21,22
 311 377 311 377 247 318 c 0,23,24
 187 263 187 263 161 194 c 1,25,26
 174 194 174 194 174 174 c 0,27,28
 174 140 174 140 147 87.5 c 128,-1,29
 120 35 120 35 98 36 c 0,30,31
 66 38 66 38 66 75 c 0,32,33
 66 122 66 122 132 256 c 0,34,35
 146 284 146 284 172 319.5 c 128,-1,36
 198 355 198 355 214 366 c 1,37,-1
 154 384 l 1,38,39
 116 363 116 363 74 298 c 0,40,41
 38 243 38 243 26 200 c 0,42,43
 12 152 12 152 12 113 c 0,44,45
 12 35 12 35 68 6 c 0,46,47
 85 -3 85 -3 113 -3 c 0,48,49
 148 -3 148 -3 169 13 c 0,50,51
 202 38 202 38 219 76 c 0,52,53
 226 91 226 91 240 142 c 0,54,55
 243 154 243 154 241 170 c 0,56,57
 238 190 238 190 228 193 c 1,58,59
 245 241 245 241 286.5 281.5 c 128,-1,60
 328 322 328 322 360 322 c 0,61,62
 401 322 401 322 401 252 c 0,63,64
 401 222 401 222 393 181 c 1,0,1
371 80 m 1,65,66
 328 47 328 47 303 47 c 0,67,68
 277 47 277 47 277 70 c 0,69,70
 277 110 277 110 381 124 c 1,71,72
 377 98 377 98 371 80 c 1,65,66
EndSplineSet
EndChar

StartChar: Z
Encoding: 90 90 61
Width: 140
Flags: W
LayerCount: 2
Fore
SplineSet
36 610 m 1,0,-1
 110 592 l 1,1,-1
 58 428 l 1,2,-1
 10 422 l 1,3,-1
 36 610 l 1,0,-1
EndSplineSet
EndChar

StartChar: bracketleft
Encoding: 91 91 62
Width: 910
Flags: W
LayerCount: 2
Fore
SplineSet
334 209 m 1,0,1
 370 231 370 231 407 231 c 0,2,3
 429 231 429 231 450 223 c 0,4,5
 485 209 485 209 500 161 c 0,6,7
 504 148 504 148 504 132 c 0,8,9
 504 103 504 103 491 79 c 128,-1,10
 478 55 478 55 460 55 c 0,11,12
 453 55 453 55 446 59 c 0,13,14
 431 68 431 68 431 90 c 0,15,16
 431 103 431 103 437 127 c 0,17,18
 448 165 448 165 448 167 c 1,19,-1
 368 149 l 1,20,21
 350 94 350 94 323 69 c 0,22,23
 320 67 320 67 317 67 c 0,24,25
 311 67 311 67 295 82 c 0,26,27
 276 99 276 99 266 103 c 0,28,29
 260 106 260 106 244 110 c 1,30,31
 259 129 259 129 296 171 c 0,32,33
 307 183 307 183 334 209 c 1,0,1
490 373 m 0,34,35
 429 361 429 361 364 309 c 1,36,37
 372 343 372 343 351 364 c 0,38,39
 338 377 338 377 301 370 c 0,40,41
 272 364 272 364 259 366 c 256,42,43
 246 368 246 368 260 385 c 1,44,-1
 209 385 l 1,45,46
 208 384 208 384 205.5 381 c 128,-1,47
 203 378 203 378 202 377 c 0,48,49
 82 363 82 363 33 234 c 0,50,51
 9 171 9 171 9 117 c 0,52,53
 9 15 9 15 93 -12 c 1,54,-1
 141 32 l 1,55,56
 71 79 71 79 71 169 c 0,57,58
 71 186 71 186 73 206 c 0,59,60
 78 258 78 258 102 285.5 c 128,-1,61
 126 313 126 313 178 320 c 1,62,63
 176 308 176 308 181 301 c 0,64,65
 189 289 189 289 213 289 c 0,66,67
 228 289 228 289 255 296 c 128,-1,68
 282 303 282 303 295 303 c 0,69,70
 321 303 321 303 322 270 c 1,71,72
 301 250 301 250 236 177 c 0,73,74
 204 141 204 141 142 67 c 1,75,-1
 162 7 l 1,76,77
 176 27 176 27 184.5 33 c 128,-1,78
 193 39 193 39 208 37 c 0,79,80
 228 34 228 34 262 5 c 0,81,82
 278 -9 278 -9 294 -3 c 0,83,84
 321 7 321 7 360 53 c 1,85,86
 377 13 377 13 406 1 c 0,87,88
 419 -4 419 -4 442 -4 c 1,89,90
 464 -3 464 -3 474 3 c 0,91,92
 509 25 509 25 534.5 78.5 c 128,-1,93
 560 132 560 132 560 183 c 0,94,95
 560 231 560 231 536 257 c 0,96,97
 506 290 506 290 460 290 c 0,98,99
 446 290 446 290 416 287 c 1,100,101
 464 321 464 321 530 319 c 0,102,103
 571 318 571 318 608 297 c 1,104,105
 625 280 625 280 680 285 c 0,106,107
 746 291 746 291 736 291 c 1,108,109
 763 291 763 291 763 276 c 0,110,111
 763 271 763 271 760 265 c 0,112,113
 755 253 755 253 719 230 c 0,114,115
 693 214 693 214 668 198 c 1,116,117
 629 170 629 170 589 142 c 1,118,119
 555 114 555 114 555 88 c 0,120,121
 555 64 555 64 577 40 c 0,122,123
 596 19 596 19 620 8 c 0,124,125
 651 -6 651 -6 681 -6 c 0,126,127
 692 -6 692 -6 711 -3 c 0,128,129
 727 -1 727 -1 734 -2 c 1,130,131
 671 -36 671 -36 671 -66 c 0,132,133
 671 -75 671 -75 676 -90 c 0,134,135
 688 -128 688 -128 721 -149 c 128,-1,136
 754 -170 754 -170 794 -170 c 0,137,138
 840 -170 840 -170 875.5 -141 c 128,-1,139
 911 -112 911 -112 920 -66 c 1,140,-1
 896 -40 l 1,141,142
 824 -103 824 -103 779 -103 c 0,143,144
 763 -103 763 -103 747 -97 c 0,145,146
 727 -89 727 -89 727 -76 c 0,147,148
 727 -55 727 -55 788 -16 c 0,149,150
 842 18 842 18 896 52 c 1,151,-1
 849 97 l 1,152,153
 773 57 773 57 711 57 c 0,154,155
 684 57 684 57 668 66 c 0,156,157
 646 78 646 78 646 94 c 0,158,159
 646 116 646 116 712 169.5 c 128,-1,160
 778 223 778 223 780 225 c 0,161,162
 826 264 826 264 839 283 c 0,163,164
 847 295 847 295 847 307 c 0,165,166
 847 336 847 336 814 349 c 1,167,168
 788 361 788 361 757 357 c 0,169,170
 687 348 687 348 683 361 c 0,171,172
 680 370 680 370 690 382 c 1,173,-1
 639 382 l 1,174,175
 632 374 632 374 623 360 c 1,176,177
 589 378 589 378 537 378 c 0,178,179
 513 378 513 378 490 373 c 0,34,35
EndSplineSet
EndChar

StartChar: backslash
Encoding: 92 92 63
Width: 491
Flags: W
LayerCount: 2
Fore
SplineSet
196 8 m 0,0,1
 227 -6 227 -6 257 -6 c 0,2,3
 268 -6 268 -6 287 -3 c 0,4,5
 303 -1 303 -1 310 -2 c 1,6,-1
 256 -32 l 1,7,-1
 294 -64 l 1,8,9
 298 -65 298 -65 304 -65 c 0,10,11
 321 -65 321 -65 367.5 -52.5 c 128,-1,12
 414 -40 414 -40 429 -40 c 0,13,14
 452 -40 452 -40 452 -67 c 0,15,16
 452 -93 452 -93 422 -116 c 0,17,18
 399 -133 399 -133 375 -140 c 1,19,-1
 391 -180 l 1,20,21
 453 -163 453 -163 474 -146 c 0,22,23
 527 -102 527 -102 527 -56 c 0,24,25
 527 -45 527 -45 524 -34 c 0,26,27
 512 8 512 8 469 8 c 0,28,29
 442 8 442 8 396.5 -9 c 128,-1,30
 351 -26 351 -26 344 -24 c 1,31,32
 378 -9 378 -9 393 -1 c 0,33,34
 419 14 419 14 472 52 c 1,35,-1
 425 97 l 1,36,37
 349 57 349 57 287 57 c 0,38,39
 260 57 260 57 244 66 c 0,40,41
 222 78 222 78 222 94 c 0,42,43
 222 116 222 116 288 169.5 c 128,-1,44
 354 223 354 223 356 225 c 0,45,46
 402 264 402 264 415 283 c 0,47,48
 423 295 423 295 423 307 c 0,49,50
 423 336 423 336 390 349 c 1,51,52
 364 361 364 361 333 357 c 0,53,54
 263 348 263 348 259 361 c 0,55,56
 256 370 256 370 266 382 c 1,57,-1
 215 382 l 1,58,59
 79 359 79 359 33 234 c 0,60,61
 10 170 10 170 10 117 c 0,62,63
 10 15 10 15 93 -12 c 1,64,-1
 141 32 l 1,65,66
 71 78 71 78 71 169 c 0,67,68
 71 186 71 186 73 206 c 0,69,70
 79 262 79 262 101 286 c 128,-1,71
 123 310 123 310 181 321 c 1,72,73
 177 307 177 307 181 300 c 0,74,75
 194 279 194 279 256 285 c 0,76,77
 319 291 319 291 312 291 c 1,78,79
 339 291 339 291 339 276 c 0,80,81
 339 271 339 271 336 265 c 0,82,83
 331 253 331 253 295 230 c 0,84,85
 269 214 269 214 244 198 c 1,86,87
 205 170 205 170 165 142 c 1,88,89
 131 114 131 114 131 88 c 0,90,91
 131 64 131 64 153 40 c 0,92,93
 172 19 172 19 196 8 c 0,0,1
EndSplineSet
EndChar

StartChar: bracketright
Encoding: 93 93 64
Width: 477
Flags: W
LayerCount: 2
Fore
SplineSet
355 555 m 1,0,-1
 403 566 l 1,1,-1
 288 347 l 2,2,3
 262 296 262 296 217 192 c 0,4,5
 177 101 177 101 135 -7 c 1,6,-1
 86 -19 l 1,7,-1
 355 555 l 1,0,-1
67 375 m 0,8,9
 66 341 66 341 82 302 c 1,10,11
 100 253 100 253 129 252 c 0,12,13
 145 251 145 251 155 273.5 c 128,-1,14
 165 296 165 296 165 334 c 0,15,16
 165 392 165 392 145 431 c 0,17,18
 123 475 123 475 92 469 c 1,19,20
 68 441 68 441 67 375 c 0,8,9
59 480 m 1,21,22
 79 503 79 503 95 513.5 c 128,-1,23
 111 524 111 524 134 524 c 0,24,25
 169 524 169 524 192.5 486.5 c 128,-1,26
 216 449 216 449 216 390 c 0,27,28
 216 330 216 330 185 268 c 0,29,30
 148 194 148 194 94 194 c 0,31,32
 55 194 55 194 32 244 c 0,33,34
 15 283 15 283 15 328 c 0,35,36
 15 366 15 366 24 398 c 0,37,38
 37 443 37 443 59 480 c 1,21,22
308 201 m 0,39,40
 307 167 307 167 323 128 c 1,41,42
 341 79 341 79 370 78 c 0,43,44
 386 77 386 77 396 99.5 c 128,-1,45
 406 122 406 122 406 160 c 0,46,47
 406 218 406 218 386 257 c 0,48,49
 364 301 364 301 333 295 c 1,50,51
 309 267 309 267 308 201 c 0,39,40
300 306 m 1,52,53
 320 329 320 329 336 339.5 c 128,-1,54
 352 350 352 350 375 350 c 0,55,56
 410 350 410 350 433.5 312.5 c 128,-1,57
 457 275 457 275 457 216 c 0,58,59
 457 156 457 156 426 94 c 0,60,61
 389 20 389 20 335 20 c 0,62,63
 296 20 296 20 273 70 c 0,64,65
 256 109 256 109 256 154 c 0,66,67
 256 192 256 192 265 224 c 0,68,69
 278 269 278 269 300 306 c 1,52,53
EndSplineSet
EndChar

StartChar: asciicircum
Encoding: 94 94 65
Width: 218
Flags: W
LayerCount: 2
Fore
SplineSet
170 -14 m 1,0,-1
 128 -14 l 1,1,2
 23 94 23 94 23 220 c 0,3,4
 23 302 23 302 55 389.5 c 128,-1,5
 87 477 87 477 142 534 c 1,6,-1
 188 534 l 1,7,8
 91 395 91 395 91 208 c 0,9,10
 91 95 91 95 170 -14 c 1,0,-1
EndSplineSet
EndChar

StartChar: underscore
Encoding: 95 95 66
Width: 6
Flags: W
LayerCount: 2
Fore
SplineSet
-196 536 m 0,0,1
 -145 514 -145 514 -145 473 c 0,2,3
 -145 436 -145 436 -172 422 c 0,4,5
 -226 395 -226 395 -300 395 c 0,6,7
 -419 395 -419 395 -424 472 c 0,8,9
 -431 585 -431 585 -222 594 c 0,10,11
 -40 602 -40 602 -22 508 c 0,12,13
 -14 464 -14 464 -32 426 c 1,14,-1
 -84 412 l 1,15,16
 -80 477 -80 477 -122 517.5 c 128,-1,17
 -164 558 -164 558 -229 558 c 0,18,19
 -275 558 -275 558 -309 541 c 1,20,21
 -346 521 -346 521 -346 490 c 0,22,23
 -346 449 -346 449 -302 438 c 0,24,25
 -287 434 -287 434 -264 440 c 1,26,27
 -297 454 -297 454 -297 485 c 0,28,29
 -297 508 -297 508 -282 522 c 0,30,31
 -260 542 -260 542 -226 542 c 0,32,33
 -209 542 -209 542 -196 536 c 0,0,1
-220 458 m 1,34,35
 -207 464 -207 464 -203.5 466.5 c 128,-1,36
 -200 469 -200 469 -198 476 c 0,37,38
 -195 487 -195 487 -207 496.5 c 128,-1,39
 -219 506 -219 506 -232 506 c 0,40,41
 -249 506 -249 506 -249 491 c 0,42,43
 -249 481 -249 481 -220 458 c 1,34,35
EndSplineSet
EndChar

StartChar: grave
Encoding: 96 96 67
Width: 137
Flags: W
LayerCount: 2
Fore
SplineSet
141 32 m 1,0,-1
 93 -12 l 1,1,2
 9 15 9 15 9 117 c 0,3,4
 9 171 9 171 33 234 c 0,5,6
 88 378 88 378 229 378 c 0,7,8
 241 378 241 378 254 377 c 1,9,-1
 273 325 l 1,10,11
 165 327 165 327 122.5 302 c 128,-1,12
 80 277 80 277 73 206 c 0,13,14
 71 186 71 186 71 169 c 0,15,16
 71 79 71 79 141 32 c 1,0,-1
EndSplineSet
EndChar

StartChar: a
Encoding: 97 97 68
Width: 8
Flags: W
LayerCount: 2
Fore
SplineSet
36 668 m 1,0,-1
 -56 644 l 1,1,2
 -78 622 -78 622 -96 504 c 0,3,4
 -111 405 -111 405 -110 360 c 1,5,-1
 -50 360 l 1,6,7
 -38 435 -38 435 -27 511 c 1,8,9
 1 650 1 650 36 668 c 1,0,-1
EndSplineSet
EndChar

StartChar: b
Encoding: 98 98 69
Width: 438
Flags: W
LayerCount: 2
Fore
SplineSet
340 218 m 0,0,1
 330 264 330 264 296 292.5 c 128,-1,2
 262 321 262 321 214 322 c 0,3,4
 168 323 168 323 127.5 295.5 c 128,-1,5
 87 268 87 268 86 234 c 0,6,7
 85 201 85 201 93 185 c 128,-1,8
 101 169 101 169 130 148 c 0,9,10
 143 138 143 138 163 138 c 0,11,12
 234 138 234 138 242 266 c 1,13,-1
 288 210 l 1,14,15
 216 70 216 70 128 70 c 0,16,17
 102 70 102 70 78 84 c 0,18,19
 21 117 21 117 21 187 c 0,20,21
 21 205 21 205 26 224 c 0,22,23
 41 286 41 286 111.5 330 c 128,-1,24
 182 374 182 374 262 374 c 0,25,26
 297 374 297 374 328 364 c 0,27,28
 365 352 365 352 392 310 c 128,-1,29
 419 268 419 268 419 220 c 0,30,31
 419 169 419 169 382 129 c 0,32,33
 357 102 357 102 301 70 c 1,34,35
 284 58 284 58 234 29 c 1,36,37
 268 31 268 31 284 31 c 0,38,39
 352 31 352 31 362 2 c 0,40,41
 367 -11 367 -11 367 -23 c 0,42,43
 367 -60 367 -60 318 -88 c 0,44,45
 292 -103 292 -103 222 -126 c 0,46,47
 163 -146 163 -146 152 -159 c 1,48,-1
 95 -105 l 1,49,50
 121 -78 121 -78 179 -72 c 1,51,52
 223 -69 223 -69 267 -67 c 1,53,54
 306 -60 306 -60 301 -29 c 0,55,56
 299 -15 299 -15 238 -15 c 0,57,58
 165 -15 165 -15 145 -36 c 1,59,-1
 146 30 l 1,60,61
 157 44 157 44 212 69 c 0,62,63
 274 97 274 97 299 116 c 0,64,65
 343 150 343 150 343 195 c 0,66,67
 343 206 343 206 340 218 c 0,0,1
EndSplineSet
EndChar

StartChar: c
Encoding: 99 99 70
Width: 494
Flags: W
LayerCount: 2
Fore
SplineSet
205 64 m 0,0,1
 165 68 165 68 135 80 c 1,2,3
 99 93 99 93 99 110 c 0,4,5
 99 118 99 118 108 126 c 0,6,7
 129 145 129 145 156 161 c 0,8,9
 192 183 192 183 205 193 c 0,10,11
 274 244 274 244 274 287 c 0,12,13
 274 307 274 307 252 335 c 0,14,15
 232 360 232 360 197 367 c 1,16,17
 166 369 166 369 111 379 c 0,18,19
 107 380 107 380 107 384 c 0,20,21
 107 389 107 389 116 400 c 1,22,-1
 65 400 l 1,23,24
 32 360 32 360 32 327 c 0,25,26
 32 307 32 307 64 304 c 1,27,28
 62 304 62 304 110 304 c 0,29,30
 144 304 144 304 155 301 c 0,31,32
 176 294 176 294 182 269 c 0,33,34
 185 255 185 255 115 192 c 0,35,36
 75 157 75 157 34 122 c 1,37,38
 8 97 8 97 8 74 c 0,39,40
 8 41 8 41 57 18 c 0,41,42
 97 -1 97 -1 130 -1 c 1,43,44
 128 -1 128 -1 154 -2 c 128,-1,45
 180 -3 180 -3 204 -3 c 0,46,47
 457 -3 457 -3 457 110 c 0,48,49
 457 137 457 137 435.5 188.5 c 128,-1,50
 414 240 414 240 414 261 c 0,51,52
 414 270 414 270 416.5 278 c 128,-1,53
 419 286 419 286 424 294 c 1,54,55
 435 292 435 292 445 292 c 0,56,57
 511 292 511 292 506 360 c 1,58,-1
 452 382 l 1,59,60
 439 407 439 407 439 424 c 0,61,62
 439 452 439 452 480 464 c 128,-1,63
 521 476 521 476 563 487 c 1,64,65
 613 506 613 506 629 545 c 1,66,-1
 549 572 l 1,67,68
 522 531 522 531 488 519 c 0,69,70
 445 503 445 503 440 498 c 0,71,72
 370 435 370 435 370 393 c 0,73,74
 370 376 370 376 380 356 c 1,75,76
 359 341 359 341 347.5 322.5 c 128,-1,77
 336 304 336 304 336 285 c 0,78,79
 336 260 336 260 360 214 c 0,80,81
 386 165 386 165 389 142 c 0,82,83
 398 62 398 62 250 62 c 0,84,85
 227 62 227 62 205 64 c 0,0,1
EndSplineSet
EndChar

StartChar: d
Encoding: 100 100 71
Width: 292
Flags: W
LayerCount: 2
Fore
SplineSet
108 -10 m 1,0,1
 184 50 184 50 250 168 c 0,2,3
 279 220 279 220 279 267 c 0,4,5
 279 315 279 315 249 347 c 128,-1,6
 219 379 219 379 172 379 c 0,7,8
 117 379 117 379 60.5 343.5 c 128,-1,9
 4 308 4 308 8 270 c 1,10,-1
 66 270 l 1,11,12
 90 339 90 339 140 339 c 0,13,14
 162 339 162 339 180 324 c 0,15,16
 206 302 206 302 206 269 c 0,17,18
 206 223 206 223 157 150 c 0,19,20
 95 58 95 58 27 9 c 1,21,-1
 108 -10 l 1,0,1
EndSplineSet
EndChar

StartChar: e
Encoding: 101 101 72
Width: 296
Flags: W
LayerCount: 2
Fore
SplineSet
196 322 m 1,0,1
 105 262 105 262 74 234 c 0,2,3
 7 173 7 173 7 117 c 0,4,5
 7 94 7 94 18 72 c 0,6,7
 56 -9 56 -9 143 -9 c 0,8,9
 162 -9 162 -9 180 -4 c 0,10,11
 266 18 266 18 284 104 c 1,12,-1
 236 178 l 1,13,14
 227 122 227 122 201 80.5 c 128,-1,15
 175 39 175 39 144 39 c 0,16,17
 129 39 129 39 114 52 c 0,18,19
 82 80 82 80 82 112 c 0,20,21
 82 124 82 124 86 136 c 0,22,23
 101 182 101 182 167 247.5 c 128,-1,24
 233 313 233 313 286 334 c 1,25,-1
 258 376 l 1,26,27
 211 370 211 370 145 360 c 1,28,29
 117 354 117 354 91 358 c 0,30,31
 78 360 78 360 92 377 c 1,32,-1
 41 377 l 1,33,34
 13 348 13 348 13 314 c 0,35,36
 13 279 13 279 61 279 c 0,37,38
 74 279 74 279 88 283 c 0,39,40
 147 300 147 300 196 322 c 1,0,1
EndSplineSet
EndChar

StartChar: f
Encoding: 102 102 73
Width: 422
Flags: W
LayerCount: 2
Fore
SplineSet
130 166 m 1,0,-1
 176 113 l 1,1,2
 187 145 187 145 197 177 c 1,3,4
 211 212 211 212 232 212 c 0,5,6
 239 212 239 212 246 209 c 0,7,8
 274 198 274 198 284 159 c 0,9,10
 289 139 289 139 289 121 c 0,11,12
 289 83 289 83 267.5 60.5 c 128,-1,13
 246 38 246 38 211 38 c 0,14,15
 154 38 154 38 97 97 c 0,16,17
 76 119 76 119 76 150 c 0,18,19
 76 206 76 206 134 268 c 0,20,21
 188 326 188 326 226 325 c 0,22,23
 266 324 266 324 306 297 c 1,24,25
 340 272 340 272 374 247 c 1,26,-1
 458 285 l 1,27,28
 424 312 424 312 368 353 c 1,29,30
 328 379 328 379 274 379 c 0,31,32
 238 379 238 379 198 367 c 0,33,34
 146 351 146 351 81 269 c 0,35,36
 10 181 10 181 10 114 c 0,37,38
 10 52 10 52 71 17 c 0,39,40
 121 -12 121 -12 188 -12 c 0,41,42
 246 -12 246 -12 280 9 c 0,43,44
 366 63 366 63 366 151 c 0,45,46
 366 211 366 211 320 249 c 0,47,48
 291 273 291 273 259 273 c 0,49,50
 188 273 188 273 130 166 c 1,0,-1
EndSplineSet
EndChar

StartChar: g
Encoding: 103 103 74
Width: 438
Flags: W
LayerCount: 2
Fore
SplineSet
111 187 m 0,0,1
 211 273 211 273 231 325 c 1,2,-1
 168 363 l 1,3,4
 145 324 145 324 117 294 c 1,5,6
 86 263 86 263 56 232 c 0,7,8
 10 183 10 183 10 132 c 0,9,10
 10 108 10 108 20 82 c 0,11,12
 39 33 39 33 84 12 c 0,13,14
 121 -5 121 -5 180 -5 c 0,15,16
 266 -5 266 -5 314 28 c 0,17,18
 352 54 352 54 389 131 c 0,19,20
 432 221 432 221 426 298 c 0,21,22
 420 379 420 379 381 433 c 1,23,24
 340 493 340 493 268 506 c 0,25,26
 236 512 236 512 207 512 c 0,27,28
 138 512 138 512 64 474 c 1,29,-1
 34 404 l 1,30,31
 94 448 94 448 159 448 c 0,32,33
 199 448 199 448 244 432 c 0,34,35
 308 410 308 410 344.5 360.5 c 128,-1,36
 381 311 381 311 381 249 c 0,37,38
 381 222 381 222 373 194 c 0,39,40
 350 112 350 112 285 79 c 0,41,42
 238 55 238 55 186 55 c 0,43,44
 149 55 149 55 126 68 c 0,45,46
 68 101 68 101 68 125 c 0,47,48
 68 150 68 150 111 187 c 0,0,1
EndSplineSet
EndChar

StartChar: h
Encoding: 104 104 75
Width: 477
Flags: W
LayerCount: 2
Fore
SplineSet
229 378 m 1,0,-1
 136 378 l 1,1,2
 88 307 88 307 32 176 c 0,3,4
 9 123 9 123 9 85 c 0,5,6
 9 45 9 45 36 22 c 0,7,8
 46 14 46 14 81 -3 c 0,9,10
 92 -8 92 -8 118 -8 c 0,11,12
 145 -7 145 -7 153 -1 c 0,13,14
 174 14 174 14 180 21 c 0,15,16
 197 41 197 41 214 83 c 1,17,18
 230 10 230 10 281 1 c 0,19,20
 297 -2 297 -2 313 -2 c 0,21,22
 366 -2 366 -2 407 26 c 0,23,24
 454 58 454 58 454 110 c 0,25,26
 454 137 454 137 431.5 192 c 128,-1,27
 409 247 409 247 409 268 c 0,28,29
 409 299 409 299 441 323 c 1,30,31
 469 341 469 341 497 360 c 1,32,-1
 453 398 l 1,33,34
 372 377 372 377 342 330 c 0,35,36
 329 309 329 309 329 287 c 0,37,38
 329 263 329 263 349 223 c 0,39,40
 372 176 372 176 376 158 c 0,41,42
 381 134 381 134 381 115 c 0,43,44
 381 87 381 87 368 65 c 0,45,46
 357 48 357 48 331 46 c 256,47,48
 305 44 305 44 287 108 c 1,49,50
 273 162 273 162 273 221 c 0,51,52
 273 234 273 234 274 244 c 1,53,-1
 205 229 l 1,54,55
 202 150 202 150 184 97 c 0,56,57
 170 54 170 54 154 46 c 0,58,59
 128 32 128 32 97 44 c 0,60,61
 82 50 82 50 82 74 c 0,62,63
 82 123 82 123 137 229 c 1,64,65
 185 325 185 325 229 378 c 1,0,-1
EndSplineSet
EndChar

StartChar: i
Encoding: 105 105 76
Width: 525
Flags: W
LayerCount: 2
Fore
SplineSet
168 400 m 1,0,-1
 117 400 l 1,1,2
 84 360 84 360 84 327 c 0,3,4
 84 307 84 307 116 304 c 1,5,6
 114 304 114 304 162 304 c 0,7,8
 196 304 196 304 207 301 c 0,9,10
 228 294 228 294 234 269 c 0,11,12
 238 253 238 253 200.5 213.5 c 128,-1,13
 163 174 163 174 126 154 c 1,14,15
 121 161 121 161 104 170 c 128,-1,16
 87 179 87 179 77 178 c 0,17,18
 51 175 51 175 12.5 129.5 c 128,-1,19
 -26 84 -26 84 -18 70 c 0,20,21
 -14 63 -14 63 -1 63 c 0,22,23
 47 63 47 63 96 97 c 1,24,25
 115 69 115 69 146.5 35.5 c 128,-1,26
 178 2 178 2 190 -3 c 0,27,28
 214 -14 214 -14 233.5 0.5 c 128,-1,29
 253 15 253 15 262 25 c 0,30,31
 278 42 278 42 297 73 c 1,32,33
 311 9 311 9 360 1 c 0,34,35
 376 -2 376 -2 392 -2 c 0,36,37
 441 -2 441 -2 475 28.5 c 128,-1,38
 509 59 509 59 509 108 c 0,39,40
 509 135 509 135 487 187 c 128,-1,41
 465 239 465 239 465 260 c 0,42,43
 465 289 465 289 494 317 c 1,44,45
 520 337 520 337 546 358 c 1,46,-1
 504 382 l 1,47,48
 460 371 460 371 443 362 c 0,49,50
 416 349 416 349 399 322 c 0,51,52
 388 304 388 304 388 285 c 0,53,54
 388 260 388 260 412 214 c 0,55,56
 438 165 438 165 441 142 c 0,57,58
 448 81 448 81 425 61 c 0,59,60
 420 57 420 57 406 52 c 1,61,62
 395 51 395 51 384 83 c 128,-1,63
 373 115 373 115 373 147 c 0,64,65
 373 158 373 158 375 166 c 1,66,-1
 294 151 l 1,67,68
 283 123 283 123 273 95 c 1,69,70
 255 54 255 54 237 54 c 0,71,72
 212 54 212 54 162 124 c 1,73,74
 220 156 220 156 261 193 c 0,75,76
 326 251 326 251 326 287 c 0,77,78
 326 307 326 307 304 335 c 0,79,80
 284 360 284 360 249 367 c 1,81,82
 218 369 218 369 163 379 c 0,83,84
 159 380 159 380 159 384 c 0,85,86
 159 389 159 389 168 400 c 1,0,-1
EndSplineSet
EndChar

StartChar: j
Encoding: 106 106 77
Width: 438
Flags: W
LayerCount: 2
Fore
SplineSet
159 171 m 1,0,1
 205 212 205 212 271 283 c 1,2,3
 279 295 279 295 279 307 c 0,4,5
 279 336 279 336 246 349 c 1,6,7
 220 361 220 361 189 357 c 0,8,9
 119 348 119 348 115 361 c 0,10,11
 112 370 112 370 122 382 c 1,12,-1
 71 382 l 1,13,14
 35 338 35 338 35 309 c 0,15,16
 35 278 35 278 112 285 c 0,17,18
 175 291 175 291 168 291 c 1,19,20
 195 291 195 291 195 276 c 0,21,22
 195 271 195 271 192 265 c 0,23,24
 187 253 187 253 161 232 c 0,25,26
 140 216 140 216 120 200 c 0,27,28
 79 167 79 167 38 134 c 1,29,30
 2 102 2 102 8 76 c 0,31,32
 18 33 18 33 72 8 c 0,33,34
 106 -8 106 -8 165 -8 c 0,35,36
 262 -8 262 -8 314 28 c 0,37,38
 352 54 352 54 389 131 c 0,39,40
 432 221 432 221 426 298 c 0,41,42
 420 379 420 379 381 433 c 1,43,44
 340 493 340 493 268 506 c 0,45,46
 236 512 236 512 207 512 c 0,47,48
 138 512 138 512 64 474 c 1,49,-1
 34 404 l 1,50,51
 94 448 94 448 159 448 c 0,52,53
 199 448 199 448 244 432 c 0,54,55
 308 410 308 410 344.5 360.5 c 128,-1,56
 381 311 381 311 381 249 c 0,57,58
 381 222 381 222 373 194 c 0,59,60
 350 112 350 112 285 79 c 0,61,62
 235 54 235 54 179 54 c 0,63,64
 142 54 142 54 120 66.5 c 128,-1,65
 98 79 98 79 98 94 c 0,66,67
 98 113 98 113 159 171 c 1,0,1
EndSplineSet
EndChar

StartChar: k
Encoding: 107 107 78
Width: 514
Flags: W
LayerCount: 2
Fore
SplineSet
138 390 m 1,0,-1
 86 388 l 1,1,2
 53 347 53 347 53 313 c 0,3,4
 53 285 53 285 89 285 c 0,5,6
 100 285 100 285 123 291.5 c 128,-1,7
 146 298 146 298 158 298 c 0,8,9
 192 298 192 298 186 266 c 1,10,11
 163 233 163 233 124 198 c 0,12,13
 101 177 101 177 76 160 c 1,14,-1
 64 208 l 1,15,-1
 8 144 l 1,16,17
 11 99 11 99 33 61 c 0,18,19
 52 28 52 28 76 14 c 0,20,21
 107 -4 107 -4 149 -4 c 0,22,23
 223 -4 223 -4 282 46 c 0,24,25
 334 91 334 91 334 169 c 0,26,27
 334 194 334 194 326 216 c 0,28,29
 307 269 307 269 270 288 c 1,30,31
 302 318 302 318 350 318 c 0,32,33
 371 318 371 318 388 310 c 0,34,35
 419 295 419 295 419 230 c 0,36,37
 419 183 419 183 404 136 c 0,38,39
 388 86 388 86 356 -22 c 1,40,-1
 440 -2 l 1,41,42
 462 68 462 68 492 202 c 1,43,44
 499 250 499 250 499 282 c 0,45,46
 499 341 499 341 470.5 361.5 c 128,-1,47
 442 382 442 382 399 382 c 0,48,49
 312 382 312 382 244 320 c 1,50,51
 243 378 243 378 200 372 c 0,52,53
 145 364 145 364 136 364 c 0,54,55
 130 364 130 364 131 373 c 256,56,57
 132 382 132 382 138 390 c 1,0,-1
92 116 m 1,58,59
 114 129 114 129 162 166 c 1,60,61
 193 196 193 196 208 222 c 1,62,63
 270 191 270 191 266 130 c 0,64,65
 260 45 260 45 192 45 c 0,66,67
 177 45 177 45 160 50 c 0,68,69
 121 60 121 60 92 116 c 1,58,59
EndSplineSet
EndChar

StartChar: l
Encoding: 108 108 79
Width: 559
Flags: W
LayerCount: 2
Fore
SplineSet
98 177 m 0,0,1
 66 141 66 141 4 67 c 1,2,-1
 24 7 l 1,3,4
 38 27 38 27 46.5 33 c 128,-1,5
 55 39 55 39 70 37 c 0,6,7
 90 34 90 34 124 5 c 0,8,9
 140 -9 140 -9 156 -3 c 0,10,11
 183 7 183 7 222 53 c 1,12,13
 239 13 239 13 268 1 c 0,14,15
 281 -4 281 -4 304 -4 c 1,16,17
 326 -3 326 -3 336 3 c 0,18,19
 371 25 371 25 396.5 78.5 c 128,-1,20
 422 132 422 132 422 183 c 0,21,22
 422 231 422 231 398 257 c 0,23,24
 368 290 368 290 322 290 c 0,25,26
 308 290 308 290 278 287 c 1,27,28
 332 325 332 325 392 319 c 0,29,30
 480 310 480 310 470 177 c 0,31,32
 468 147 468 147 452 88 c 0,33,34
 438 33 438 33 438 6 c 0,35,36
 438 -6 438 -6 440 -17 c 1,37,-1
 520 7 l 1,38,39
 517 19 517 19 531 92 c 0,40,41
 546 174 546 174 546 222 c 0,42,43
 546 309 546 309 504 347 c 0,44,45
 470 378 470 378 399 378 c 0,46,47
 375 378 375 378 352 373 c 0,48,49
 291 361 291 361 226 309 c 1,50,51
 234 343 234 343 213 364 c 0,52,53
 200 377 200 377 163 370 c 0,54,55
 134 364 134 364 121 366 c 256,56,57
 108 368 108 368 122 385 c 1,58,-1
 71 385 l 1,59,60
 40 352 40 352 40 315 c 0,61,62
 40 289 40 289 75 289 c 0,63,64
 90 289 90 289 117 296 c 128,-1,65
 144 303 144 303 157 303 c 0,66,67
 183 303 183 303 184 270 c 1,68,69
 163 250 163 250 98 177 c 0,0,1
196 209 m 1,70,71
 232 231 232 231 269 231 c 0,72,73
 291 231 291 231 312 223 c 0,74,75
 347 209 347 209 362 161 c 0,76,77
 366 148 366 148 366 132 c 0,78,79
 366 103 366 103 353 79 c 128,-1,80
 340 55 340 55 322 55 c 0,81,82
 315 55 315 55 308 59 c 0,83,84
 293 68 293 68 293 90 c 0,85,86
 293 103 293 103 299 127 c 0,87,88
 310 165 310 165 310 167 c 1,89,-1
 230 149 l 1,90,91
 212 94 212 94 185 69 c 0,92,93
 182 67 182 67 179 67 c 0,94,95
 173 67 173 67 157 82 c 0,96,97
 138 99 138 99 128 103 c 0,98,99
 122 106 122 106 106 110 c 1,100,101
 121 129 121 129 158 171 c 0,102,103
 169 183 169 183 196 209 c 1,70,71
EndSplineSet
EndChar

StartChar: m
Encoding: 109 109 80
Width: 475
Flags: W
LayerCount: 2
Fore
SplineSet
116 400 m 1,0,-1
 65 400 l 1,1,2
 32 360 32 360 32 327 c 0,3,4
 32 307 32 307 64 304 c 1,5,6
 62 304 62 304 110 304 c 0,7,8
 144 304 144 304 155 301 c 0,9,10
 176 294 176 294 182 269 c 0,11,12
 185 255 185 255 115 192 c 0,13,14
 75 157 75 157 34 122 c 1,15,16
 8 97 8 97 8 74 c 0,17,18
 8 41 8 41 57 18 c 0,19,20
 97 -1 97 -1 130 -1 c 1,21,22
 128 -1 128 -1 154 -2 c 128,-1,23
 180 -3 180 -3 204 -3 c 0,24,25
 457 -3 457 -3 457 110 c 0,26,27
 457 137 457 137 435.5 188.5 c 128,-1,28
 414 240 414 240 414 260 c 0,29,30
 414 289 414 289 442 317 c 1,31,32
 468 337 468 337 494 358 c 1,33,-1
 452 382 l 1,34,35
 408 371 408 371 391 362 c 0,36,37
 364 349 364 349 347 322 c 0,38,39
 336 304 336 304 336 285 c 0,40,41
 336 260 336 260 360 214 c 0,42,43
 386 165 386 165 389 142 c 0,44,45
 398 62 398 62 249 62 c 0,46,47
 226 62 226 62 205 64 c 0,48,49
 165 68 165 68 135 80 c 1,50,51
 99 93 99 93 99 110 c 0,52,53
 99 118 99 118 108 126 c 0,54,55
 129 145 129 145 156 161 c 0,56,57
 192 183 192 183 205 193 c 0,58,59
 274 244 274 244 274 287 c 0,60,61
 274 307 274 307 252 335 c 0,62,63
 232 360 232 360 197 367 c 1,64,65
 166 369 166 369 111 379 c 0,66,67
 107 380 107 380 107 384 c 0,68,69
 107 389 107 389 116 400 c 1,0,-1
EndSplineSet
EndChar

StartChar: n
Encoding: 110 110 81
Width: 468
Flags: W
LayerCount: 2
Fore
SplineSet
34 8 m 0,0,1
 11 25 11 25 11 93 c 0,2,3
 11 225 11 225 107 313 c 0,4,5
 162 363 162 363 248 357 c 0,6,7
 344 350 344 350 335 228 c 0,8,9
 333 203 333 203 314 158.5 c 128,-1,10
 295 114 295 114 295 98 c 0,11,12
 295 72 295 72 316 72 c 0,13,14
 341 72 341 72 365 99 c 0,15,16
 397 135 397 135 397 220 c 0,17,18
 397 356 397 356 314 414 c 0,19,20
 255 455 255 455 200 455 c 0,21,22
 118 455 118 455 53 366 c 1,23,-1
 68 462 l 1,24,25
 149 511 149 511 233 511 c 0,26,27
 247 511 247 511 263 510 c 0,28,29
 329 505 329 505 368 473 c 128,-1,30
 407 441 407 441 430 388 c 128,-1,31
 453 335 453 335 453 265 c 0,32,33
 453 190 453 190 429 120.5 c 128,-1,34
 405 51 405 51 374 27 c 0,35,36
 336 -3 336 -3 287 -3 c 0,37,38
 236 -3 236 -3 224 21 c 0,39,40
 218 34 218 34 218 49 c 0,41,42
 218 70 218 70 232 102 c 0,43,44
 244 129 244 129 257 156 c 1,45,46
 271 189 271 189 271 214 c 0,47,48
 271 276 271 276 200 276 c 0,49,50
 122 276 122 276 83 213 c 1,51,52
 118 235 118 235 146 235 c 0,53,54
 169 235 169 235 185 219 c 0,55,56
 211 193 211 193 211 145 c 0,57,58
 211 108 211 108 196 74 c 0,59,60
 180 37 180 37 146 16 c 128,-1,61
 112 -5 112 -5 78 -5 c 0,62,63
 51 -5 51 -5 34 8 c 0,0,1
75 145 m 1,64,65
 63 116 63 116 66 80 c 0,66,67
 68 50 68 50 87 50 c 0,68,69
 96 50 96 50 107 58 c 0,70,71
 130 74 130 74 132 127 c 0,72,73
 133 157 133 157 106 157 c 0,74,75
 91 157 91 157 75 145 c 1,64,65
EndSplineSet
EndChar

StartChar: o
Encoding: 111 111 82
Width: 394
Flags: W
LayerCount: 2
Fore
SplineSet
330 97 m 1,0,1
 247 57 247 57 178 57 c 0,2,3
 149 57 149 57 131 66 c 0,4,5
 107 78 107 78 107 94 c 0,6,7
 107 116 107 116 179 169 c 0,8,9
 243 217 243 217 255 225 c 1,10,11
 304 264 304 264 319 283 c 0,12,13
 328 295 328 295 328 307 c 0,14,15
 328 323 328 323 314 337 c 0,16,17
 288 363 288 363 229 357 c 0,18,19
 152 348 152 348 148 361 c 0,20,21
 145 370 145 370 155 382 c 1,22,-1
 99 382 l 1,23,24
 60 338 60 338 60 309 c 0,25,26
 60 278 60 278 144 285 c 0,27,28
 177 288 177 288 194 288 c 0,29,30
 236 288 236 288 236 275 c 0,31,32
 236 271 236 271 232 266 c 0,33,34
 226 258 226 258 185 235 c 0,35,36
 133 205 133 205 129 202 c 0,37,38
 45 146 45 146 44 145 c 0,39,40
 6 116 6 116 6 88 c 0,41,42
 6 64 6 64 31 40 c 0,43,44
 52 19 52 19 78 8 c 0,45,46
 112 -6 112 -6 145 -6 c 0,47,48
 158 -6 158 -6 179 -4 c 1,49,50
 197 -1 197 -1 204 -2 c 1,51,52
 132 -38 132 -38 132 -70 c 0,53,54
 132 -79 132 -79 136 -92 c 0,55,56
 149 -131 149 -131 189 -153 c 0,57,58
 224 -172 224 -172 268 -172 c 0,59,60
 320 -172 320 -172 360.5 -144.5 c 128,-1,61
 401 -117 401 -117 410 -72 c 1,62,-1
 382 -40 l 1,63,64
 303 -103 303 -103 253 -103 c 0,65,66
 236 -103 236 -103 219 -97 c 0,67,68
 196 -89 196 -89 196 -76 c 0,69,70
 196 -55 196 -55 263 -16 c 0,71,72
 322 18 322 18 382 52 c 1,73,-1
 330 97 l 1,0,1
EndSplineSet
EndChar

StartChar: p
Encoding: 112 112 83
Width: 492
Flags: W
LayerCount: 2
Fore
SplineSet
166 120 m 1,0,1
 224 152 224 152 265 189 c 0,2,3
 330 247 330 247 330 283 c 0,4,5
 330 303 330 303 308 331 c 0,6,7
 288 356 288 356 253 363 c 1,8,9
 222 365 222 365 167 375 c 0,10,11
 163 376 163 376 163 380 c 0,12,13
 163 385 163 385 172 396 c 1,14,-1
 121 396 l 1,15,16
 88 356 88 356 88 323 c 0,17,18
 88 303 88 303 120 300 c 1,19,20
 118 300 118 300 166 300 c 0,21,22
 200 300 200 300 211 297 c 0,23,24
 232 290 232 290 238 265 c 0,25,26
 242 249 242 249 204.5 209.5 c 128,-1,27
 167 170 167 170 130 150 c 1,28,29
 125 157 125 157 108 166 c 128,-1,30
 91 175 91 175 81 174 c 0,31,32
 55 171 55 171 16.5 125.5 c 128,-1,33
 -22 80 -22 80 -14 66 c 0,34,35
 -10 59 -10 59 3 59 c 0,36,37
 51 59 51 59 100 93 c 1,38,39
 102 68 102 68 105 44 c 0,40,41
 108 15 108 15 122 8 c 0,42,43
 156 -8 156 -8 215 -8 c 0,44,45
 312 -8 312 -8 364 28 c 0,46,47
 402 54 402 54 439 131 c 0,48,49
 482 221 482 221 476 298 c 0,50,51
 470 379 470 379 431 433 c 1,52,53
 390 493 390 493 318 506 c 0,54,55
 286 512 286 512 257 512 c 0,56,57
 188 512 188 512 114 474 c 1,58,-1
 84 404 l 1,59,60
 144 448 144 448 209 448 c 0,61,62
 249 448 249 448 294 432 c 0,63,64
 358 410 358 410 394.5 360.5 c 128,-1,65
 431 311 431 311 431 249 c 0,66,67
 431 222 431 222 423 194 c 0,68,69
 400 112 400 112 335 79 c 0,70,71
 299 61 299 61 262 61 c 0,72,73
 194 61 194 61 166 120 c 1,0,1
EndSplineSet
EndChar

StartChar: q
Encoding: 113 113 84
Width: 9
Flags: W
LayerCount: 2
Fore
SplineSet
-34 174 m 1,0,1
 -41 146 -41 146 -53 -25 c 0,2,3
 -64 -183 -64 -183 -64 -214 c 1,4,5
 -82 -213 -82 -213 -107 -213 c 0,6,7
 -211 -213 -211 -213 -362 -234 c 0,8,9
 -509 -254 -509 -254 -520 -268 c 1,10,11
 -512 -220 -512 -220 -508 -192 c 1,12,13
 -220 -156 -220 -156 -130 -156 c 1,14,15
 -126 -69 -126 -69 -114 48 c 1,16,17
 -80 59 -80 59 -34 174 c 1,0,1
EndSplineSet
EndChar

StartChar: r
Encoding: 114 114 85
Width: 396
Flags: W
LayerCount: 2
Fore
SplineSet
185 621 m 1,0,1
 188 583 188 583 123 423 c 0,2,3
 31 199 31 199 19 162 c 0,4,5
 3 114 3 114 3 91 c 0,6,7
 3 61 3 61 25 36 c 0,8,9
 63 -7 63 -7 135 -7 c 0,10,11
 159 -7 159 -7 185 -2 c 0,12,13
 246 9 246 9 310 89 c 128,-1,14
 374 169 374 169 381 246 c 0,15,16
 384 279 384 279 360.5 317.5 c 128,-1,17
 337 356 337 356 305 364 c 0,18,19
 294 367 294 367 281 367 c 0,20,21
 206 367 206 367 139 294 c 1,22,23
 257 556 257 556 257 625 c 0,24,25
 257 633 257 633 255 638 c 1,26,-1
 185 621 l 1,0,1
117 210 m 0,27,28
 138 245 138 245 173 268.5 c 128,-1,29
 208 292 208 292 241 292 c 0,30,31
 265 292 265 292 282 279 c 0,32,33
 313 256 313 256 313 215 c 0,34,35
 313 157 313 157 265 102 c 0,36,37
 204 31 204 31 144 31 c 0,38,39
 109 31 109 31 82 57 c 0,40,41
 71 68 71 68 71 89 c 0,42,43
 71 133 71 133 117 210 c 0,27,28
EndSplineSet
EndChar

StartChar: s
Encoding: 115 115 86
Width: 7
Flags: W
LayerCount: 2
Fore
SplineSet
-319 436 m 1,0,-1
 -397 398 l 1,1,2
 -402 491 -402 491 -298 557 c 1,3,4
 -207 616 -207 616 -107 616 c 0,5,6
 -10 616 -10 616 19 544 c 0,7,8
 31 515 31 515 31 488 c 0,9,10
 31 450 31 450 7 412 c 1,11,-1
 -39 402 l 1,12,13
 -33 424 -33 424 -33 443 c 0,14,15
 -33 486 -33 486 -65 526 c 0,16,17
 -93 561 -93 561 -155 561 c 0,18,19
 -215 561 -215 561 -268 531 c 1,20,21
 -323 498 -323 498 -323 457 c 0,22,23
 -323 446 -323 446 -319 436 c 1,0,-1
EndSplineSet
EndChar

StartChar: t
Encoding: 116 116 87
Width: 498
Flags: W
LayerCount: 2
Fore
SplineSet
479 298 m 0,0,1
 472 382 472 382 440 442 c 0,2,3
 403 512 403 512 341 530 c 0,4,5
 320 536 320 536 300 538 c 0,6,7
 275 540 275 540 271 541 c 1,8,9
 258 554 258 554 231 554 c 0,10,11
 203 554 203 554 175 542 c 1,12,-1
 175 504 l 1,13,14
 193 494 193 494 233 490 c 1,15,16
 226 459 226 459 226 442 c 0,17,18
 226 374 226 374 323 374 c 0,19,20
 355 374 355 374 398 381 c 1,21,22
 432 309 432 309 432 243 c 0,23,24
 432 216 432 216 426 194 c 0,25,26
 403 112 403 112 339 79 c 0,27,28
 303 61 303 61 266 61 c 0,29,30
 198 61 198 61 170 120 c 1,31,32
 228 152 228 152 269 189 c 0,33,34
 334 247 334 247 334 283 c 0,35,36
 334 303 334 303 312 331 c 0,37,38
 292 356 292 356 257 363 c 1,39,40
 226 365 226 365 171 375 c 0,41,42
 167 376 167 376 167 380 c 0,43,44
 167 385 167 385 176 396 c 1,45,-1
 125 396 l 1,46,47
 92 356 92 356 92 323 c 0,48,49
 92 303 92 303 124 300 c 1,50,51
 122 300 122 300 170 300 c 0,52,53
 204 300 204 300 215 297 c 0,54,55
 236 290 236 290 242 265 c 0,56,57
 246 249 246 249 208.5 209.5 c 128,-1,58
 171 170 171 170 134 150 c 1,59,60
 129 157 129 157 112 166 c 128,-1,61
 95 175 95 175 85 174 c 0,62,63
 59 171 59 171 20.5 125.5 c 128,-1,64
 -18 80 -18 80 -10 66 c 0,65,66
 -6 59 -6 59 7 59 c 0,67,68
 55 59 55 59 104 93 c 1,69,70
 106 68 106 68 109 44 c 0,71,72
 112 15 112 15 126 8 c 0,73,74
 160 -8 160 -8 219 -8 c 0,75,76
 316 -8 316 -8 368 28 c 0,77,78
 406 54 406 54 443 131 c 0,79,80
 485 221 485 221 479 298 c 0,0,1
379 414 m 1,81,82
 335 409 335 409 304 432.5 c 128,-1,83
 273 456 273 456 277 492 c 1,84,85
 335 481 335 481 379 414 c 1,81,82
EndSplineSet
EndChar

StartChar: u
Encoding: 117 117 88
Width: 438
Flags: W
LayerCount: 2
Fore
SplineSet
87 138 m 1,0,1
 114 134 114 134 139 134 c 0,2,3
 228 134 228 134 282 186 c 0,4,5
 309 212 309 212 309 250 c 0,6,7
 309 291 309 291 279.5 327.5 c 128,-1,8
 250 364 250 364 210 368 c 0,9,10
 145 375 145 375 96 304 c 0,11,12
 10 179 10 179 10 116 c 0,13,14
 10 101 10 101 14 82 c 0,15,16
 25 35 25 35 74 12 c 0,17,18
 111 -5 111 -5 174 -5 c 0,19,20
 266 -5 266 -5 314 28 c 0,21,22
 352 54 352 54 389 131 c 0,23,24
 432 221 432 221 426 298 c 0,25,26
 420 379 420 379 381 433 c 1,27,28
 340 493 340 493 268 506 c 0,29,30
 236 512 236 512 207 512 c 0,31,32
 138 512 138 512 64 474 c 1,33,-1
 34 404 l 1,34,35
 94 448 94 448 159 448 c 0,36,37
 199 448 199 448 244 432 c 0,38,39
 308 410 308 410 344.5 360.5 c 128,-1,40
 381 311 381 311 381 249 c 0,41,42
 381 222 381 222 373 194 c 0,43,44
 350 112 350 112 285 79 c 0,45,46
 235 54 235 54 179 54 c 0,47,48
 141 54 141 54 116 69 c 0,49,50
 85 87 85 87 85 123 c 0,51,52
 85 130 85 130 87 138 c 1,0,1
129 227 m 1,53,54
 148 258 148 258 167 288 c 0,55,56
 192 326 192 326 210 326 c 0,57,58
 224 326 224 326 233 308 c 0,59,60
 240 294 240 294 240 279 c 0,61,62
 240 236 240 236 212 218 c 0,63,64
 161 185 161 185 119 185 c 0,65,66
 111 185 111 185 103 186 c 1,67,68
 111 200 111 200 129 227 c 1,53,54
EndSplineSet
EndChar

StartChar: v
Encoding: 118 118 89
Width: 526
Flags: W
LayerCount: 2
Fore
SplineSet
275 189 m 0,0,1
 340 247 340 247 340 283 c 0,2,3
 340 303 340 303 318 331 c 0,4,5
 298 356 298 356 263 363 c 1,6,7
 232 365 232 365 177 375 c 0,8,9
 173 376 173 376 173 380 c 0,10,11
 173 385 173 385 182 396 c 1,12,-1
 131 396 l 1,13,14
 98 356 98 356 98 323 c 0,15,16
 98 303 98 303 130 300 c 1,17,18
 128 300 128 300 176 300 c 0,19,20
 210 300 210 300 221 297 c 0,21,22
 242 290 242 290 248 265 c 0,23,24
 252 249 252 249 207.5 209 c 128,-1,25
 163 169 163 169 124 148 c 1,26,27
 116 155 116 155 88.5 167 c 128,-1,28
 61 179 61 179 51 178 c 0,29,30
 28 175 28 175 5.5 142 c 128,-1,31
 -17 109 -17 109 -17 87 c 0,32,33
 -17 72 -17 72 3 72 c 0,34,35
 33 72 33 72 70 97 c 1,36,37
 89 69 89 69 120.5 35.5 c 128,-1,38
 152 2 152 2 164 -3 c 0,39,40
 188 -14 188 -14 207.5 0.5 c 128,-1,41
 227 15 227 15 236 25 c 0,42,43
 252 42 252 42 271 73 c 1,44,45
 285 9 285 9 334 1 c 0,46,47
 350 -2 350 -2 364 -2 c 0,48,49
 446 -2 446 -2 477 91 c 0,50,51
 496 147 496 147 500 165 c 0,52,53
 509 205 509 205 509 259 c 0,54,55
 509 278 509 278 508 300 c 0,56,57
 500 479 500 479 360 504 c 0,58,59
 325 510 325 510 288 510 c 0,60,61
 195 510 195 510 124 474 c 1,62,-1
 94 404 l 1,63,64
 154 448 154 448 241 448 c 0,65,66
 291 448 291 448 336 432 c 0,67,68
 444 395 444 395 444 265 c 0,69,70
 444 231 444 231 437 188 c 0,71,72
 418 78 418 78 399 61 c 0,73,74
 394 57 394 57 380 52 c 1,75,76
 369 51 369 51 358 83 c 128,-1,77
 347 115 347 115 347 147 c 0,78,79
 347 158 347 158 349 166 c 1,80,-1
 268 151 l 1,81,82
 257 123 257 123 247 94 c 1,83,84
 228 53 228 53 210 53 c 0,85,86
 184 53 184 53 138 118 c 1,87,88
 235 154 235 154 275 189 c 0,0,1
EndSplineSet
EndChar

StartChar: x
Encoding: 120 120 90
Width: 311
Flags: W
LayerCount: 2
Fore
SplineSet
148 296 m 1,0,-1
 189 262 l 1,1,-1
 213 279 l 1,2,3
 301 207 301 207 294 133 c 0,4,5
 289 73 289 73 244.5 34 c 128,-1,6
 200 -5 200 -5 141 -2 c 0,7,8
 48 3 48 3 11 102 c 0,9,10
 6 116 6 116 6 129 c 0,11,12
 6 167 6 167 48 210 c 0,13,14
 74 238 74 238 148 296 c 1,0,-1
169 222 m 1,15,16
 80 152 80 152 80 119 c 0,17,18
 80 112 80 112 83 106 c 0,19,20
 110 44 110 44 165 44 c 0,21,22
 178 44 178 44 191 49 c 0,23,24
 237 68 237 68 237 133 c 0,25,26
 237 169 237 169 169 222 c 1,15,16
EndSplineSet
EndChar

StartChar: y
Encoding: 121 121 91
Width: 493
Flags: W
LayerCount: 2
Fore
SplineSet
273 76 m 0,1,2
 280 91 280 91 294 142 c 0,3,4
 297 154 297 154 295 170 c 0,5,6
 292 190 292 190 282 193 c 1,7,8
 328 321 328 321 366 321 c 0,9,10
 401 321 401 321 401 246 c 0,11,12
 401 214 401 214 393 181 c 0,13,14
 359 48 359 48 354 -16 c 1,15,-1
 438 14 l 1,16,17
 449 76 449 76 468 202 c 0,18,19
 474 244 474 244 474 273 c 0,20,21
 474 335 474 335 442 358 c 0,22,23
 416 377 416 377 385 377 c 0,24,25
 322 377 322 377 277 314 c 0,26,27
 241 264 241 264 215 194 c 1,28,29
 227 194 227 194 227 175 c 0,30,31
 227 142 227 142 200.5 94 c 128,-1,32
 174 46 174 46 147 46 c 0,33,34
 125 46 125 46 108.5 78 c 128,-1,35
 92 110 92 110 96 132 c 0,36,37
 100 153 100 153 153 224.5 c 128,-1,38
 206 296 206 296 208 302 c 1,39,40
 207 378 207 378 154 370 c 0,41,42
 99 362 99 362 90 362 c 0,43,44
 84 362 84 362 85 371 c 256,45,46
 86 380 86 380 92 388 c 1,47,-1
 40 386 l 1,48,49
 7 345 7 345 7 311 c 0,50,51
 7 283 7 283 43 283 c 0,52,53
 55 283 55 283 78.5 290 c 128,-1,54
 102 297 102 297 115 297 c 0,55,56
 139 297 139 297 139 277 c 0,57,58
 139 273 139 273 138 268 c 1,59,60
 59 181 59 181 43 161 c 0,61,62
 8 115 8 115 8 82 c 0,63,64
 8 65 8 65 16 48 c 0,65,66
 29 21 29 21 69 4 c 0,67,68
 104 -11 104 -11 137 -11 c 0,69,70
 192 -11 192 -11 224 13.5 c 128,-1,0
 256 38 256 38 273 76 c 0,1,2
EndSplineSet
EndChar

StartChar: z
Encoding: 122 122 92
Width: 140
Flags: W
LayerCount: 2
Fore
SplineSet
86 610 m 1,0,-1
 112 422 l 1,1,-1
 64 428 l 1,2,-1
 12 592 l 1,3,-1
 86 610 l 1,0,-1
EndSplineSet
EndChar

StartChar: braceleft
Encoding: 123 123 93
Width: 790
Flags: W
LayerCount: 2
Fore
SplineSet
479 312 m 1,0,1
 453 315 453 315 420 272 c 0,2,3
 410 259 410 259 369 192 c 0,4,5
 369 191 369 191 376.5 176.5 c 128,-1,6
 384 162 384 162 384 143 c 0,7,8
 384 111 384 111 365 71 c 0,9,10
 341 22 341 22 302 3 c 0,11,12
 285 -5 285 -5 254 -5 c 0,13,14
 218 -5 218 -5 203 5 c 0,15,16
 146 42 146 42 146 106 c 0,17,18
 146 142 146 142 165 182 c 0,19,20
 179 211 179 211 193 240 c 0,21,22
 214 287 214 287 221 326 c 1,23,24
 139 315 139 315 113 297 c 0,25,26
 80 273 80 273 73 206 c 0,27,28
 71 185 71 185 71 168 c 0,29,30
 71 77 71 77 141 32 c 1,31,-1
 93 -12 l 1,32,33
 10 15 10 15 10 116 c 0,34,35
 10 170 10 170 33 234 c 0,36,37
 84 375 84 375 233 382 c 0,38,39
 255 383 255 383 311 374 c 1,40,41
 312 355 312 355 299.5 315 c 128,-1,42
 287 275 287 275 275 256 c 0,43,44
 200 137 200 137 200 75 c 0,45,46
 200 35 200 35 229 35 c 0,47,48
 236 35 236 35 244 38 c 0,49,50
 266 46 266 46 289 85.5 c 128,-1,51
 312 125 312 125 312 157 c 0,52,53
 312 180 312 180 296 189 c 1,54,55
 310 220 310 220 326 246 c 0,56,57
 405 375 405 375 504 365 c 1,58,59
 507 374 507 374 515 382 c 1,60,-1
 566 382 l 1,61,62
 556 370 556 370 559 361 c 0,63,64
 563 348 563 348 633 357 c 0,65,66
 664 361 664 361 690 349 c 1,67,68
 723 336 723 336 723 307 c 0,69,70
 723 295 723 295 715 283 c 0,71,72
 699 260 699 260 587 169 c 0,73,74
 522 116 522 116 522 94 c 0,75,76
 522 78 522 78 544 66 c 0,77,78
 560 57 560 57 587 57 c 0,79,80
 649 57 649 57 725 97 c 1,81,-1
 772 52 l 1,82,83
 718 18 718 18 664 -16 c 0,84,85
 603 -55 603 -55 603 -76 c 0,86,87
 603 -89 603 -89 623 -97 c 0,88,89
 639 -103 639 -103 655 -103 c 0,90,91
 700 -103 700 -103 772 -40 c 1,92,-1
 796 -66 l 1,93,94
 787 -112 787 -112 751.5 -141 c 128,-1,95
 716 -170 716 -170 670 -170 c 0,96,97
 630 -170 630 -170 597 -149 c 128,-1,98
 564 -128 564 -128 552 -90 c 0,99,100
 547 -75 547 -75 547 -66 c 0,101,102
 547 -36 547 -36 610 -2 c 1,103,104
 603 -1 603 -1 587 -3 c 0,105,106
 568 -6 568 -6 557 -6 c 0,107,108
 527 -6 527 -6 496 8 c 0,109,110
 472 19 472 19 453 40 c 0,111,112
 431 64 431 64 431 88 c 0,113,114
 431 114 431 114 465 142 c 1,115,116
 505 170 505 170 544 198 c 1,117,118
 569 214 569 214 595 230 c 0,119,120
 631 253 631 253 636 265 c 0,121,122
 639 271 639 271 639 276 c 0,123,124
 639 291 639 291 612 291 c 1,125,126
 619 291 619 291 556 285 c 0,127,128
 528 282 528 282 509 286 c 1,129,130
 475 291 475 291 479 312 c 1,0,1
EndSplineSet
EndChar

StartChar: bar
Encoding: 124 124 94
Width: 531
Flags: W
LayerCount: 2
Fore
SplineSet
30 234 m 0,0,1
 5 173 5 173 5 119 c 0,2,3
 5 17 5 17 95 -12 c 1,4,-1
 148 32 l 1,5,6
 71 79 71 79 71 169 c 0,7,8
 71 186 71 186 73 206 c 0,9,10
 80 262 80 262 104 286 c 128,-1,11
 128 310 128 310 192 321 c 1,12,13
 188 306 188 306 192 300 c 0,14,15
 206 279 206 279 274 285 c 0,16,17
 326 289 326 289 332 289 c 0,18,19
 365 289 365 289 365 276 c 0,20,21
 365 272 365 272 362 267 c 0,22,23
 356 257 356 257 316 233 c 1,24,25
 287 217 287 217 259 201 c 1,26,27
 188 157 188 157 173 146 c 0,28,29
 136 116 136 116 136 88 c 0,30,31
 136 64 136 64 161 40 c 0,32,33
 182 19 182 19 208 8 c 0,34,35
 242 -6 242 -6 275 -6 c 0,36,37
 287 -6 287 -6 308 -4 c 1,38,39
 326 -1 326 -1 334 -2 c 1,40,41
 265 -36 265 -36 265 -66 c 0,42,43
 265 -75 265 -75 270 -90 c 0,44,45
 283 -129 283 -129 320 -150 c 128,-1,46
 357 -171 357 -171 400 -171 c 0,47,48
 451 -171 451 -171 490.5 -142 c 128,-1,49
 530 -113 530 -113 539 -67 c 1,50,-1
 512 -40 l 1,51,52
 433 -103 433 -103 383 -103 c 0,53,54
 366 -103 366 -103 349 -97 c 0,55,56
 326 -89 326 -89 326 -76 c 0,57,58
 326 -55 326 -55 393 -16 c 0,59,60
 452 18 452 18 512 52 c 1,61,-1
 460 97 l 1,62,63
 376 57 376 57 308 57 c 0,64,65
 279 57 279 57 261 66 c 0,66,67
 237 78 237 78 237 94 c 0,68,69
 237 117 237 117 308 169 c 0,70,71
 383 225 383 225 384 226 c 0,72,73
 434 264 434 264 449 283 c 0,74,75
 458 295 458 295 458 307 c 0,76,77
 458 337 458 337 421 350 c 0,78,79
 391 361 391 361 359 357 c 0,80,81
 283 348 283 348 278 361 c 0,82,83
 275 370 275 370 285 382 c 1,84,-1
 229 382 l 1,85,86
 80 359 80 359 30 234 c 0,0,1
EndSplineSet
EndChar

StartChar: braceright
Encoding: 125 125 95
Width: 378
Flags: W
LayerCount: 2
Fore
SplineSet
111 292 m 1,0,1
 153 283 153 283 206 284 c 2,2,-1
 342 287 l 1,3,-1
 258 235 l 1,4,5
 223 239 223 239 153 241 c 0,6,7
 147 241 147 241 85 240 c 0,8,9
 63 240 63 240 27 239 c 1,10,-1
 111 292 l 1,0,1
111 211 m 1,11,12
 153 202 153 202 206 203 c 2,13,-1
 342 206 l 1,14,-1
 258 154 l 1,15,16
 223 158 223 158 153 160 c 0,17,18
 147 160 147 160 85 159 c 0,19,20
 63 159 63 159 27 158 c 1,21,-1
 111 211 l 1,11,12
EndSplineSet
EndChar

StartChar: asciitilde
Encoding: 126 126 96
Width: 655
Flags: W
LayerCount: 2
Fore
SplineSet
227 312 m 0,0,1
 234 302 234 302 257 300 c 1,2,3
 257 300 257 300 302 300 c 0,4,5
 336 300 336 300 347 297 c 0,6,7
 368 290 368 290 374 265 c 0,8,9
 378 249 378 249 333.5 209 c 128,-1,10
 289 169 289 169 250 148 c 1,11,12
 242 155 242 155 214.5 167 c 128,-1,13
 187 179 187 179 177 178 c 0,14,15
 154 175 154 175 131.5 142 c 128,-1,16
 109 109 109 109 109 87 c 0,17,18
 109 72 109 72 129 72 c 0,19,20
 159 72 159 72 196 97 c 1,21,22
 215 69 215 69 246.5 35.5 c 128,-1,23
 278 2 278 2 290 -3 c 0,24,25
 314 -14 314 -14 333.5 0.5 c 128,-1,26
 353 15 353 15 362 25 c 0,27,28
 378 42 378 42 397 73 c 1,29,30
 411 9 411 9 460 1 c 0,31,32
 476 -2 476 -2 490 -2 c 0,33,34
 572 -2 572 -2 603 91 c 0,35,36
 622 147 622 147 626 165 c 0,37,38
 635 205 635 205 635 259 c 0,39,40
 635 278 635 278 634 300 c 0,41,42
 626 479 626 479 486 504 c 0,43,44
 451 510 451 510 414 510 c 0,45,46
 321 510 321 510 250 474 c 1,47,-1
 220 404 l 1,48,49
 280 448 280 448 367 448 c 0,50,51
 417 448 417 448 462 432 c 0,52,53
 570 395 570 395 570 265 c 0,54,55
 570 231 570 231 563 188 c 0,56,57
 544 78 544 78 525 61 c 0,58,59
 520 57 520 57 506 52 c 1,60,61
 495 51 495 51 484 83 c 128,-1,62
 473 115 473 115 473 147 c 0,63,64
 473 158 473 158 475 166 c 1,65,-1
 394 151 l 1,66,67
 383 123 383 123 373 94 c 1,68,69
 354 53 354 53 336 53 c 0,70,71
 310 53 310 53 264 118 c 1,72,73
 361 154 361 154 401 189 c 0,74,75
 466 247 466 247 466 283 c 0,76,77
 466 303 466 303 444 331 c 0,78,79
 424 356 424 356 389 363 c 1,80,81
 358 365 358 365 303 375 c 0,82,83
 299 376 299 376 299 380 c 0,84,85
 299 385 299 385 308 396 c 1,86,-1
 257 396 l 1,87,88
 254 392 254 392 246 381 c 1,89,90
 243 382 243 382 233 382 c 0,91,92
 84 375 84 375 33 234 c 0,93,94
 10 170 10 170 10 116 c 0,95,96
 10 15 10 15 93 -12 c 1,97,-1
 141 32 l 1,98,99
 71 79 71 79 71 169 c 0,100,101
 71 186 71 186 73 206 c 0,102,103
 80 273 80 273 114 297 c 0,104,105
 141 316 141 316 224 327 c 1,106,107
 224 316 224 316 227 312 c 0,0,1
EndSplineSet
EndChar

StartChar: Adieresis
Encoding: 196 196 97
Width: 468
Flags: W
LayerCount: 2
Fore
SplineSet
75 145 m 1,0,1
 63 116 63 116 66 80 c 0,2,3
 68 50 68 50 87 50 c 0,4,5
 96 50 96 50 107 58 c 0,6,7
 130 74 130 74 132 127 c 0,8,9
 133 157 133 157 106 157 c 0,10,11
 91 157 91 157 75 145 c 1,0,1
397 194 m 0,13,14
 400 215 400 215 400 236 c 0,15,16
 400 310 400 310 367 360 c 0,17,18
 329 416 329 416 260 418 c 0,19,20
 248 418 248 418 191 410.5 c 128,-1,21
 134 403 134 403 101 403 c 0,22,23
 69 403 69 403 48 409 c 1,24,-1
 37 473 l 1,25,26
 65 460 65 460 77 460 c 0,27,28
 96 460 96 460 96 496 c 0,29,30
 96 594 96 594 227 593 c 0,31,32
 272 593 272 593 346.5 575 c 128,-1,33
 421 557 421 557 437 557 c 0,34,35
 443 557 443 557 448 558 c 1,36,-1
 415 489 l 1,37,38
 392 485 392 485 332 510 c 1,39,40
 268 538 268 538 224 537 c 0,41,42
 185 536 185 536 169 526 c 0,43,44
 149 512 149 512 150 473 c 1,45,46
 231 481 231 481 272 480 c 0,47,48
 451 475 451 475 451 265 c 0,49,50
 451 190 451 190 431 125 c 0,51,52
 409 52 409 52 368 17 c 0,53,54
 346 -2 346 -2 320 -2 c 0,55,56
 303 -2 303 -2 279 6.5 c 128,-1,57
 255 15 255 15 250 15 c 0,58,59
 237 15 237 15 241 -11 c 1,60,-1
 178 -11 l 1,61,62
 176 -5 176 -5 176 2 c 0,63,64
 176 29 176 29 210 81 c 0,65,66
 253 147 253 147 257 156 c 0,67,68
 271 189 271 189 271 214 c 0,69,70
 271 276 271 276 200 276 c 0,71,72
 122 276 122 276 83 213 c 1,73,74
 118 235 118 235 146 235 c 0,75,76
 169 235 169 235 185 219 c 0,77,78
 211 193 211 193 211 145 c 0,79,80
 211 108 211 108 196 74 c 0,81,82
 180 37 180 37 146 16 c 128,-1,83
 112 -5 112 -5 78 -5 c 0,84,85
 51 -5 51 -5 34 8 c 0,86,87
 11 25 11 25 11 93 c 0,88,89
 11 225 11 225 107 313 c 0,90,91
 162 363 162 363 248 357 c 0,92,93
 343 350 343 350 335 228 c 0,94,95
 333 204 333 204 296.5 141 c 128,-1,96
 260 78 260 78 258 64 c 1,97,98
 276 76 276 76 299 71 c 0,99,100
 312 68 312 68 321 68 c 0,101,102
 343 68 343 68 365.5 99 c 128,-1,12
 388 130 388 130 397 194 c 0,13,14
EndSplineSet
EndChar

StartChar: Aring
Encoding: 197 197 98
Width: 468
Flags: W
LayerCount: 2
Fore
SplineSet
75 145 m 1,0,1
 63 116 63 116 66 80 c 0,2,3
 68 50 68 50 87 50 c 0,4,5
 96 50 96 50 107 58 c 0,6,7
 130 74 130 74 132 127 c 0,8,9
 133 157 133 157 106 157 c 0,10,11
 91 157 91 157 75 145 c 1,0,1
397 194 m 0,12,13
 399 213 399 213 399 232 c 0,14,15
 399 308 399 308 366 359 c 0,16,17
 329 416 329 416 259 418 c 0,18,19
 239 419 239 419 196 415 c 128,-1,20
 153 411 153 411 134 411 c 0,21,22
 52 411 52 411 53 466 c 0,23,24
 54 533 54 533 112 568 c 0,25,26
 161 597 161 597 226 593 c 0,27,28
 269 591 269 591 345 573 c 0,29,30
 416 557 416 557 435 557 c 0,31,32
 442 557 442 557 447 558 c 1,33,-1
 414 489 l 1,34,35
 389 485 389 485 330 508 c 1,36,37
 263 536 263 536 223 539 c 0,38,39
 204 541 204 541 190 541 c 0,40,41
 121 541 121 541 125 501 c 0,42,43
 127 475 127 475 184 475 c 0,44,45
 201 475 201 475 232 477.5 c 128,-1,46
 263 480 263 480 271 480 c 0,47,48
 356 478 356 478 403 426 c 0,49,50
 447 378 447 378 450 298 c 0,51,52
 458 95 458 95 368 17 c 0,53,54
 346 -2 346 -2 320 -2 c 0,55,56
 303 -2 303 -2 279 6.5 c 128,-1,57
 255 15 255 15 250 15 c 0,58,59
 237 15 237 15 241 -11 c 1,60,-1
 178 -11 l 1,61,62
 176 -5 176 -5 176 2 c 0,63,64
 176 29 176 29 210 81 c 0,65,66
 253 147 253 147 257 156 c 0,67,68
 271 189 271 189 271 214 c 0,69,70
 271 276 271 276 200 276 c 0,71,72
 122 276 122 276 83 213 c 1,73,74
 118 235 118 235 146 235 c 0,75,76
 169 235 169 235 185 219 c 0,77,78
 211 193 211 193 211 145 c 0,79,80
 211 108 211 108 196 74 c 0,81,82
 180 37 180 37 146 16 c 128,-1,83
 112 -5 112 -5 78 -5 c 0,84,85
 51 -5 51 -5 34 8 c 0,86,87
 11 25 11 25 11 93 c 0,88,89
 11 225 11 225 107 313 c 0,90,91
 162 363 162 363 248 357 c 0,92,93
 343 350 343 350 335 228 c 0,94,95
 333 204 333 204 296.5 141 c 128,-1,96
 260 78 260 78 258 64 c 1,97,98
 276 76 276 76 299 71 c 0,99,100
 312 68 312 68 322 68 c 0,101,102
 344 68 344 68 365 99 c 0,103,104
 390 136 390 136 397 194 c 0,12,13
EndSplineSet
EndChar

StartChar: Ccedilla
Encoding: 199 199 99
Width: 468
Flags: W
LayerCount: 2
Fore
SplineSet
75 145 m 1,0,1
 63 116 63 116 66 80 c 0,2,3
 68 50 68 50 87 50 c 0,4,5
 96 50 96 50 107 58 c 0,6,7
 130 74 130 74 132 127 c 0,8,9
 133 157 133 157 106 157 c 0,10,11
 91 157 91 157 75 145 c 1,0,1
369 525 m 0,12,13
 356 547 356 547 280 549 c 1,14,15
 293 511 293 511 325 502 c 0,16,17
 337 499 337 499 346 499 c 0,18,19
 372 499 372 499 372 516 c 0,20,21
 372 520 372 520 369 525 c 0,12,13
400 238 m 0,22,23
 400 313 400 313 367 362 c 1,24,25
 329 416 329 416 260 418 c 0,26,27
 240 419 240 419 197 415 c 128,-1,28
 154 411 154 411 135 411 c 0,29,30
 53 411 53 411 54 466 c 0,31,32
 55 533 55 533 113 567 c 0,33,34
 159 594 159 594 227 596 c 0,35,36
 316 598 316 598 373 584 c 0,37,38
 452 564 452 564 448 515 c 0,39,40
 444 457 444 457 358 460 c 1,41,42
 451 413 451 413 451 264 c 0,43,44
 451 89 451 89 368 17 c 0,45,46
 346 -2 346 -2 320 -2 c 0,47,48
 303 -2 303 -2 279 6.5 c 128,-1,49
 255 15 255 15 250 15 c 0,50,51
 237 15 237 15 241 -11 c 1,52,-1
 178 -11 l 1,53,54
 176 -5 176 -5 176 2 c 0,55,56
 176 29 176 29 210 81 c 0,57,58
 253 147 253 147 257 156 c 0,59,60
 271 189 271 189 271 214 c 0,61,62
 271 276 271 276 200 276 c 0,63,64
 122 276 122 276 83 213 c 1,65,66
 118 235 118 235 146 235 c 0,67,68
 169 235 169 235 185 219 c 0,69,70
 211 193 211 193 211 145 c 0,71,72
 211 108 211 108 196 74 c 0,73,74
 180 37 180 37 146 16 c 128,-1,75
 112 -5 112 -5 78 -5 c 0,76,77
 51 -5 51 -5 34 8 c 0,78,79
 11 25 11 25 11 93 c 0,80,81
 11 225 11 225 107 313 c 0,82,83
 162 363 162 363 248 357 c 0,84,85
 343 350 343 350 335 228 c 0,86,87
 333 204 333 204 296.5 141 c 128,-1,88
 260 78 260 78 258 64 c 1,89,90
 276 76 276 76 299 71 c 0,91,92
 312 68 312 68 322 68 c 0,93,94
 344 68 344 68 365 99 c 0,95,96
 381 122 381 122 390.5 160 c 128,-1,97
 400 198 400 198 400 238 c 0,22,23
280 480 m 1,98,99
 231 506 231 506 227 548 c 1,100,101
 195 541 195 541 162 534 c 1,102,103
 113 519 113 519 119 494 c 0,104,105
 124 475 124 475 172 475 c 0,106,107
 188 475 188 475 224.5 477.5 c 128,-1,108
 261 480 261 480 280 480 c 1,98,99
EndSplineSet
EndChar

StartChar: Eacute
Encoding: 201 201 100
Width: 492
Flags: W
LayerCount: 2
Fore
SplineSet
476 298 m 0,0,1
 462 476 462 476 298 480 c 0,2,3
 257 481 257 481 176 473 c 1,4,5
 175 512 175 512 195 526 c 0,6,7
 211 536 211 536 250 537 c 0,8,9
 294 538 294 538 358 510 c 1,10,11
 418 485 418 485 441 489 c 1,12,-1
 474 558 l 1,13,14
 469 557 469 557 463 557 c 0,15,16
 447 557 447 557 372.5 575 c 128,-1,17
 298 593 298 593 253 593 c 0,18,19
 122 594 122 594 122 496 c 0,20,21
 122 460 122 460 103 460 c 0,22,23
 91 460 91 460 63 473 c 1,24,-1
 74 409 l 1,25,26
 95 403 95 403 127 403 c 0,27,28
 160 403 160 403 217 410.5 c 128,-1,29
 274 418 274 418 286 418 c 0,30,31
 352 416 352 416 393 365 c 1,32,33
 430 317 430 317 430 249 c 0,34,35
 430 221 430 221 423 194 c 0,36,37
 400 112 400 112 335 79 c 0,38,39
 299 61 299 61 262 61 c 0,40,41
 194 61 194 61 166 120 c 1,42,43
 224 152 224 152 265 189 c 0,44,45
 330 247 330 247 330 283 c 0,46,47
 330 303 330 303 308 331 c 0,48,49
 288 356 288 356 253 363 c 1,50,51
 222 365 222 365 167 375 c 0,52,53
 163 376 163 376 163 380 c 0,54,55
 163 385 163 385 172 396 c 1,56,-1
 121 396 l 1,57,58
 88 356 88 356 88 323 c 0,59,60
 88 303 88 303 120 300 c 1,61,62
 118 300 118 300 166 300 c 0,63,64
 200 300 200 300 211 297 c 0,65,66
 232 290 232 290 238 265 c 0,67,68
 242 249 242 249 204.5 209.5 c 128,-1,69
 167 170 167 170 130 150 c 1,70,71
 125 157 125 157 108 166 c 128,-1,72
 91 175 91 175 81 174 c 0,73,74
 55 171 55 171 16.5 125.5 c 128,-1,75
 -22 80 -22 80 -14 66 c 0,76,77
 -10 59 -10 59 3 59 c 0,78,79
 51 59 51 59 100 93 c 1,80,81
 102 68 102 68 105 44 c 0,82,83
 108 15 108 15 122 8 c 0,84,85
 156 -8 156 -8 215 -8 c 0,86,87
 312 -8 312 -8 364 28 c 0,88,89
 402 54 402 54 439 131 c 0,90,91
 482 221 482 221 476 298 c 0,0,1
EndSplineSet
EndChar

StartChar: Ntilde
Encoding: 209 209 101
Width: 492
Flags: W
LayerCount: 2
Fore
SplineSet
476 298 m 0,0,1
 462 476 462 476 298 480 c 0,2,3
 290 480 290 480 259 477.5 c 128,-1,4
 228 475 228 475 211 475 c 0,5,6
 154 475 154 475 152 501 c 0,7,8
 148 541 148 541 217 541 c 0,9,10
 231 541 231 541 250 539 c 0,11,12
 290 536 290 536 357 508 c 1,13,14
 416 485 416 485 441 489 c 1,15,-1
 474 558 l 1,16,17
 469 557 469 557 462 557 c 0,18,19
 443 557 443 557 372 573 c 0,20,21
 296 591 296 591 253 593 c 0,22,23
 188 597 188 597 139 568 c 0,24,25
 81 533 81 533 80 466 c 0,26,27
 79 411 79 411 161 411 c 0,28,29
 180 411 180 411 223 415 c 128,-1,30
 266 419 266 419 286 418 c 0,31,32
 352 416 352 416 393 365 c 1,33,34
 430 317 430 317 430 249 c 0,35,36
 430 221 430 221 423 194 c 0,37,38
 400 112 400 112 335 79 c 0,39,40
 299 61 299 61 262 61 c 0,41,42
 194 61 194 61 166 120 c 1,43,44
 224 152 224 152 265 189 c 0,45,46
 330 247 330 247 330 283 c 0,47,48
 330 303 330 303 308 331 c 0,49,50
 288 356 288 356 253 363 c 1,51,52
 222 365 222 365 167 375 c 0,53,54
 163 376 163 376 163 380 c 0,55,56
 163 385 163 385 172 396 c 1,57,-1
 121 396 l 1,58,59
 88 356 88 356 88 323 c 0,60,61
 88 303 88 303 120 300 c 1,62,63
 118 300 118 300 166 300 c 0,64,65
 200 300 200 300 211 297 c 0,66,67
 232 290 232 290 238 265 c 0,68,69
 242 249 242 249 204.5 209.5 c 128,-1,70
 167 170 167 170 130 150 c 1,71,72
 125 157 125 157 108 166 c 128,-1,73
 91 175 91 175 81 174 c 0,74,75
 55 171 55 171 16.5 125.5 c 128,-1,76
 -22 80 -22 80 -14 66 c 0,77,78
 -10 59 -10 59 3 59 c 0,79,80
 51 59 51 59 100 93 c 1,81,82
 102 68 102 68 105 44 c 0,83,84
 108 15 108 15 122 8 c 0,85,86
 156 -8 156 -8 215 -8 c 0,87,88
 312 -8 312 -8 364 28 c 0,89,90
 402 54 402 54 439 131 c 0,91,92
 482 221 482 221 476 298 c 0,0,1
EndSplineSet
EndChar

StartChar: Odieresis
Encoding: 214 214 102
Width: 492
Flags: W
LayerCount: 2
Fore
SplineSet
395 525 m 0,0,1
 382 547 382 547 306 549 c 1,2,3
 319 511 319 511 351 502 c 0,4,5
 363 499 363 499 372 499 c 0,6,7
 398 499 398 499 398 516 c 0,8,9
 398 520 398 520 395 525 c 0,0,1
476 298 m 0,10,11
 482 221 482 221 439 131 c 0,12,13
 402 54 402 54 364 28 c 0,14,15
 312 -8 312 -8 215 -8 c 0,16,17
 156 -8 156 -8 122 8 c 0,18,19
 108 15 108 15 105 44 c 0,20,21
 102 68 102 68 100 93 c 1,22,23
 51 59 51 59 3 59 c 0,24,25
 -10 59 -10 59 -14 66 c 0,26,27
 -22 80 -22 80 16.5 125.5 c 128,-1,28
 55 171 55 171 81 174 c 0,29,30
 91 175 91 175 108 166 c 128,-1,31
 125 157 125 157 130 150 c 1,32,33
 167 170 167 170 204.5 209.5 c 128,-1,34
 242 249 242 249 238 265 c 0,35,36
 232 290 232 290 211 297 c 0,37,38
 200 300 200 300 166 300 c 0,39,40
 118 300 118 300 120 300 c 1,41,42
 88 303 88 303 88 323 c 0,43,44
 88 356 88 356 121 396 c 1,45,-1
 172 396 l 1,46,47
 163 385 163 385 163 380 c 0,48,49
 163 376 163 376 167 375 c 0,50,51
 180 370 180 370 205 368 c 0,52,53
 237 366 237 366 253 363 c 0,54,55
 288 356 288 356 308 331 c 0,56,57
 330 303 330 303 330 283 c 0,58,59
 330 247 330 247 265 189 c 0,60,61
 224 152 224 152 166 120 c 1,62,63
 194 61 194 61 262 61 c 0,64,65
 299 61 299 61 335 79 c 0,66,67
 400 112 400 112 423 194 c 0,68,69
 430 221 430 221 430 249 c 0,70,71
 430 317 430 317 393 365 c 1,72,73
 352 416 352 416 286 418 c 0,74,75
 266 419 266 419 223 415 c 128,-1,76
 180 411 180 411 161 411 c 0,77,78
 79 411 79 411 80 466 c 0,79,80
 81 533 81 533 139 567 c 0,81,82
 185 594 185 594 253 596 c 0,83,84
 342 598 342 598 399 584 c 0,85,86
 478 564 478 564 474 515 c 0,87,88
 470 457 470 457 384 460 c 1,89,90
 467 419 467 419 476 298 c 0,10,11
306 480 m 1,91,92
 257 506 257 506 253 548 c 1,93,94
 221 541 221 541 188 534 c 1,95,96
 139 519 139 519 145 494 c 0,97,98
 150 475 150 475 198 475 c 0,99,100
 214 475 214 475 250.5 477.5 c 128,-1,101
 287 480 287 480 306 480 c 1,91,92
EndSplineSet
EndChar

StartChar: Udieresis
Encoding: 220 220 103
Width: 438
Flags: W
LayerCount: 2
Fore
SplineSet
248 480 m 0,0,1
 207 481 207 481 126 473 c 1,2,3
 125 512 125 512 145 526 c 0,4,5
 161 536 161 536 200 537 c 0,6,7
 244 538 244 538 308 510 c 1,8,9
 368 485 368 485 391 489 c 1,10,-1
 424 558 l 1,11,12
 419 557 419 557 413 557 c 0,13,14
 397 557 397 557 322.5 575 c 128,-1,15
 248 593 248 593 203 593 c 0,16,17
 72 594 72 594 72 496 c 0,18,19
 72 460 72 460 53 460 c 0,20,21
 41 460 41 460 13 473 c 1,22,-1
 24 409 l 1,23,24
 45 403 45 403 77 403 c 0,25,26
 110 403 110 403 167 410.5 c 128,-1,27
 224 418 224 418 236 418 c 0,28,29
 302 416 302 416 343 365 c 1,30,31
 380 317 380 317 380 249 c 0,32,33
 380 221 380 221 373 194 c 0,34,35
 350 112 350 112 285 79 c 0,36,37
 238 55 238 55 186 55 c 0,38,39
 149 55 149 55 126 68 c 0,40,41
 68 101 68 101 68 125 c 0,42,43
 68 150 68 150 111 187 c 0,44,45
 211 273 211 273 231 325 c 1,46,-1
 168 363 l 1,47,48
 145 324 145 324 117 294 c 1,49,50
 86 263 86 263 56 232 c 0,51,52
 10 183 10 183 10 132 c 0,53,54
 10 108 10 108 20 82 c 0,55,56
 39 33 39 33 84 12 c 0,57,58
 121 -5 121 -5 180 -5 c 0,59,60
 266 -5 266 -5 314 28 c 0,61,62
 352 54 352 54 389 131 c 0,63,64
 432 221 432 221 426 298 c 0,65,66
 412 476 412 476 248 480 c 0,0,1
EndSplineSet
EndChar

StartChar: aacute
Encoding: 225 225 104
Width: 438
Flags: W
LayerCount: 2
Fore
SplineSet
248 480 m 0,0,1
 240 480 240 480 209 477.5 c 128,-1,2
 178 475 178 475 161 475 c 0,3,4
 104 475 104 475 102 501 c 0,5,6
 98 541 98 541 167 541 c 0,7,8
 181 541 181 541 200 539 c 0,9,10
 240 536 240 536 307 508 c 1,11,12
 366 485 366 485 391 489 c 1,13,-1
 424 558 l 1,14,15
 419 557 419 557 412 557 c 0,16,17
 393 557 393 557 322 573 c 0,18,19
 246 591 246 591 203 593 c 0,20,21
 138 597 138 597 89 568 c 0,22,23
 31 533 31 533 30 466 c 0,24,25
 29 411 29 411 111 411 c 0,26,27
 130 411 130 411 173 415 c 128,-1,28
 216 419 216 419 236 418 c 0,29,30
 302 416 302 416 343 365 c 1,31,32
 380 317 380 317 380 249 c 0,33,34
 380 221 380 221 373 194 c 0,35,36
 350 112 350 112 285 79 c 0,37,38
 238 55 238 55 186 55 c 0,39,40
 149 55 149 55 126 68 c 0,41,42
 68 101 68 101 68 125 c 0,43,44
 68 150 68 150 111 187 c 0,45,46
 211 273 211 273 231 325 c 1,47,-1
 168 363 l 1,48,49
 145 324 145 324 117 294 c 1,50,51
 86 263 86 263 56 232 c 0,52,53
 10 183 10 183 10 132 c 0,54,55
 10 108 10 108 20 82 c 0,56,57
 39 33 39 33 84 12 c 0,58,59
 121 -5 121 -5 180 -5 c 0,60,61
 266 -5 266 -5 314 28 c 0,62,63
 352 54 352 54 389 131 c 0,64,65
 432 221 432 221 426 298 c 0,66,67
 412 476 412 476 248 480 c 0,0,1
EndSplineSet
EndChar

StartChar: agrave
Encoding: 224 224 105
Width: 438
Flags: W
LayerCount: 2
Fore
SplineSet
334 460 m 1,0,1
 417 419 417 419 426 298 c 0,2,3
 432 221 432 221 389 131 c 0,4,5
 352 54 352 54 314 28 c 0,6,7
 266 -5 266 -5 180 -5 c 0,8,9
 121 -5 121 -5 84 12 c 0,10,11
 39 33 39 33 20 82 c 0,12,13
 10 108 10 108 10 132 c 0,14,15
 10 183 10 183 56 232 c 0,16,17
 86 263 86 263 117 294 c 1,18,19
 145 324 145 324 168 363 c 1,20,-1
 231 325 l 1,21,22
 211 273 211 273 111 187 c 0,23,24
 68 150 68 150 68 125 c 0,25,26
 68 101 68 101 126 68 c 0,27,28
 149 55 149 55 186 55 c 0,29,30
 238 55 238 55 285 79 c 0,31,32
 350 112 350 112 373 194 c 0,33,34
 380 221 380 221 380 249 c 0,35,36
 380 317 380 317 343 365 c 1,37,38
 302 416 302 416 236 418 c 0,39,40
 216 419 216 419 173 415 c 128,-1,41
 130 411 130 411 111 411 c 0,42,43
 29 411 29 411 30 466 c 0,44,45
 31 533 31 533 89 567 c 0,46,47
 135 594 135 594 203 596 c 0,48,49
 292 598 292 598 349 584 c 0,50,51
 428 564 428 564 424 515 c 0,52,53
 420 457 420 457 334 460 c 1,0,1
345 525 m 0,54,55
 332 547 332 547 256 549 c 1,56,57
 269 511 269 511 301 502 c 0,58,59
 313 499 313 499 322 499 c 0,60,61
 348 499 348 499 348 516 c 0,62,63
 348 520 348 520 345 525 c 0,54,55
256 480 m 1,64,65
 207 506 207 506 203 548 c 1,66,67
 171 541 171 541 138 534 c 1,68,69
 89 519 89 519 95 494 c 0,70,71
 100 475 100 475 148 475 c 0,72,73
 164 475 164 475 200.5 477.5 c 128,-1,74
 237 480 237 480 256 480 c 1,64,65
EndSplineSet
EndChar

StartChar: acircumflex
Encoding: 226 226 106
Width: 526
Flags: W
LayerCount: 2
Fore
SplineSet
399 61 m 0,0,1
 394 57 394 57 380 52 c 1,2,3
 369 51 369 51 358 83 c 128,-1,4
 347 115 347 115 347 147 c 0,5,6
 347 158 347 158 349 166 c 1,7,-1
 268 151 l 1,8,9
 257 123 257 123 247 94 c 1,10,11
 228 53 228 53 210 53 c 0,12,13
 184 53 184 53 138 118 c 1,14,15
 235 154 235 154 275 189 c 0,16,17
 340 247 340 247 340 283 c 0,18,19
 340 303 340 303 318 331 c 0,20,21
 298 356 298 356 263 363 c 1,22,23
 232 365 232 365 177 375 c 0,24,25
 173 376 173 376 173 380 c 0,26,27
 173 385 173 385 182 396 c 1,28,-1
 131 396 l 1,29,30
 98 356 98 356 98 323 c 0,31,32
 98 303 98 303 130 300 c 1,33,34
 128 300 128 300 176 300 c 0,35,36
 210 300 210 300 221 297 c 0,37,38
 242 290 242 290 248 265 c 0,39,40
 252 249 252 249 207.5 209 c 128,-1,41
 163 169 163 169 124 148 c 1,42,43
 116 155 116 155 88.5 167 c 128,-1,44
 61 179 61 179 51 178 c 0,45,46
 28 175 28 175 5.5 142 c 128,-1,47
 -17 109 -17 109 -17 87 c 0,48,49
 -17 72 -17 72 3 72 c 0,50,51
 33 72 33 72 70 97 c 1,52,53
 89 69 89 69 120.5 35.5 c 128,-1,54
 152 2 152 2 164 -3 c 0,55,56
 188 -14 188 -14 207.5 0.5 c 128,-1,57
 227 15 227 15 236 25 c 0,58,59
 252 42 252 42 271 73 c 1,60,61
 285 9 285 9 334 1 c 0,62,63
 349 -2 349 -2 363 -2 c 0,64,65
 440 -2 440 -2 477 91 c 0,66,67
 509 171 509 171 509 256 c 0,68,69
 509 276 509 276 508 298 c 0,70,71
 498 476 498 476 331 480 c 0,72,73
 290 481 290 481 209 473 c 1,74,75
 208 512 208 512 228 526 c 0,76,77
 244 536 244 536 283 537 c 0,78,79
 327 538 327 538 391 510 c 1,80,81
 451 485 451 485 474 489 c 1,82,-1
 507 558 l 1,83,84
 502 557 502 557 496 557 c 0,85,86
 480 557 480 557 405.5 575 c 128,-1,87
 331 593 331 593 286 593 c 0,88,89
 155 594 155 594 155 496 c 0,90,91
 155 460 155 460 136 460 c 0,92,93
 124 460 124 460 96 473 c 1,94,-1
 107 409 l 1,95,96
 128 403 128 403 160 403 c 0,97,98
 193 403 193 403 250 410.5 c 128,-1,99
 307 418 307 418 319 418 c 0,100,101
 384 416 384 416 417 365 c 0,102,103
 445 321 445 321 445 249 c 0,104,105
 445 208 445 208 432 147 c 0,106,107
 418 77 418 77 399 61 c 0,0,1
EndSplineSet
EndChar

StartChar: adieresis
Encoding: 228 228 107
Width: 526
Flags: W
LayerCount: 2
Fore
SplineSet
443 196 m 0,0,1
 437 151 437 151 423.5 111 c 128,-1,2
 410 71 410 71 399 61 c 0,3,4
 394 57 394 57 380 52 c 1,5,6
 369 51 369 51 358 83 c 128,-1,7
 347 115 347 115 347 147 c 0,8,9
 347 158 347 158 349 166 c 1,10,-1
 268 151 l 1,11,12
 257 123 257 123 247 94 c 1,13,14
 228 53 228 53 210 53 c 0,15,16
 184 53 184 53 138 118 c 1,17,18
 235 154 235 154 275 189 c 0,19,20
 340 247 340 247 340 283 c 0,21,22
 340 303 340 303 318 331 c 0,23,24
 298 356 298 356 263 363 c 1,25,26
 232 365 232 365 177 375 c 0,27,28
 173 376 173 376 173 380 c 0,29,30
 173 385 173 385 182 396 c 1,31,-1
 131 396 l 1,32,33
 98 356 98 356 98 323 c 0,34,35
 98 303 98 303 130 300 c 1,36,37
 128 300 128 300 176 300 c 0,38,39
 210 300 210 300 221 297 c 0,40,41
 242 290 242 290 248 265 c 0,42,43
 252 249 252 249 207.5 209 c 128,-1,44
 163 169 163 169 124 148 c 1,45,46
 116 155 116 155 88.5 167 c 128,-1,47
 61 179 61 179 51 178 c 0,48,49
 28 175 28 175 5.5 142 c 128,-1,50
 -17 109 -17 109 -17 87 c 0,51,52
 -17 72 -17 72 3 72 c 0,53,54
 33 72 33 72 70 97 c 1,55,56
 89 69 89 69 120.5 35.5 c 128,-1,57
 152 2 152 2 164 -3 c 0,58,59
 188 -14 188 -14 207.5 0.5 c 128,-1,60
 227 15 227 15 236 25 c 0,61,62
 252 42 252 42 271 73 c 1,63,64
 285 9 285 9 334 1 c 0,65,66
 349 -2 349 -2 363 -2 c 0,67,68
 440 -2 440 -2 477 91 c 0,69,70
 509 171 509 171 509 263 c 0,71,72
 509 280 509 280 508 298 c 0,73,74
 503 374 503 374 461 423 c 0,75,76
 413 478 413 478 330 480 c 0,77,78
 322 480 322 480 291 477.5 c 128,-1,79
 260 475 260 475 243 475 c 0,80,81
 186 475 186 475 184 501 c 0,82,83
 180 541 180 541 249 541 c 0,84,85
 263 541 263 541 282 539 c 0,86,87
 322 536 322 536 389 508 c 1,88,89
 448 485 448 485 473 489 c 1,90,-1
 506 558 l 1,91,92
 501 557 501 557 494 557 c 0,93,94
 475 557 475 557 404 573 c 0,95,96
 328 591 328 591 285 593 c 0,97,98
 220 597 220 597 171 568 c 0,99,100
 113 533 113 533 112 466 c 0,101,102
 111 411 111 411 193 411 c 0,103,104
 212 411 212 411 255 415 c 128,-1,105
 298 419 298 419 318 418 c 0,106,107
 384 416 384 416 418 363 c 0,108,109
 446 318 446 318 446 245 c 0,110,111
 446 221 446 221 443 196 c 0,0,1
EndSplineSet
EndChar

StartChar: atilde
Encoding: 227 227 108
Width: 526
Flags: W
LayerCount: 2
Fore
SplineSet
427 525 m 0,0,1
 414 547 414 547 338 549 c 1,2,3
 351 511 351 511 383 502 c 0,4,5
 395 499 395 499 404 499 c 0,6,7
 430 499 430 499 430 516 c 0,8,9
 430 520 430 520 427 525 c 0,0,1
318 418 m 0,10,11
 298 419 298 419 255 415 c 128,-1,12
 212 411 212 411 193 411 c 0,13,14
 111 411 111 411 112 466 c 0,15,16
 113 533 113 533 171 567 c 0,17,18
 217 594 217 594 285 596 c 0,19,20
 374 598 374 598 431 584 c 0,21,22
 510 564 510 564 506 515 c 0,23,24
 502 457 502 457 416 460 c 1,25,26
 506 415 506 415 509 298 c 0,27,28
 512 179 512 179 477 91 c 0,29,30
 440 -2 440 -2 363 -2 c 0,31,32
 349 -2 349 -2 334 1 c 0,33,34
 285 9 285 9 271 73 c 1,35,36
 244 27 244 27 208 1 c 0,37,38
 188 -14 188 -14 164 -3 c 0,39,40
 152 2 152 2 120.5 35.5 c 128,-1,41
 89 69 89 69 70 97 c 1,42,43
 33 72 33 72 3 72 c 0,44,45
 -17 72 -17 72 -17 87 c 0,46,47
 -17 109 -17 109 5.5 142 c 128,-1,48
 28 175 28 175 51 178 c 0,49,50
 61 179 61 179 88.5 167 c 128,-1,51
 116 155 116 155 124 148 c 1,52,53
 163 169 163 169 207.5 209 c 128,-1,54
 252 249 252 249 248 265 c 0,55,56
 242 290 242 290 221 297 c 0,57,58
 210 300 210 300 176 300 c 0,59,60
 128 300 128 300 130 300 c 1,61,62
 98 303 98 303 98 323 c 0,63,64
 98 356 98 356 131 396 c 1,65,-1
 182 396 l 1,66,67
 173 385 173 385 173 380 c 0,68,69
 173 376 173 376 177 375 c 0,70,71
 190 370 190 370 215 368 c 0,72,73
 247 366 247 366 263 363 c 0,74,75
 298 356 298 356 318 331 c 0,76,77
 340 303 340 303 340 283 c 0,78,79
 340 247 340 247 275 189 c 0,80,81
 235 154 235 154 138 118 c 1,82,83
 184 53 184 53 210 53 c 0,84,85
 228 53 228 53 247 94 c 1,86,87
 257 123 257 123 268 151 c 1,88,-1
 349 166 l 1,89,90
 347 158 347 158 347 147 c 0,91,92
 347 115 347 115 358 83 c 128,-1,93
 369 51 369 51 380 52 c 0,94,95
 388 53 388 53 399.5 63 c 128,-1,96
 411 73 411 73 425 118 c 128,-1,97
 439 163 439 163 443 199 c 0,98,99
 445 222 445 222 445 244 c 0,100,101
 445 415 445 415 318 418 c 0,10,11
338 480 m 1,102,103
 289 506 289 506 285 548 c 1,104,105
 253 541 253 541 220 534 c 1,106,107
 171 519 171 519 177 494 c 0,108,109
 182 475 182 475 230 475 c 0,110,111
 246 475 246 475 282.5 477.5 c 128,-1,112
 319 480 319 480 338 480 c 1,102,103
EndSplineSet
EndChar

StartChar: aring
Encoding: 229 229 109
Width: 655
Flags: W
LayerCount: 2
Fore
SplineSet
525 61 m 0,0,1
 520 57 520 57 506 52 c 1,2,3
 495 51 495 51 484 83 c 128,-1,4
 473 115 473 115 473 147 c 0,5,6
 473 158 473 158 475 166 c 1,7,-1
 394 151 l 1,8,9
 383 123 383 123 373 94 c 1,10,11
 354 53 354 53 336 53 c 0,12,13
 310 53 310 53 264 118 c 1,14,15
 361 154 361 154 401 189 c 0,16,17
 466 247 466 247 466 283 c 0,18,19
 466 303 466 303 444 331 c 0,20,21
 424 356 424 356 389 363 c 1,22,23
 358 365 358 365 303 375 c 0,24,25
 299 376 299 376 299 380 c 0,26,27
 299 385 299 385 308 396 c 1,28,-1
 257 396 l 1,29,30
 254 392 254 392 246 381 c 1,31,32
 243 382 243 382 233 382 c 0,33,34
 84 375 84 375 33 234 c 0,35,36
 10 170 10 170 10 116 c 0,37,38
 10 15 10 15 93 -12 c 1,39,-1
 141 32 l 1,40,41
 71 77 71 77 71 168 c 0,42,43
 71 185 71 185 73 206 c 0,44,45
 80 273 80 273 114 297 c 0,46,47
 141 316 141 316 224 327 c 1,48,49
 224 316 224 316 227 312 c 0,50,51
 234 302 234 302 257 300 c 1,52,53
 257 300 257 300 302 300 c 0,54,55
 336 300 336 300 347 297 c 0,56,57
 368 290 368 290 374 265 c 0,58,59
 378 249 378 249 333.5 209 c 128,-1,60
 289 169 289 169 250 148 c 1,61,62
 242 155 242 155 214.5 167 c 128,-1,63
 187 179 187 179 177 178 c 0,64,65
 154 175 154 175 131.5 142 c 128,-1,66
 109 109 109 109 109 87 c 0,67,68
 109 72 109 72 129 72 c 0,69,70
 159 72 159 72 196 97 c 1,71,72
 215 69 215 69 246.5 35.5 c 128,-1,73
 278 2 278 2 290 -3 c 0,74,75
 314 -14 314 -14 333.5 0.5 c 128,-1,76
 353 15 353 15 362 25 c 0,77,78
 378 42 378 42 397 73 c 1,79,80
 411 9 411 9 460 1 c 0,81,82
 476 -2 476 -2 490 -2 c 0,83,84
 572 -2 572 -2 603 91 c 0,85,86
 640 200 640 200 634 298 c 0,87,88
 624 476 624 476 458 480 c 0,89,90
 417 481 417 481 336 473 c 1,91,92
 335 512 335 512 355 526 c 0,93,94
 371 536 371 536 410 537 c 0,95,96
 454 538 454 538 518 510 c 1,97,98
 578 485 578 485 601 489 c 1,99,-1
 634 558 l 1,100,101
 629 557 629 557 623 557 c 0,102,103
 607 557 607 557 532.5 575 c 128,-1,104
 458 593 458 593 413 593 c 0,105,106
 282 594 282 594 282 496 c 0,107,108
 282 460 282 460 263 460 c 0,109,110
 251 460 251 460 223 473 c 1,111,-1
 234 409 l 1,112,113
 255 403 255 403 287 403 c 0,114,115
 320 403 320 403 377 410.5 c 128,-1,116
 434 418 434 418 446 418 c 0,117,118
 566 415 566 415 566 248 c 0,119,120
 566 204 566 204 556 147 c 0,121,122
 543 77 543 77 525 61 c 0,0,1
EndSplineSet
EndChar

StartChar: ccedilla
Encoding: 231 231 110
Width: 655
Flags: W
LayerCount: 2
Fore
SplineSet
525 61 m 0,0,1
 520 57 520 57 506 52 c 1,2,3
 495 51 495 51 484 83 c 128,-1,4
 473 115 473 115 473 147 c 0,5,6
 473 158 473 158 475 166 c 1,7,-1
 394 151 l 1,8,9
 383 123 383 123 373 94 c 1,10,11
 354 53 354 53 336 53 c 0,12,13
 310 53 310 53 264 118 c 1,14,15
 361 154 361 154 401 189 c 0,16,17
 466 247 466 247 466 283 c 0,18,19
 466 303 466 303 444 331 c 0,20,21
 424 356 424 356 389 363 c 1,22,23
 358 365 358 365 303 375 c 0,24,25
 299 376 299 376 299 380 c 0,26,27
 299 385 299 385 308 396 c 1,28,-1
 257 396 l 1,29,30
 254 392 254 392 246 381 c 1,31,32
 243 382 243 382 233 382 c 0,33,34
 84 375 84 375 33 234 c 0,35,36
 10 170 10 170 10 116 c 0,37,38
 10 15 10 15 93 -12 c 1,39,-1
 141 32 l 1,40,41
 71 77 71 77 71 168 c 0,42,43
 71 185 71 185 73 206 c 0,44,45
 80 273 80 273 114 297 c 0,46,47
 141 316 141 316 224 327 c 1,48,49
 224 316 224 316 227 312 c 0,50,51
 234 302 234 302 257 300 c 1,52,53
 257 300 257 300 302 300 c 0,54,55
 336 300 336 300 347 297 c 0,56,57
 368 290 368 290 374 265 c 0,58,59
 378 249 378 249 333.5 209 c 128,-1,60
 289 169 289 169 250 148 c 1,61,62
 242 155 242 155 214.5 167 c 128,-1,63
 187 179 187 179 177 178 c 0,64,65
 154 175 154 175 131.5 142 c 128,-1,66
 109 109 109 109 109 87 c 0,67,68
 109 72 109 72 129 72 c 0,69,70
 159 72 159 72 196 97 c 1,71,72
 215 69 215 69 246.5 35.5 c 128,-1,73
 278 2 278 2 290 -3 c 0,74,75
 314 -14 314 -14 333.5 0.5 c 128,-1,76
 353 15 353 15 362 25 c 0,77,78
 378 42 378 42 397 73 c 1,79,80
 411 9 411 9 460 1 c 0,81,82
 476 -2 476 -2 490 -2 c 0,83,84
 572 -2 572 -2 603.5 92 c 128,-1,85
 635 186 635 186 635 266 c 0,86,87
 635 359 635 359 594 414 c 1,88,89
 548 478 548 478 457 480 c 0,90,91
 449 480 449 480 418 477.5 c 128,-1,92
 387 475 387 475 370 475 c 0,93,94
 313 475 313 475 311 501 c 0,95,96
 307 541 307 541 376 541 c 0,97,98
 390 541 390 541 409 539 c 0,99,100
 449 536 449 536 516 508 c 1,101,102
 575 485 575 485 600 489 c 1,103,-1
 633 558 l 1,104,105
 628 557 628 557 621 557 c 0,106,107
 602 557 602 557 531 573 c 0,108,109
 455 591 455 591 412 593 c 0,110,111
 347 597 347 597 298 568 c 0,112,113
 240 533 240 533 239 466 c 0,114,115
 238 411 238 411 320 411 c 0,116,117
 339 411 339 411 382 415 c 128,-1,118
 425 419 425 419 445 418 c 0,119,120
 567 415 567 415 567 245 c 0,121,122
 567 204 567 204 556 146 c 0,123,124
 543 76 543 76 525 61 c 0,0,1
EndSplineSet
EndChar

StartChar: eacute
Encoding: 233 233 111
Width: 655
Flags: W
LayerCount: 2
Fore
SplineSet
553 525 m 0,0,1
 540 547 540 547 464 549 c 1,2,3
 477 511 477 511 509 502 c 0,4,5
 521 499 521 499 530 499 c 0,6,7
 556 499 556 499 556 516 c 0,8,9
 556 520 556 520 553 525 c 0,0,1
564 198 m 0,10,11
 566 223 566 223 566 246 c 0,12,13
 566 415 566 415 444 418 c 0,14,15
 424 419 424 419 381 415 c 128,-1,16
 338 411 338 411 319 411 c 0,17,18
 237 411 237 411 238 466 c 0,19,20
 239 533 239 533 297 567 c 0,21,22
 343 594 343 594 411 596 c 0,23,24
 500 598 500 598 557 584 c 0,25,26
 636 564 636 564 632 515 c 0,27,28
 628 457 628 457 542 460 c 1,29,30
 631 415 631 415 635 298 c 0,31,32
 638 196 638 196 603 91 c 0,33,34
 572 -2 572 -2 490 -2 c 0,35,36
 476 -2 476 -2 460 1 c 0,37,38
 411 9 411 9 397 73 c 1,39,40
 370 27 370 27 334 1 c 0,41,42
 314 -14 314 -14 290 -3 c 0,43,44
 278 2 278 2 246.5 35.5 c 128,-1,45
 215 69 215 69 196 97 c 1,46,47
 159 72 159 72 129 72 c 0,48,49
 109 72 109 72 109 87 c 0,50,51
 109 109 109 109 131.5 142 c 128,-1,52
 154 175 154 175 177 178 c 0,53,54
 187 179 187 179 214.5 167 c 128,-1,55
 242 155 242 155 250 148 c 1,56,57
 289 169 289 169 333.5 209 c 128,-1,58
 378 249 378 249 374 265 c 0,59,60
 368 290 368 290 347 297 c 0,61,62
 336 300 336 300 302 300 c 0,63,64
 257 300 257 300 257 300 c 1,65,66
 234 302 234 302 227 312 c 0,67,68
 224 316 224 316 224 327 c 1,69,70
 141 316 141 316 114 297 c 0,71,72
 80 273 80 273 73 206 c 0,73,74
 71 185 71 185 71 168 c 0,75,76
 71 77 71 77 141 32 c 1,77,-1
 93 -12 l 1,78,79
 10 15 10 15 10 116 c 0,80,81
 10 170 10 170 33 234 c 0,82,83
 84 375 84 375 233 382 c 0,84,85
 243 382 243 382 246 381 c 1,86,87
 249 385 249 385 257 396 c 1,88,-1
 308 396 l 1,89,90
 299 385 299 385 299 380 c 0,91,92
 299 376 299 376 303 375 c 0,93,94
 316 370 316 370 341 368 c 0,95,96
 373 366 373 366 389 363 c 0,97,98
 424 356 424 356 444 331 c 0,99,100
 466 303 466 303 466 283 c 0,101,102
 466 247 466 247 401 189 c 0,103,104
 361 154 361 154 264 118 c 1,105,106
 310 53 310 53 336 53 c 0,107,108
 354 53 354 53 373 94 c 1,109,110
 383 123 383 123 394 151 c 1,111,-1
 475 166 l 1,112,113
 473 158 473 158 473 147 c 0,114,115
 473 115 473 115 484 83 c 128,-1,116
 495 51 495 51 506 52 c 0,117,118
 516 53 516 53 526 62 c 128,-1,119
 536 71 536 71 548 112.5 c 128,-1,120
 560 154 560 154 564 198 c 0,10,11
464 480 m 1,121,122
 415 506 415 506 411 548 c 1,123,124
 379 541 379 541 346 534 c 1,125,126
 297 519 297 519 303 494 c 0,127,128
 308 475 308 475 356 475 c 0,129,130
 372 475 372 475 408.5 477.5 c 128,-1,131
 445 480 445 480 464 480 c 1,121,122
EndSplineSet
EndChar

StartChar: egrave
Encoding: 232 232 112
Width: 438
Flags: W
LayerCount: 2
Fore
SplineSet
248 480 m 0,0,1
 207 481 207 481 126 473 c 1,2,3
 125 512 125 512 145 526 c 0,4,5
 161 536 161 536 200 537 c 0,6,7
 244 538 244 538 308 510 c 1,8,9
 368 485 368 485 391 489 c 1,10,-1
 424 558 l 1,11,12
 419 557 419 557 413 557 c 0,13,14
 397 557 397 557 322.5 575 c 128,-1,15
 248 593 248 593 203 593 c 0,16,17
 72 594 72 594 72 496 c 0,18,19
 72 460 72 460 53 460 c 0,20,21
 41 460 41 460 13 473 c 1,22,-1
 24 409 l 1,23,24
 45 403 45 403 77 403 c 0,25,26
 110 403 110 403 167 410.5 c 128,-1,27
 224 418 224 418 236 418 c 0,28,29
 302 416 302 416 343 365 c 1,30,31
 380 317 380 317 380 249 c 0,32,33
 380 221 380 221 373 194 c 0,34,35
 356 134 356 134 350 121 c 0,36,37
 334 85 334 85 301 69 c 0,38,39
 294 65 294 65 287 65 c 0,40,41
 250 65 250 65 250 171 c 0,42,43
 250 193 250 193 252 212 c 1,44,-1
 183 197 l 1,45,46
 178 74 178 74 134 46 c 0,47,48
 118 36 118 36 95 44 c 0,49,50
 80 49 80 49 80 74 c 0,51,52
 80 123 80 123 134 229 c 0,53,54
 183 325 183 325 227 378 c 1,55,-1
 134 378 l 1,56,57
 86 307 86 307 30 176 c 0,58,59
 7 123 7 123 7 85 c 0,60,61
 7 45 7 45 34 22 c 0,62,63
 44 14 44 14 79 -3 c 0,64,65
 90 -8 90 -8 109 -7 c 0,66,67
 128 -5 128 -5 137 1 c 0,68,69
 156 14 156 14 166 27 c 1,70,71
 185 48 185 48 198 83 c 1,72,73
 199 -6 199 -6 271 -6 c 0,74,75
 287 -6 287 -6 306 0 c 0,76,77
 359 17 359 17 394 103 c 0,78,79
 427 183 427 183 427 271 c 0,80,81
 427 364 427 364 385 418 c 0,82,83
 339 478 339 478 248 480 c 0,0,1
EndSplineSet
EndChar

StartChar: ecircumflex
Encoding: 234 234 113
Width: 438
Flags: W
LayerCount: 2
Fore
SplineSet
248 480 m 0,0,1
 240 480 240 480 209 477.5 c 128,-1,2
 178 475 178 475 161 475 c 0,3,4
 104 475 104 475 102 501 c 0,5,6
 98 541 98 541 167 541 c 0,7,8
 181 541 181 541 200 539 c 0,9,10
 240 536 240 536 307 508 c 1,11,12
 366 485 366 485 391 489 c 1,13,-1
 424 558 l 1,14,15
 419 557 419 557 412 557 c 0,16,17
 393 557 393 557 322 573 c 0,18,19
 246 591 246 591 203 593 c 0,20,21
 138 597 138 597 89 568 c 0,22,23
 31 533 31 533 30 466 c 0,24,25
 29 411 29 411 111 411 c 0,26,27
 130 411 130 411 173 415 c 128,-1,28
 216 419 216 419 236 418 c 0,29,30
 302 416 302 416 343 365 c 1,31,32
 380 317 380 317 380 249 c 0,33,34
 380 221 380 221 373 194 c 0,35,36
 356 134 356 134 350 121 c 0,37,38
 334 85 334 85 301 69 c 0,39,40
 294 65 294 65 287 65 c 0,41,42
 250 65 250 65 250 171 c 0,43,44
 250 193 250 193 252 212 c 1,45,-1
 183 197 l 1,46,47
 178 74 178 74 134 46 c 0,48,49
 118 36 118 36 95 44 c 0,50,51
 80 49 80 49 80 74 c 0,52,53
 80 123 80 123 134 229 c 0,54,55
 183 325 183 325 227 378 c 1,56,-1
 134 378 l 1,57,58
 86 307 86 307 30 176 c 0,59,60
 7 123 7 123 7 85 c 0,61,62
 7 45 7 45 34 22 c 0,63,64
 44 14 44 14 79 -3 c 0,65,66
 90 -8 90 -8 109 -7 c 0,67,68
 128 -5 128 -5 137 1 c 0,69,70
 156 14 156 14 166 27 c 1,71,72
 185 48 185 48 198 83 c 1,73,74
 199 -6 199 -6 271 -6 c 0,75,76
 287 -6 287 -6 306 0 c 0,77,78
 359 17 359 17 394 103 c 0,79,80
 427 183 427 183 427 271 c 0,81,82
 427 364 427 364 385 418 c 0,83,84
 339 478 339 478 248 480 c 0,0,1
EndSplineSet
EndChar

StartChar: edieresis
Encoding: 235 235 114
Width: 438
Flags: W
LayerCount: 2
Fore
SplineSet
334 460 m 1,0,1
 420 457 420 457 424 515 c 0,2,3
 428 564 428 564 349 584 c 0,4,5
 292 598 292 598 203 596 c 0,6,7
 135 594 135 594 89 567 c 0,8,9
 31 533 31 533 30 466 c 0,10,11
 29 411 29 411 111 411 c 0,12,13
 130 411 130 411 173 415 c 128,-1,14
 216 419 216 419 236 418 c 0,15,16
 302 416 302 416 343 365 c 1,17,18
 380 317 380 317 380 249 c 0,19,20
 380 221 380 221 373 194 c 0,21,22
 356 134 356 134 350 121 c 0,23,24
 334 85 334 85 301 69 c 0,25,26
 294 65 294 65 287 65 c 0,27,28
 250 65 250 65 250 171 c 0,29,30
 250 193 250 193 252 212 c 1,31,-1
 183 197 l 1,32,33
 178 74 178 74 134 46 c 0,34,35
 118 36 118 36 95 44 c 0,36,37
 80 49 80 49 80 74 c 0,38,39
 80 123 80 123 134 229 c 0,40,41
 183 325 183 325 227 378 c 1,42,-1
 134 378 l 1,43,44
 86 307 86 307 30 176 c 0,45,46
 7 123 7 123 7 85 c 0,47,48
 7 45 7 45 34 22 c 0,49,50
 44 14 44 14 79 -3 c 0,51,52
 90 -8 90 -8 109 -7 c 0,53,54
 128 -5 128 -5 137 1 c 0,55,56
 156 14 156 14 166 27 c 1,57,58
 185 48 185 48 198 83 c 1,59,60
 199 -6 199 -6 271 -6 c 0,61,62
 287 -6 287 -6 306 0 c 0,63,64
 363 18 363 18 399 116 c 0,65,66
 433 207 433 207 426 298 c 0,67,68
 417 419 417 419 334 460 c 1,0,1
345 525 m 0,69,70
 332 547 332 547 256 549 c 1,71,72
 269 511 269 511 301 502 c 0,73,74
 313 499 313 499 322 499 c 0,75,76
 348 499 348 499 348 516 c 0,77,78
 348 520 348 520 345 525 c 0,69,70
256 480 m 1,79,80
 207 506 207 506 203 548 c 1,81,82
 171 541 171 541 138 534 c 1,83,84
 89 519 89 519 95 494 c 0,85,86
 100 475 100 475 148 475 c 0,87,88
 164 475 164 475 200.5 477.5 c 128,-1,89
 237 480 237 480 256 480 c 1,79,80
EndSplineSet
EndChar

StartChar: iacute
Encoding: 237 237 115
Width: 468
Flags: W
LayerCount: 2
Fore
SplineSet
75 145 m 1,0,1
 63 116 63 116 66 80 c 0,2,3
 68 50 68 50 87 50 c 0,4,5
 96 50 96 50 107 58 c 0,6,7
 130 74 130 74 132 127 c 0,8,9
 133 157 133 157 106 157 c 0,10,11
 91 157 91 157 75 145 c 1,0,1
287 -3 m 0,13,14
 236 -3 236 -3 224 21 c 0,15,16
 218 34 218 34 218 49 c 0,17,18
 218 70 218 70 232 102 c 0,19,20
 244 129 244 129 257 156 c 1,21,22
 271 189 271 189 271 214 c 0,23,24
 271 276 271 276 200 276 c 0,25,26
 122 276 122 276 83 213 c 1,27,28
 118 235 118 235 146 235 c 0,29,30
 169 235 169 235 185 219 c 0,31,32
 211 193 211 193 211 145 c 0,33,34
 211 108 211 108 196 74 c 0,35,36
 180 37 180 37 146 16 c 128,-1,37
 112 -5 112 -5 78 -5 c 0,38,39
 51 -5 51 -5 34 8 c 0,40,41
 11 25 11 25 11 93 c 0,42,43
 11 225 11 225 107 313 c 0,44,45
 162 363 162 363 248 357 c 0,46,47
 344 350 344 350 335 228 c 0,48,49
 333 203 333 203 314 158.5 c 128,-1,50
 295 114 295 114 295 98 c 0,51,52
 295 72 295 72 315 72 c 0,53,54
 345 72 345 72 363 101 c 0,55,56
 389 143 389 143 397 194 c 0,57,58
 400 215 400 215 400 236 c 0,59,60
 400 310 400 310 367 360 c 0,61,62
 329 416 329 416 260 418 c 0,63,64
 248 418 248 418 191 410.5 c 128,-1,65
 134 403 134 403 101 403 c 0,66,67
 69 403 69 403 48 409 c 1,68,-1
 37 473 l 1,69,70
 65 460 65 460 77 460 c 0,71,72
 96 460 96 460 96 496 c 0,73,74
 96 594 96 594 227 593 c 0,75,76
 272 593 272 593 346.5 575 c 128,-1,77
 421 557 421 557 437 557 c 0,78,79
 443 557 443 557 448 558 c 1,80,-1
 415 489 l 1,81,82
 392 485 392 485 332 510 c 1,83,84
 268 538 268 538 224 537 c 0,85,86
 185 536 185 536 169 526 c 0,87,88
 149 512 149 512 150 473 c 1,89,90
 231 481 231 481 272 480 c 0,91,92
 454 475 454 475 454 259 c 0,93,94
 454 185 454 185 432 120 c 128,-1,95
 410 55 410 55 373 26 c 128,-1,12
 336 -3 336 -3 287 -3 c 0,13,14
EndSplineSet
EndChar

StartChar: igrave
Encoding: 236 236 116
Width: 468
Flags: W
LayerCount: 2
Fore
SplineSet
75 145 m 1,0,1
 63 116 63 116 66 80 c 0,2,3
 68 50 68 50 87 50 c 0,4,5
 96 50 96 50 107 58 c 0,6,7
 130 74 130 74 132 127 c 0,8,9
 133 157 133 157 106 157 c 0,10,11
 91 157 91 157 75 145 c 1,0,1
259 418 m 0,12,13
 239 419 239 419 196 415 c 128,-1,14
 153 411 153 411 134 411 c 0,15,16
 52 411 52 411 53 466 c 0,17,18
 54 533 54 533 112 568 c 0,19,20
 161 597 161 597 226 593 c 0,21,22
 269 591 269 591 345 573 c 0,23,24
 416 557 416 557 435 557 c 0,25,26
 442 557 442 557 447 558 c 1,27,-1
 414 489 l 1,28,29
 389 485 389 485 330 508 c 1,30,31
 263 536 263 536 223 539 c 0,32,33
 204 541 204 541 190 541 c 0,34,35
 121 541 121 541 125 501 c 0,36,37
 127 475 127 475 184 475 c 0,38,39
 201 475 201 475 232 477.5 c 128,-1,40
 263 480 263 480 271 480 c 0,41,42
 437 476 437 476 452 302 c 0,43,44
 454 282 454 282 454 261 c 0,45,46
 454 185 454 185 432 120.5 c 128,-1,47
 410 56 410 56 373 26.5 c 128,-1,48
 336 -3 336 -3 287 -3 c 0,49,50
 236 -3 236 -3 224 21 c 0,51,52
 218 34 218 34 218 49 c 0,53,54
 218 70 218 70 232 102 c 0,55,56
 244 129 244 129 257 156 c 1,57,58
 271 189 271 189 271 214 c 0,59,60
 271 276 271 276 200 276 c 0,61,62
 122 276 122 276 83 213 c 1,63,64
 118 235 118 235 146 235 c 0,65,66
 169 235 169 235 185 219 c 0,67,68
 211 193 211 193 211 145 c 0,69,70
 211 108 211 108 196 74 c 0,71,72
 180 37 180 37 146 16 c 128,-1,73
 112 -5 112 -5 78 -5 c 0,74,75
 51 -5 51 -5 34 8 c 0,76,77
 11 25 11 25 11 93 c 0,78,79
 11 225 11 225 107 313 c 0,80,81
 162 363 162 363 248 357 c 0,82,83
 344 350 344 350 335 228 c 0,84,85
 333 203 333 203 314 158.5 c 128,-1,86
 295 114 295 114 295 98 c 0,87,88
 295 72 295 72 315 72 c 0,89,90
 345 72 345 72 363 101 c 0,91,92
 391 145 391 145 397 194 c 0,93,94
 400 214 400 214 400 234 c 0,95,96
 400 310 400 310 366 360 c 0,97,98
 329 416 329 416 259 418 c 0,12,13
EndSplineSet
EndChar

StartChar: icircumflex
Encoding: 238 238 117
Width: 468
Flags: W
LayerCount: 2
Fore
SplineSet
75 145 m 1,0,1
 63 116 63 116 66 80 c 0,2,3
 68 50 68 50 87 50 c 0,4,5
 96 50 96 50 107 58 c 0,6,7
 130 74 130 74 132 127 c 0,8,9
 133 157 133 157 106 157 c 0,10,11
 91 157 91 157 75 145 c 1,0,1
369 525 m 0,12,13
 356 547 356 547 280 549 c 1,14,15
 293 511 293 511 325 502 c 0,16,17
 337 499 337 499 346 499 c 0,18,19
 372 499 372 499 372 516 c 0,20,21
 372 520 372 520 369 525 c 0,12,13
260 418 m 0,22,23
 240 419 240 419 197 415 c 128,-1,24
 154 411 154 411 135 411 c 0,25,26
 53 411 53 411 54 466 c 0,27,28
 55 533 55 533 113 567 c 0,29,30
 159 594 159 594 227 596 c 0,31,32
 316 598 316 598 373 584 c 0,33,34
 452 564 452 564 448 515 c 0,35,36
 444 457 444 457 358 460 c 1,37,38
 455 412 455 412 455 260 c 0,39,40
 455 188 455 188 432 121.5 c 128,-1,41
 409 55 409 55 374 27 c 0,42,43
 336 -3 336 -3 287 -3 c 0,44,45
 236 -3 236 -3 224 21 c 0,46,47
 218 34 218 34 218 49 c 0,48,49
 218 70 218 70 232 102 c 0,50,51
 244 129 244 129 257 156 c 1,52,53
 271 189 271 189 271 214 c 0,54,55
 271 276 271 276 200 276 c 0,56,57
 122 276 122 276 83 213 c 1,58,59
 118 235 118 235 146 235 c 0,60,61
 169 235 169 235 185 219 c 0,62,63
 211 193 211 193 211 145 c 0,64,65
 211 108 211 108 196 74 c 0,66,67
 180 37 180 37 146 16 c 128,-1,68
 112 -5 112 -5 78 -5 c 0,69,70
 51 -5 51 -5 34 8 c 0,71,72
 11 25 11 25 11 93 c 0,73,74
 11 225 11 225 107 313 c 0,75,76
 162 363 162 363 248 357 c 0,77,78
 344 350 344 350 335 228 c 0,79,80
 333 203 333 203 314 158.5 c 128,-1,81
 295 114 295 114 295 98 c 0,82,83
 295 72 295 72 315 72 c 0,84,85
 345 72 345 72 363 101 c 0,86,87
 389 143 389 143 397 194 c 0,88,89
 400 216 400 216 400 239 c 0,90,91
 400 313 400 313 367 362 c 1,92,93
 329 416 329 416 260 418 c 0,22,23
280 480 m 1,94,95
 231 506 231 506 227 548 c 1,96,97
 195 541 195 541 162 534 c 1,98,99
 113 519 113 519 119 494 c 0,100,101
 124 475 124 475 172 475 c 0,102,103
 188 475 188 475 224.5 477.5 c 128,-1,104
 261 480 261 480 280 480 c 1,94,95
EndSplineSet
EndChar

StartChar: idieresis
Encoding: 239 239 118
Width: 438
Flags: W
LayerCount: 2
Fore
SplineSet
129 227 m 1,0,1
 148 258 148 258 167 288 c 0,2,3
 192 326 192 326 210 326 c 0,4,5
 224 326 224 326 233 308 c 0,6,7
 240 294 240 294 240 279 c 0,8,9
 240 236 240 236 212 218 c 0,10,11
 161 185 161 185 119 185 c 0,12,13
 111 185 111 185 103 186 c 1,14,15
 111 200 111 200 129 227 c 1,0,1
314 28 m 0,16,17
 352 54 352 54 389 131 c 0,18,19
 432 221 432 221 426 298 c 0,20,21
 411 476 411 476 248 480 c 0,22,23
 207 481 207 481 126 473 c 1,24,25
 125 512 125 512 145 526 c 0,26,27
 161 536 161 536 200 537 c 0,28,29
 244 538 244 538 308 510 c 1,30,31
 368 485 368 485 391 489 c 1,32,-1
 424 558 l 1,33,34
 419 557 419 557 413 557 c 0,35,36
 397 557 397 557 322.5 575 c 128,-1,37
 248 593 248 593 203 593 c 0,38,39
 72 594 72 594 72 496 c 0,40,41
 72 460 72 460 53 460 c 0,42,43
 41 460 41 460 13 473 c 1,44,-1
 24 409 l 1,45,46
 45 403 45 403 77 403 c 0,47,48
 110 403 110 403 167 410.5 c 128,-1,49
 224 418 224 418 236 418 c 0,50,51
 302 416 302 416 343 365 c 1,52,53
 380 317 380 317 380 249 c 0,54,55
 380 221 380 221 373 194 c 0,56,57
 350 112 350 112 285 79 c 0,58,59
 236 54 236 54 180 54 c 0,60,61
 85 54 85 54 85 122 c 0,62,63
 85 130 85 130 87 138 c 1,64,65
 114 134 114 134 139 134 c 0,66,67
 228 134 228 134 282 186 c 0,68,69
 309 212 309 212 309 250 c 0,70,71
 309 291 309 291 279.5 327.5 c 128,-1,72
 250 364 250 364 210 368 c 0,73,74
 145 375 145 375 96 304 c 0,75,76
 10 179 10 179 10 116 c 0,77,78
 10 101 10 101 14 82 c 0,79,80
 24 36 24 36 74 12 c 0,81,82
 110 -5 110 -5 173 -5 c 0,83,84
 265 -5 265 -5 314 28 c 0,16,17
EndSplineSet
EndChar

StartChar: ntilde
Encoding: 241 241 119
Width: 438
Flags: W
LayerCount: 2
Fore
SplineSet
314 28 m 0,0,1
 352 54 352 54 389 131 c 0,2,3
 432 221 432 221 426 298 c 0,4,5
 412 476 412 476 248 480 c 0,6,7
 240 480 240 480 209 477.5 c 128,-1,8
 178 475 178 475 161 475 c 0,9,10
 104 475 104 475 102 501 c 0,11,12
 98 541 98 541 167 541 c 0,13,14
 181 541 181 541 200 539 c 0,15,16
 240 536 240 536 307 508 c 1,17,18
 366 485 366 485 391 489 c 1,19,-1
 424 558 l 1,20,21
 419 557 419 557 412 557 c 0,22,23
 393 557 393 557 322 573 c 0,24,25
 246 591 246 591 203 593 c 0,26,27
 138 597 138 597 89 568 c 0,28,29
 31 533 31 533 30 466 c 0,30,31
 29 411 29 411 111 411 c 0,32,33
 130 411 130 411 173 415 c 128,-1,34
 216 419 216 419 236 418 c 0,35,36
 302 416 302 416 343 365 c 1,37,38
 380 317 380 317 380 249 c 0,39,40
 380 221 380 221 373 194 c 0,41,42
 350 112 350 112 285 79 c 0,43,44
 235 53 235 53 179 53 c 0,45,46
 142 53 142 53 120 66 c 0,47,48
 85 86 85 86 85 123 c 0,49,50
 85 131 85 131 87 138 c 1,51,52
 114 134 114 134 139 134 c 0,53,54
 228 134 228 134 282 186 c 0,55,56
 309 212 309 212 309 250 c 0,57,58
 309 291 309 291 279.5 327.5 c 128,-1,59
 250 364 250 364 210 368 c 0,60,61
 145 375 145 375 96 304 c 0,62,63
 10 179 10 179 10 116 c 0,64,65
 10 101 10 101 14 82 c 0,66,67
 25 35 25 35 74 12 c 0,68,69
 111 -5 111 -5 173 -5 c 0,70,71
 266 -5 266 -5 314 28 c 0,0,1
129 227 m 1,72,73
 148 258 148 258 167 288 c 0,74,75
 192 326 192 326 210 326 c 0,76,77
 224 326 224 326 233 308 c 0,78,79
 240 294 240 294 240 279 c 0,80,81
 240 236 240 236 212 218 c 0,82,83
 161 185 161 185 119 185 c 0,84,85
 111 185 111 185 103 186 c 1,86,87
 111 200 111 200 129 227 c 1,72,73
EndSplineSet
EndChar

StartChar: oacute
Encoding: 243 243 120
Width: 438
Flags: W
LayerCount: 2
Fore
SplineSet
345 525 m 0,0,1
 332 547 332 547 256 549 c 1,2,3
 269 511 269 511 301 502 c 0,4,5
 313 499 313 499 322 499 c 0,6,7
 348 499 348 499 348 516 c 0,8,9
 348 520 348 520 345 525 c 0,0,1
256 480 m 1,10,11
 236 490 236 490 221 508 c 0,12,13
 203 529 203 529 204 548 c 1,14,15
 86 532 86 532 95 494 c 0,16,17
 100 475 100 475 148 475 c 0,18,19
 164 475 164 475 200.5 477.5 c 128,-1,20
 237 480 237 480 256 480 c 1,10,11
14 82 m 0,21,22
 10 101 10 101 10 116 c 0,23,24
 10 179 10 179 96 304 c 0,25,26
 145 375 145 375 210 368 c 0,27,28
 250 364 250 364 279.5 327.5 c 128,-1,29
 309 291 309 291 309 250 c 0,30,31
 309 212 309 212 282 186 c 0,32,33
 228 134 228 134 139 134 c 0,34,35
 114 134 114 134 87 138 c 1,36,37
 85 130 85 130 85 122 c 0,38,39
 85 86 85 86 116 68 c 0,40,41
 142 54 142 54 179 54 c 0,42,43
 235 54 235 54 285 79 c 0,44,45
 350 112 350 112 373 194 c 0,46,47
 380 221 380 221 380 249 c 0,48,49
 380 317 380 317 343 365 c 1,50,51
 302 416 302 416 236 418 c 0,52,53
 216 419 216 419 173 415 c 128,-1,54
 130 411 130 411 111 411 c 0,55,56
 29 411 29 411 30 466 c 0,57,58
 31 533 31 533 89 567 c 0,59,60
 135 594 135 594 203 596 c 0,61,62
 292 598 292 598 349 584 c 0,63,64
 428 564 428 564 424 515 c 0,65,66
 420 457 420 457 334 460 c 1,67,68
 417 419 417 419 426 298 c 0,69,70
 432 221 432 221 389 131 c 0,71,72
 352 54 352 54 314 28 c 0,73,74
 266 -5 266 -5 174 -5 c 0,75,76
 112 -5 112 -5 74 12 c 0,77,78
 25 35 25 35 14 82 c 0,21,22
129 227 m 0,79,80
 120 212 120 212 103 186 c 1,81,82
 111 185 111 185 119 185 c 0,83,84
 161 185 161 185 212 218 c 0,85,86
 240 236 240 236 240 279 c 0,87,88
 240 294 240 294 233 308 c 0,89,90
 224 326 224 326 210 326 c 0,91,92
 192 326 192 326 167 288 c 0,93,94
 148 258 148 258 129 227 c 0,79,80
EndSplineSet
EndChar

StartChar: ograve
Encoding: 242 242 121
Width: 471
Flags: W
LayerCount: 2
Fore
SplineSet
222 250 m 0,0,1
 210 232 210 232 172 232 c 0,2,3
 126 232 126 232 94 255 c 1,4,5
 122 314 122 314 174 314 c 0,6,7
 197 314 197 314 213 302 c 128,-1,8
 229 290 229 290 229 272 c 0,9,10
 229 261 229 261 222 250 c 0,0,1
340 65 m 0,11,12
 333 56 333 56 322 55 c 0,13,14
 317 54 317 54 317 62 c 0,15,16
 317 68 317 68 326.5 104 c 128,-1,17
 336 140 336 140 336 160 c 0,18,19
 336 203 336 203 275 203 c 0,20,21
 242 203 242 203 208 191 c 128,-1,22
 174 179 174 179 160 160.5 c 128,-1,23
 146 142 146 142 146 124 c 0,24,25
 146 108 146 108 157.5 89.5 c 128,-1,26
 169 71 169 71 169 67 c 0,27,28
 169 57 169 57 154 57 c 0,29,30
 137 57 137 57 116.5 77 c 128,-1,31
 96 97 96 97 87 121 c 0,32,33
 73 157 73 157 79 203 c 1,34,35
 111 193 111 193 146 193 c 0,36,37
 262 193 262 193 281 283 c 0,38,39
 283 294 283 294 283 304 c 0,40,41
 283 372 283 372 194 372 c 0,42,43
 166 372 166 372 145 363 c 0,44,45
 94 341 94 341 54 287 c 0,46,47
 10 226 10 226 10 159 c 0,48,49
 10 134 10 134 17 109 c 0,50,51
 27 75 27 75 63 39 c 0,52,53
 90 11 90 11 108 3 c 0,54,55
 137 -11 137 -11 158 4 c 128,-1,56
 179 19 179 19 200 34 c 1,57,58
 226 56 226 56 226 74 c 0,59,60
 226 85 226 85 217.5 109 c 128,-1,61
 209 133 209 133 209 142 c 0,62,63
 209 158 209 158 225 162 c 0,64,65
 234 164 234 164 240 164 c 0,66,67
 259 164 259 164 259 143 c 0,68,69
 259 131 259 131 249.5 95.5 c 128,-1,70
 240 60 240 60 240 44 c 0,71,72
 240 35 240 35 243 28 c 0,73,74
 251 9 251 9 276 4 c 0,75,76
 292 1 292 1 307 1 c 0,77,78
 388 1 388 1 419 94 c 0,79,80
 457 206 457 206 451 306 c 0,81,82
 446 385 446 385 402 430 c 0,83,84
 354 478 354 478 269 480 c 0,85,86
 228 481 228 481 147 473 c 1,87,88
 146 512 146 512 166 526 c 0,89,90
 182 536 182 536 221 537 c 0,91,92
 265 538 265 538 329 510 c 1,93,94
 389 485 389 485 412 489 c 1,95,-1
 445 558 l 1,96,97
 440 557 440 557 434 557 c 0,98,99
 418 557 418 557 343.5 575 c 128,-1,100
 269 593 269 593 224 593 c 0,101,102
 93 594 93 594 93 496 c 0,103,104
 93 460 93 460 74 460 c 0,105,106
 62 460 62 460 34 473 c 1,107,-1
 45 409 l 1,108,109
 66 403 66 403 98 403 c 0,110,111
 131 403 131 403 188 410.5 c 128,-1,112
 245 418 245 418 257 418 c 0,113,114
 323 416 323 416 357 363 c 0,115,116
 386 318 386 318 386 246 c 0,117,118
 386 206 386 206 373 150 c 0,119,120
 358 88 358 88 340 65 c 0,11,12
EndSplineSet
EndChar

StartChar: ocircumflex
Encoding: 244 244 122
Width: 471
Flags: W
LayerCount: 2
Fore
SplineSet
222 250 m 0,0,1
 210 232 210 232 172 232 c 0,2,3
 126 232 126 232 94 255 c 1,4,5
 122 314 122 314 174 314 c 0,6,7
 197 314 197 314 213 302 c 128,-1,8
 229 290 229 290 229 272 c 0,9,10
 229 261 229 261 222 250 c 0,0,1
340 65 m 0,11,12
 333 56 333 56 322 55 c 0,13,14
 317 54 317 54 317 62 c 0,15,16
 317 68 317 68 326.5 104 c 128,-1,17
 336 140 336 140 336 160 c 0,18,19
 336 203 336 203 275 203 c 0,20,21
 242 203 242 203 208 191 c 128,-1,22
 174 179 174 179 160 160.5 c 128,-1,23
 146 142 146 142 146 124 c 0,24,25
 146 108 146 108 157.5 89.5 c 128,-1,26
 169 71 169 71 169 67 c 0,27,28
 169 57 169 57 154 57 c 0,29,30
 137 57 137 57 116.5 77 c 128,-1,31
 96 97 96 97 87 121 c 0,32,33
 73 157 73 157 79 203 c 1,34,35
 111 193 111 193 146 193 c 0,36,37
 262 193 262 193 281 283 c 0,38,39
 283 294 283 294 283 304 c 0,40,41
 283 372 283 372 194 372 c 0,42,43
 166 372 166 372 145 363 c 0,44,45
 94 341 94 341 54 287 c 0,46,47
 10 226 10 226 10 159 c 0,48,49
 10 134 10 134 17 109 c 0,50,51
 27 75 27 75 63 39 c 0,52,53
 90 11 90 11 108 3 c 0,54,55
 137 -11 137 -11 158 4 c 128,-1,56
 179 19 179 19 200 34 c 1,57,58
 226 56 226 56 226 74 c 0,59,60
 226 85 226 85 217.5 109 c 128,-1,61
 209 133 209 133 209 142 c 0,62,63
 209 158 209 158 225 162 c 0,64,65
 234 164 234 164 240 164 c 0,66,67
 259 164 259 164 259 143 c 0,68,69
 259 131 259 131 249.5 95.5 c 128,-1,70
 240 60 240 60 240 44 c 0,71,72
 240 35 240 35 243 28 c 0,73,74
 251 9 251 9 276 4 c 0,75,76
 292 1 292 1 307 1 c 0,77,78
 388 1 388 1 419 94 c 0,79,80
 457 206 457 206 451 306 c 0,81,82
 441 476 441 476 271 480 c 0,83,84
 263 480 263 480 232 477.5 c 128,-1,85
 201 475 201 475 184 475 c 0,86,87
 127 475 127 475 125 501 c 0,88,89
 121 541 121 541 190 541 c 0,90,91
 204 541 204 541 223 539 c 0,92,93
 263 536 263 536 330 508 c 1,94,95
 389 485 389 485 414 489 c 1,96,-1
 447 558 l 1,97,98
 442 557 442 557 435 557 c 0,99,100
 416 557 416 557 345 573 c 0,101,102
 269 591 269 591 226 593 c 0,103,104
 161 597 161 597 112 568 c 0,105,106
 54 533 54 533 53 466 c 0,107,108
 52 411 52 411 134 411 c 0,109,110
 153 411 153 411 196 415 c 128,-1,111
 239 419 239 419 259 418 c 0,112,113
 325 416 325 416 358 366 c 0,114,115
 386 322 386 322 386 251 c 0,116,117
 386 210 386 210 373 153 c 0,118,119
 359 89 359 89 340 65 c 0,11,12
EndSplineSet
EndChar

StartChar: odieresis
Encoding: 246 246 123
Width: 471
Flags: W
LayerCount: 2
Fore
SplineSet
222 250 m 0,0,1
 229 261 229 261 229 272 c 0,2,3
 229 290 229 290 213 302 c 128,-1,4
 197 314 197 314 174 314 c 0,5,6
 122 314 122 314 94 255 c 1,7,8
 126 232 126 232 172 232 c 0,9,10
 210 232 210 232 222 250 c 0,0,1
386 249 m 0,11,12
 386 321 386 321 358 365 c 0,13,14
 326 416 326 416 260 418 c 0,15,16
 240 419 240 419 197 415 c 128,-1,17
 154 411 154 411 135 411 c 0,18,19
 53 411 53 411 54 466 c 0,20,21
 55 533 55 533 113 567 c 0,22,23
 159 594 159 594 227 596 c 0,24,25
 316 598 316 598 373 584 c 0,26,27
 452 564 452 564 448 515 c 0,28,29
 444 457 444 457 358 460 c 1,30,31
 445 416 445 416 451 306 c 0,32,33
 456 205 456 205 419 94 c 0,34,35
 388 1 388 1 307 1 c 0,36,37
 292 1 292 1 276 4 c 0,38,39
 251 9 251 9 243 28 c 0,40,41
 240 35 240 35 240 44 c 0,42,43
 240 60 240 60 249.5 95.5 c 128,-1,44
 259 131 259 131 259 143 c 0,45,46
 259 164 259 164 240 164 c 0,47,48
 234 164 234 164 225 162 c 0,49,50
 209 158 209 158 209 142 c 0,51,52
 209 133 209 133 217.5 109 c 128,-1,53
 226 85 226 85 226 74 c 0,54,55
 226 56 226 56 200 34 c 1,56,57
 179 19 179 19 158 4 c 128,-1,58
 137 -11 137 -11 108 3 c 0,59,60
 90 11 90 11 63 39 c 0,61,62
 27 75 27 75 17 109 c 0,63,64
 10 134 10 134 10 159 c 0,65,66
 10 226 10 226 54 287 c 0,67,68
 94 341 94 341 145 363 c 0,69,70
 166 372 166 372 194 372 c 0,71,72
 283 372 283 372 283 304 c 0,73,74
 283 294 283 294 281 283 c 0,75,76
 262 193 262 193 146 193 c 0,77,78
 111 193 111 193 79 203 c 1,79,80
 73 157 73 157 87 121 c 0,81,82
 96 97 96 97 116.5 77 c 128,-1,83
 137 57 137 57 154 57 c 0,84,85
 169 57 169 57 169 67 c 0,86,87
 169 71 169 71 157.5 89.5 c 128,-1,88
 146 108 146 108 146 124 c 0,89,90
 146 142 146 142 160 160.5 c 128,-1,91
 174 179 174 179 208 191 c 128,-1,92
 242 203 242 203 275 203 c 0,93,94
 336 203 336 203 336 160 c 0,95,96
 336 140 336 140 326.5 104 c 128,-1,97
 317 68 317 68 317 62 c 0,98,99
 317 54 317 54 322 55 c 0,100,101
 333 56 333 56 340 65 c 0,102,103
 360 90 360 90 373 152 c 1,104,105
 386 206 386 206 386 249 c 0,11,12
369 525 m 0,106,107
 356 547 356 547 280 549 c 1,108,109
 293 511 293 511 325 502 c 0,110,111
 337 499 337 499 346 499 c 0,112,113
 372 499 372 499 372 516 c 0,114,115
 372 520 372 520 369 525 c 0,106,107
280 480 m 1,116,117
 231 506 231 506 227 548 c 1,118,119
 195 541 195 541 162 534 c 1,120,121
 113 519 113 519 119 494 c 0,122,123
 124 475 124 475 172 475 c 0,124,125
 188 475 188 475 224.5 477.5 c 128,-1,126
 261 480 261 480 280 480 c 1,116,117
EndSplineSet
EndChar

StartChar: otilde
Encoding: 245 245 124
Width: 438
Flags: W
LayerCount: 2
Fore
SplineSet
159 171 m 1,0,1
 205 212 205 212 271 283 c 1,2,3
 279 295 279 295 279 307 c 0,4,5
 279 336 279 336 246 349 c 1,6,7
 220 361 220 361 189 357 c 0,8,9
 119 348 119 348 115 361 c 0,10,11
 112 370 112 370 122 382 c 1,12,-1
 71 382 l 1,13,14
 35 338 35 338 35 309 c 0,15,16
 35 278 35 278 112 285 c 0,17,18
 175 291 175 291 168 291 c 1,19,20
 195 291 195 291 195 276 c 0,21,22
 195 271 195 271 192 265 c 0,23,24
 187 253 187 253 161 232 c 0,25,26
 140 216 140 216 120 200 c 0,27,28
 79 167 79 167 38 134 c 1,29,30
 2 102 2 102 8 76 c 0,31,32
 18 33 18 33 72 8 c 0,33,34
 106 -8 106 -8 165 -8 c 0,35,36
 262 -8 262 -8 314 28 c 0,37,38
 352 54 352 54 389 131 c 0,39,40
 432 221 432 221 426 298 c 0,41,42
 412 476 412 476 248 480 c 0,43,44
 207 481 207 481 126 473 c 1,45,46
 125 512 125 512 145 526 c 0,47,48
 161 536 161 536 200 537 c 0,49,50
 244 538 244 538 308 510 c 1,51,52
 368 485 368 485 391 489 c 1,53,-1
 424 558 l 1,54,55
 419 557 419 557 413 557 c 0,56,57
 397 557 397 557 322.5 575 c 128,-1,58
 248 593 248 593 203 593 c 0,59,60
 72 594 72 594 72 496 c 0,61,62
 72 460 72 460 53 460 c 0,63,64
 41 460 41 460 13 473 c 1,65,-1
 24 409 l 1,66,67
 45 403 45 403 77 403 c 0,68,69
 110 403 110 403 167 410.5 c 128,-1,70
 224 418 224 418 236 418 c 0,71,72
 302 416 302 416 343 365 c 1,73,74
 380 317 380 317 380 249 c 0,75,76
 380 221 380 221 373 194 c 0,77,78
 350 112 350 112 285 79 c 0,79,80
 235 54 235 54 179 54 c 0,81,82
 142 54 142 54 120 66.5 c 128,-1,83
 98 79 98 79 98 94 c 0,84,85
 98 113 98 113 159 171 c 1,0,1
EndSplineSet
EndChar

StartChar: uacute
Encoding: 250 250 125
Width: 438
Flags: W
LayerCount: 2
Fore
SplineSet
159 171 m 1,0,1
 205 212 205 212 271 283 c 1,2,3
 279 295 279 295 279 307 c 0,4,5
 279 336 279 336 246 349 c 1,6,7
 220 361 220 361 189 357 c 0,8,9
 119 348 119 348 115 361 c 0,10,11
 112 370 112 370 122 382 c 1,12,-1
 71 382 l 1,13,14
 35 338 35 338 35 309 c 0,15,16
 35 278 35 278 112 285 c 0,17,18
 175 291 175 291 168 291 c 1,19,20
 195 291 195 291 195 276 c 0,21,22
 195 271 195 271 192 265 c 0,23,24
 187 253 187 253 161 232 c 0,25,26
 140 216 140 216 120 200 c 0,27,28
 79 167 79 167 38 134 c 1,29,30
 2 102 2 102 8 76 c 0,31,32
 18 33 18 33 72 8 c 0,33,34
 106 -8 106 -8 165 -8 c 0,35,36
 262 -8 262 -8 314 28 c 0,37,38
 352 54 352 54 389 131 c 0,39,40
 432 221 432 221 426 298 c 0,41,42
 412 476 412 476 248 480 c 0,43,44
 240 480 240 480 209 477.5 c 128,-1,45
 178 475 178 475 161 475 c 0,46,47
 104 475 104 475 102 501 c 0,48,49
 98 541 98 541 167 541 c 0,50,51
 181 541 181 541 200 539 c 0,52,53
 240 536 240 536 307 508 c 1,54,55
 366 485 366 485 391 489 c 1,56,-1
 424 558 l 1,57,58
 419 557 419 557 412 557 c 0,59,60
 393 557 393 557 322 573 c 0,61,62
 246 591 246 591 203 593 c 0,63,64
 138 597 138 597 89 568 c 0,65,66
 31 533 31 533 30 466 c 0,67,68
 29 411 29 411 111 411 c 0,69,70
 130 411 130 411 173 415 c 128,-1,71
 216 419 216 419 236 418 c 0,72,73
 302 416 302 416 343 365 c 1,74,75
 380 317 380 317 380 249 c 0,76,77
 380 221 380 221 373 194 c 0,78,79
 350 112 350 112 285 79 c 0,80,81
 235 54 235 54 179 54 c 0,82,83
 142 54 142 54 120 66.5 c 128,-1,84
 98 79 98 79 98 94 c 0,85,86
 98 113 98 113 159 171 c 1,0,1
EndSplineSet
EndChar

StartChar: ugrave
Encoding: 249 249 126
Width: 438
Flags: W
LayerCount: 2
Fore
SplineSet
345 525 m 0,0,1
 332 547 332 547 256 549 c 1,2,3
 269 511 269 511 301 502 c 0,4,5
 313 499 313 499 322 499 c 0,6,7
 348 499 348 499 348 516 c 0,8,9
 348 520 348 520 345 525 c 0,0,1
334 460 m 1,10,11
 417 419 417 419 426 298 c 0,12,13
 432 221 432 221 389 131 c 0,14,15
 352 54 352 54 314 28 c 0,16,17
 262 -8 262 -8 165 -8 c 0,18,19
 106 -8 106 -8 72 8 c 0,20,21
 18 33 18 33 8 76 c 0,22,23
 2 102 2 102 38 134 c 1,24,25
 79 167 79 167 120 200 c 0,26,27
 140 216 140 216 161 232 c 0,28,29
 187 253 187 253 192 265 c 0,30,31
 195 271 195 271 195 276 c 0,32,33
 195 291 195 291 168 291 c 1,34,35
 175 291 175 291 112 285 c 0,36,37
 35 278 35 278 35 309 c 0,38,39
 35 338 35 338 71 382 c 1,40,-1
 122 382 l 1,41,42
 112 370 112 370 115 361 c 0,43,44
 119 348 119 348 189 357 c 0,45,46
 220 361 220 361 246 349 c 1,47,48
 279 336 279 336 279 307 c 0,49,50
 279 295 279 295 271 283 c 0,51,52
 258 264 258 264 159 171 c 0,53,54
 98 113 98 113 98 94 c 0,55,56
 98 79 98 79 120 66.5 c 128,-1,57
 142 54 142 54 179 54 c 0,58,59
 235 54 235 54 285 79 c 0,60,61
 350 112 350 112 373 194 c 0,62,63
 380 221 380 221 380 249 c 0,64,65
 380 317 380 317 343 365 c 1,66,67
 302 416 302 416 236 418 c 0,68,69
 216 419 216 419 173 415 c 128,-1,70
 130 411 130 411 111 411 c 0,71,72
 29 411 29 411 30 466 c 0,73,74
 31 533 31 533 89 567 c 0,75,76
 135 594 135 594 203 596 c 0,77,78
 292 598 292 598 349 584 c 0,79,80
 428 564 428 564 424 515 c 0,81,82
 420 457 420 457 334 460 c 1,10,11
256 480 m 1,83,84
 207 506 207 506 203 548 c 1,85,86
 171 541 171 541 138 534 c 1,87,88
 89 519 89 519 95 494 c 0,89,90
 100 475 100 475 148 475 c 0,91,92
 164 475 164 475 200.5 477.5 c 128,-1,93
 237 480 237 480 256 480 c 1,83,84
EndSplineSet
EndChar

StartChar: ucircumflex
Encoding: 251 251 127
Width: 915
Flags: W
LayerCount: 2
Fore
SplineSet
334 209 m 1,0,1
 322 199 322 199 296 171 c 0,2,3
 286 161 286 161 244 110 c 1,4,5
 252 108 252 108 266 103 c 0,6,7
 276 99 276 99 295 82 c 0,8,9
 311 67 311 67 317 67 c 0,10,11
 320 67 320 67 323 69 c 0,12,13
 350 94 350 94 368 149 c 1,14,-1
 448 167 l 1,15,16
 448 165 448 165 437 127 c 0,17,18
 431 103 431 103 431 90 c 0,19,20
 431 68 431 68 446 59 c 0,21,22
 453 55 453 55 460 55 c 0,23,24
 478 55 478 55 491 79 c 128,-1,25
 504 103 504 103 504 132 c 0,26,27
 504 148 504 148 500 161 c 0,28,29
 485 209 485 209 450 223 c 0,30,31
 429 231 429 231 407 231 c 0,32,33
 370 231 370 231 334 209 c 1,0,1
555 88 m 0,34,35
 555 114 555 114 589 142 c 1,36,37
 629 170 629 170 668 198 c 1,38,39
 693 214 693 214 719 230 c 0,40,41
 755 253 755 253 760 265 c 0,42,43
 763 271 763 271 763 276 c 0,44,45
 763 291 763 291 736 291 c 1,46,47
 746 291 746 291 680 285 c 0,48,49
 625 280 625 280 608 297 c 1,50,51
 571 318 571 318 530 319 c 0,52,53
 464 321 464 321 416 287 c 1,54,55
 446 290 446 290 460 290 c 0,56,57
 506 290 506 290 536 257 c 0,58,59
 560 231 560 231 560 183 c 0,60,61
 560 132 560 132 534.5 78.5 c 128,-1,62
 509 25 509 25 474 3 c 0,63,64
 464 -3 464 -3 442 -4 c 1,65,66
 419 -4 419 -4 406 1 c 0,67,68
 377 13 377 13 360 53 c 1,69,70
 321 7 321 7 294 -3 c 0,71,72
 278 -9 278 -9 262 5 c 0,73,74
 228 34 228 34 208 37 c 0,75,76
 193 39 193 39 184.5 33 c 128,-1,77
 176 27 176 27 162 7 c 1,78,-1
 142 67 l 1,79,80
 170 103 170 103 236 177 c 0,81,82
 263 208 263 208 322 270 c 1,83,84
 321 303 321 303 295 303 c 0,85,86
 282 303 282 303 255 296 c 128,-1,87
 228 289 228 289 213 289 c 0,88,89
 189 289 189 289 181 301 c 0,90,91
 176 308 176 308 178 320 c 1,92,93
 126 313 126 313 102 285.5 c 128,-1,94
 78 258 78 258 73 206 c 0,95,96
 71 186 71 186 71 169 c 0,97,98
 71 78 71 78 141 32 c 1,99,-1
 93 -12 l 1,100,101
 9 15 9 15 9 117 c 0,102,103
 9 171 9 171 33 234 c 0,104,105
 82 363 82 363 202 377 c 0,106,107
 203 378 203 378 205.5 381 c 128,-1,108
 208 384 208 384 209 385 c 1,109,-1
 260 385 l 1,110,111
 246 368 246 368 259 366 c 256,112,113
 272 364 272 364 301 370 c 0,114,115
 338 377 338 377 351 364 c 0,116,117
 372 343 372 343 364 309 c 1,118,119
 429 361 429 361 490 373 c 0,120,121
 513 378 513 378 537 378 c 0,122,123
 589 378 589 378 623 360 c 1,124,125
 632 374 632 374 639 382 c 1,126,-1
 690 382 l 1,127,128
 680 370 680 370 683 361 c 0,129,130
 687 348 687 348 757 357 c 0,131,132
 788 361 788 361 814 349 c 1,133,134
 847 336 847 336 847 307 c 0,135,136
 847 295 847 295 839 283 c 0,137,138
 823 260 823 260 711 169 c 0,139,140
 646 116 646 116 646 94 c 0,141,142
 646 58 646 58 710 58 c 0,143,144
 758 58 758 58 812 79 c 0,145,146
 872 102 872 102 903 138 c 1,147,148
 896 110 896 110 885 -43 c 0,149,150
 876 -180 876 -180 876 -214 c 1,151,152
 852 -212 852 -212 823 -212 c 0,153,154
 680 -212 680 -212 530 -242 c 1,155,156
 536 -206 536 -206 540 -178 c 1,157,158
 716 -156 716 -156 810 -156 c 1,159,160
 813 -80 813 -80 822 26 c 1,161,162
 769 -4 769 -4 686 -4 c 0,163,164
 646 -4 646 -4 621 7.5 c 128,-1,165
 596 19 596 19 577 40 c 0,166,167
 555 64 555 64 555 88 c 0,34,35
EndSplineSet
EndChar

StartChar: udieresis
Encoding: 252 252 128
Width: 915
Flags: W
LayerCount: 2
Fore
SplineSet
334 209 m 1,0,1
 322 199 322 199 296 171 c 0,2,3
 286 161 286 161 244 110 c 1,4,5
 252 108 252 108 266 103 c 0,6,7
 276 99 276 99 295 82 c 0,8,9
 311 67 311 67 317 67 c 0,10,11
 320 67 320 67 323 69 c 0,12,13
 350 94 350 94 368 149 c 1,14,-1
 448 167 l 1,15,16
 448 165 448 165 437 127 c 0,17,18
 431 103 431 103 431 90 c 0,19,20
 431 68 431 68 446 59 c 0,21,22
 453 55 453 55 460 55 c 0,23,24
 478 55 478 55 491 79 c 128,-1,25
 504 103 504 103 504 132 c 0,26,27
 504 148 504 148 500 161 c 0,28,29
 485 209 485 209 450 223 c 0,30,31
 429 231 429 231 407 231 c 0,32,33
 370 231 370 231 334 209 c 1,0,1
577 40 m 0,35,36
 555 64 555 64 555 88 c 0,37,38
 555 114 555 114 589 142 c 1,39,40
 629 170 629 170 668 198 c 1,41,42
 693 214 693 214 719 230 c 0,43,44
 755 253 755 253 760 265 c 0,45,46
 763 271 763 271 763 276 c 0,47,48
 763 291 763 291 736 291 c 1,49,50
 746 291 746 291 680 285 c 0,51,52
 625 280 625 280 608 297 c 1,53,54
 571 318 571 318 530 319 c 0,55,56
 464 321 464 321 416 287 c 1,57,58
 446 290 446 290 460 290 c 0,59,60
 506 290 506 290 536 257 c 0,61,62
 560 231 560 231 560 183 c 0,63,64
 560 132 560 132 534.5 78.5 c 128,-1,65
 509 25 509 25 474 3 c 0,66,67
 464 -3 464 -3 442 -4 c 1,68,69
 419 -4 419 -4 406 1 c 0,70,71
 377 13 377 13 360 53 c 1,72,73
 321 7 321 7 294 -3 c 0,74,75
 278 -9 278 -9 262 5 c 0,76,77
 228 34 228 34 208 37 c 0,78,79
 193 39 193 39 184.5 33 c 128,-1,80
 176 27 176 27 162 7 c 1,81,-1
 142 67 l 1,82,83
 170 103 170 103 236 177 c 0,84,85
 263 208 263 208 322 270 c 1,86,87
 321 303 321 303 295 303 c 0,88,89
 282 303 282 303 255 296 c 128,-1,90
 228 289 228 289 213 289 c 0,91,92
 189 289 189 289 181 301 c 0,93,94
 176 308 176 308 178 320 c 1,95,96
 126 313 126 313 102 285.5 c 128,-1,97
 78 258 78 258 73 206 c 0,98,99
 71 186 71 186 71 169 c 0,100,101
 71 78 71 78 141 32 c 1,102,-1
 93 -12 l 1,103,104
 9 15 9 15 9 117 c 0,105,106
 9 171 9 171 33 234 c 0,107,108
 82 363 82 363 202 377 c 0,109,110
 203 378 203 378 205.5 381 c 128,-1,111
 208 384 208 384 209 385 c 1,112,-1
 260 385 l 1,113,114
 246 368 246 368 259 366 c 256,115,116
 272 364 272 364 301 370 c 0,117,118
 338 377 338 377 351 364 c 0,119,120
 372 343 372 343 364 309 c 1,121,122
 429 361 429 361 490 373 c 0,123,124
 513 378 513 378 537 378 c 0,125,126
 589 378 589 378 623 360 c 1,127,128
 632 374 632 374 639 382 c 1,129,-1
 690 382 l 1,130,131
 680 370 680 370 683 361 c 0,132,133
 687 348 687 348 757 357 c 0,134,135
 788 361 788 361 814 349 c 1,136,137
 847 336 847 336 847 307 c 0,138,139
 847 295 847 295 839 283 c 0,140,141
 823 260 823 260 711 169 c 0,142,143
 646 116 646 116 646 94 c 0,144,145
 646 58 646 58 710 58 c 0,146,147
 758 58 758 58 812 79 c 0,148,149
 872 102 872 102 903 138 c 1,150,151
 896 110 896 110 885 -43 c 0,152,153
 876 -180 876 -180 876 -214 c 1,154,155
 811 -169 811 -169 770 -169 c 0,156,157
 756 -169 756 -169 743.5 -173.5 c 128,-1,158
 731 -178 731 -178 698.5 -201 c 128,-1,159
 666 -224 666 -224 644 -231 c 0,160,161
 631 -235 631 -235 618 -235 c 0,162,163
 579 -235 579 -235 526 -198 c 1,164,165
 526 -168 526 -168 530 -108 c 1,166,167
 595 -161 595 -161 629 -161 c 0,168,169
 638 -161 638 -161 645 -157 c 2,170,171
 645 -157 645 -157 701 -117 c 0,172,173
 736 -92 736 -92 764 -92 c 256,174,175
 792 -92 792 -92 816 -118 c 1,176,177
 821 -59 821 -59 832 30 c 1,178,179
 773 -4 773 -4 687 -4 c 0,180,181
 646 -4 646 -4 621 7.5 c 128,-1,34
 596 19 596 19 577 40 c 0,35,36
EndSplineSet
EndChar

StartChar: dagger
Encoding: 8224 8224 129
Width: 784
Flags: W
LayerCount: 2
Fore
SplineSet
100 126 m 1,0,1
 112 119 112 119 126.5 90.5 c 128,-1,2
 141 62 141 62 170 54 c 0,3,4
 188 49 188 49 202 49 c 0,5,6
 261 49 261 49 266 130 c 0,7,8
 268 160 268 160 249 189 c 0,9,10
 232 215 232 215 206 228 c 1,11,12
 143 175 143 175 100 126 c 1,0,1
668 414 m 1,13,14
 624 481 624 481 566 492 c 1,15,16
 562 456 562 456 593 432.5 c 128,-1,17
 624 409 624 409 668 414 c 1,13,14
389 311 m 0,18,19
 373 319 373 319 352 319 c 0,20,21
 303 319 303 319 270 288 c 1,22,23
 307 269 307 269 326 216 c 0,24,25
 334 194 334 194 334 169 c 0,26,27
 334 91 334 91 282 46 c 0,28,29
 225 -3 225 -3 155 -3 c 0,30,31
 115 -3 115 -3 88 16 c 0,32,33
 78 23 78 23 65 51 c 0,34,35
 54 75 54 75 47 75 c 0,36,37
 42 75 42 75 35 65 c 128,-1,38
 28 55 28 55 22 46 c 1,39,-1
 2 92 l 1,40,41
 26 119 26 119 91 183 c 128,-1,42
 156 247 156 247 184 270 c 1,43,44
 187 297 187 297 156 297 c 0,45,46
 143 297 143 297 121.5 291 c 128,-1,47
 100 285 100 285 89 285 c 0,48,49
 53 285 53 285 53 313 c 0,50,51
 53 347 53 347 86 388 c 1,52,-1
 138 390 l 1,53,54
 132 382 132 382 131 373 c 256,55,56
 130 364 130 364 136 364 c 0,57,58
 145 364 145 364 200 372 c 0,59,60
 243 378 243 378 244 320 c 1,61,62
 312 382 312 382 399 382 c 0,63,64
 442 382 442 382 470 362 c 0,65,66
 477 358 477 358 488 343 c 1,67,68
 493 351 493 351 500 363 c 1,69,-1
 563 325 l 1,70,71
 543 273 543 273 443 187 c 0,72,73
 399 149 399 149 399 124 c 0,74,75
 399 97 399 97 462 74 c 0,76,77
 503 59 503 59 543 59 c 0,78,79
 588 59 588 59 627 79 c 0,80,81
 694 113 694 113 715 194 c 0,82,83
 721 219 721 219 721 246 c 0,84,85
 721 309 721 309 687 381 c 1,86,87
 644 374 644 374 612 374 c 0,88,89
 515 374 515 374 515 442 c 0,90,91
 515 459 515 459 522 490 c 1,92,93
 508 491 508 491 494.5 492.5 c 128,-1,94
 481 494 481 494 464 504 c 1,95,-1
 464 542 l 1,96,97
 492 554 492 554 520 554 c 0,98,99
 547 554 547 554 560 541 c 1,100,101
 577 541 577 541 630 530 c 1,102,103
 692 512 692 512 729 442 c 1,104,105
 762 382 762 382 768 298 c 0,106,107
 774 221 774 221 731 131 c 0,108,109
 694 54 694 54 656 28 c 0,110,111
 611 -3 611 -3 531 -3 c 0,112,113
 468 -3 468 -3 422 16 c 0,114,115
 367 38 367 38 352 78 c 0,116,117
 342 104 342 104 342 130 c 0,118,119
 342 184 342 184 388 232 c 0,120,121
 417 263 417 263 432 279 c 1,122,123
 418 296 418 296 389 311 c 0,18,19
EndSplineSet
EndChar

StartChar: degree
Encoding: 176 176 130
Width: 853
Flags: W
LayerCount: 2
Fore
SplineSet
196 209 m 1,0,1
 184 199 184 199 158 171 c 0,2,3
 148 161 148 161 106 110 c 1,4,5
 114 108 114 108 128 103 c 0,6,7
 138 99 138 99 157 82 c 0,8,9
 173 67 173 67 179 67 c 0,10,11
 182 67 182 67 185 69 c 0,12,13
 212 94 212 94 230 149 c 1,14,-1
 310 167 l 1,15,16
 310 165 310 165 299 127 c 0,17,18
 293 103 293 103 293 90 c 0,19,20
 293 68 293 68 308 59 c 0,21,22
 315 55 315 55 322 55 c 0,23,24
 340 55 340 55 353 79 c 128,-1,25
 366 103 366 103 366 132 c 0,26,27
 366 148 366 148 362 161 c 0,28,29
 347 209 347 209 312 223 c 0,30,31
 291 231 291 231 269 231 c 0,32,33
 232 231 232 231 196 209 c 1,0,1
836 270 m 0,34,35
 836 182 836 182 804 102 c 1,36,37
 768 17 768 17 716 0 c 0,38,39
 697 -6 697 -6 681 -6 c 0,40,41
 609 -6 609 -6 608 83 c 1,42,43
 588 30 588 30 547 1 c 0,44,45
 538 -5 538 -5 519 -7 c 0,46,47
 500 -8 500 -8 489 -3 c 0,48,49
 454 14 454 14 444 22 c 0,50,51
 417 45 417 45 417 85 c 0,52,53
 417 123 417 123 440 176 c 0,54,55
 473 253 473 253 503 310 c 1,56,57
 486 304 486 304 467 304 c 0,58,59
 451 304 451 304 419 310 c 128,-1,60
 387 316 387 316 370 316 c 0,61,62
 320 316 320 316 278 287 c 1,63,64
 308 290 308 290 322 290 c 0,65,66
 368 290 368 290 398 257 c 0,67,68
 422 231 422 231 422 183 c 0,69,70
 422 132 422 132 396.5 78.5 c 128,-1,71
 371 25 371 25 336 3 c 0,72,73
 326 -3 326 -3 304 -4 c 1,74,75
 281 -4 281 -4 268 1 c 0,76,77
 239 13 239 13 222 53 c 1,78,79
 183 7 183 7 156 -3 c 0,80,81
 140 -9 140 -9 124 5 c 0,82,83
 90 34 90 34 70 37 c 0,84,85
 55 39 55 39 46.5 33 c 128,-1,86
 38 27 38 27 24 7 c 1,87,-1
 4 67 l 1,88,89
 32 103 32 103 98 177 c 0,90,91
 125 208 125 208 184 270 c 1,92,93
 183 303 183 303 157 303 c 0,94,95
 144 303 144 303 117 296 c 128,-1,96
 90 289 90 289 75 289 c 0,97,98
 40 289 40 289 40 315 c 0,99,100
 40 352 40 352 71 385 c 1,101,-1
 122 385 l 1,102,103
 108 368 108 368 121 366 c 256,104,105
 134 364 134 364 163 370 c 0,106,107
 200 377 200 377 213 364 c 0,108,109
 234 343 234 343 226 309 c 1,110,111
 291 361 291 361 352 373 c 0,112,113
 374 377 374 377 393 377 c 0,114,115
 413 377 413 377 440 371 c 128,-1,116
 467 365 467 365 478 365 c 0,117,118
 522 364 522 364 544 378 c 1,119,-1
 637 378 l 1,120,121
 593 325 593 325 544 229 c 0,122,123
 490 123 490 123 490 74 c 0,124,125
 490 49 490 49 505 44 c 0,126,127
 528 36 528 36 544 46 c 0,128,129
 588 74 588 74 593 197 c 1,130,-1
 662 212 l 1,131,132
 660 193 660 193 660 171 c 0,133,134
 660 65 660 65 697 65 c 0,135,136
 704 65 704 65 711 69 c 0,137,138
 744 86 744 86 760 120 c 0,139,140
 769 138 769 138 782 194 c 0,141,142
 788 219 788 219 788 246 c 0,143,144
 788 315 788 315 752 363 c 0,145,146
 712 416 712 416 645 418 c 0,147,148
 625 419 625 419 582 415 c 128,-1,149
 539 411 539 411 520 411 c 0,150,151
 438 411 438 411 439 466 c 0,152,153
 440 533 440 533 498 567 c 0,154,155
 544 594 544 594 612 596 c 0,156,157
 701 598 701 598 758 584 c 0,158,159
 837 564 837 564 833 515 c 0,160,161
 829 457 829 457 743 460 c 1,162,163
 836 413 836 413 836 270 c 0,34,35
754 525 m 0,164,165
 741 547 741 547 665 549 c 1,166,167
 678 511 678 511 710 502 c 0,168,169
 722 499 722 499 731 499 c 0,170,171
 757 499 757 499 757 516 c 0,172,173
 757 520 757 520 754 525 c 0,164,165
665 480 m 1,174,175
 616 506 616 506 612 548 c 1,176,177
 580 541 580 541 547 534 c 1,178,179
 498 519 498 519 504 494 c 0,180,181
 509 475 509 475 557 475 c 0,182,183
 573 475 573 475 609.5 477.5 c 128,-1,184
 646 480 646 480 665 480 c 1,174,175
EndSplineSet
EndChar

StartChar: cent
Encoding: 162 162 131
Width: 517
Flags: W
LayerCount: 2
Fore
SplineSet
147 358 m 1,0,1
 67 321 67 321 32 234 c 0,2,3
 8 173 8 173 8 119 c 0,4,5
 8 15 8 15 97 -12 c 1,6,-1
 150 32 l 1,7,8
 73 79 73 79 73 169 c 0,9,10
 73 186 73 186 75 206 c 0,11,12
 82 262 82 262 106 286 c 128,-1,13
 130 310 130 310 194 321 c 1,14,15
 190 306 190 306 194 300 c 0,16,17
 208 279 208 279 276 285 c 0,18,19
 339 290 339 290 338 290 c 1,20,21
 366 290 366 290 366 278 c 0,22,23
 366 274 366 274 363 269 c 0,24,25
 357 259 357 259 318 235 c 0,26,27
 290 218 290 218 262 201 c 0,28,29
 182 150 182 150 176 145 c 0,30,31
 138 116 138 116 138 88 c 0,32,33
 138 64 138 64 163 40 c 0,34,35
 184 19 184 19 210 8 c 0,36,37
 244 -6 244 -6 277 -6 c 0,38,39
 289 -6 289 -6 310 -4 c 1,40,41
 328 -1 328 -1 336 -2 c 1,42,43
 267 -36 267 -36 267 -66 c 0,44,45
 267 -75 267 -75 272 -90 c 0,46,47
 285 -129 285 -129 323 -152 c 0,48,49
 357 -172 357 -172 401 -172 c 0,50,51
 452 -172 452 -172 492 -143 c 128,-1,52
 532 -114 532 -114 541 -68 c 1,53,-1
 514 -40 l 1,54,55
 435 -103 435 -103 385 -103 c 0,56,57
 368 -103 368 -103 351 -97 c 0,58,59
 328 -89 328 -89 328 -76 c 0,60,61
 328 -55 328 -55 395 -16 c 0,62,63
 454 18 454 18 514 52 c 1,64,-1
 462 97 l 1,65,66
 378 57 378 57 310 57 c 0,67,68
 281 57 281 57 263 66 c 0,69,70
 239 78 239 78 239 94 c 0,71,72
 239 117 239 117 310 169 c 0,73,74
 385 225 385 225 386 226 c 0,75,76
 436 264 436 264 451 283 c 0,77,78
 460 295 460 295 460 307 c 0,79,80
 460 337 460 337 423 350 c 0,81,82
 393 361 393 361 361 357 c 0,83,84
 285 348 285 348 280 361 c 0,85,86
 277 370 277 370 287 382 c 1,87,-1
 231 382 l 1,88,89
 217 380 217 380 205 377 c 1,90,91
 196 394 196 394 196 409 c 0,92,93
 196 457 196 457 276 470 c 0,94,95
 290 472 290 472 306 472 c 0,96,97
 347 472 347 472 377.5 457 c 128,-1,98
 408 442 408 442 408 414 c 0,99,100
 408 392 408 392 386 366 c 1,101,-1
 450 366 l 1,102,103
 494 393 494 393 494 429 c 0,104,105
 494 466 494 466 450 494 c 1,106,107
 403 522 403 522 336 522 c 0,108,109
 311 522 311 522 285 518 c 0,110,111
 223 507 223 507 177.5 469 c 128,-1,112
 132 431 132 431 132 394 c 0,113,114
 132 373 132 373 147 358 c 1,0,1
EndSplineSet
EndChar

StartChar: sterling
Encoding: 163 163 132
Width: 491
Flags: W
LayerCount: 2
Fore
SplineSet
306 472 m 1,0,1
 338 470 338 470 368 450.5 c 128,-1,2
 398 431 398 431 398 412 c 256,3,4
 398 393 398 393 377 393 c 0,5,6
 357 393 357 393 329 416 c 0,7,8
 304 436 304 436 304 459 c 0,9,10
 304 465 304 465 306 472 c 1,0,1
32 234 m 0,11,12
 7 171 7 171 7 118 c 0,13,14
 7 17 7 17 97 -12 c 1,15,-1
 150 32 l 1,16,17
 73 79 73 79 73 169 c 0,18,19
 73 186 73 186 75 206 c 0,20,21
 82 262 82 262 106 286 c 128,-1,22
 130 310 130 310 194 321 c 1,23,24
 190 306 190 306 194 300 c 0,25,26
 208 279 208 279 276 285 c 0,27,28
 329 289 329 289 336 289 c 0,29,30
 367 289 367 289 367 278 c 0,31,32
 367 274 367 274 363 268 c 0,33,34
 352 253 352 253 261 200 c 0,35,36
 193 161 193 161 174 145 c 0,37,38
 138 117 138 117 138 89 c 0,39,40
 138 65 138 65 163 40 c 0,41,42
 184 19 184 19 210 8 c 0,43,44
 244 -6 244 -6 277 -6 c 0,45,46
 289 -6 289 -6 310 -4 c 1,47,48
 328 -1 328 -1 336 -2 c 1,49,50
 267 -36 267 -36 267 -66 c 0,51,52
 267 -75 267 -75 272 -90 c 0,53,54
 285 -129 285 -129 322 -151 c 0,55,56
 356 -171 356 -171 400 -171 c 0,57,58
 451 -171 451 -171 491.5 -142 c 128,-1,59
 532 -113 532 -113 541 -67 c 1,60,-1
 514 -40 l 1,61,62
 435 -103 435 -103 385 -103 c 0,63,64
 368 -103 368 -103 351 -97 c 0,65,66
 328 -89 328 -89 328 -76 c 0,67,68
 328 -55 328 -55 395 -16 c 0,69,70
 454 18 454 18 514 52 c 1,71,-1
 462 97 l 1,72,73
 378 57 378 57 310 57 c 0,74,75
 281 57 281 57 263 66 c 0,76,77
 239 78 239 78 239 94 c 0,78,79
 239 117 239 117 310 169 c 0,80,81
 385 225 385 225 386 226 c 0,82,83
 436 264 436 264 451 283 c 0,84,85
 460 295 460 295 460 307 c 0,86,87
 460 337 460 337 423 350 c 0,88,89
 393 361 393 361 361 357 c 0,90,91
 285 348 285 348 280 361 c 0,92,93
 277 370 277 370 287 382 c 1,94,-1
 231 382 l 1,95,96
 206 378 206 378 188 373 c 1,97,98
 176 392 176 392 176 410 c 0,99,100
 176 458 176 458 257 470 c 1,101,102
 262 415 262 415 309 381 c 0,103,104
 340 358 340 358 377 358 c 0,105,106
 416 358 416 358 452 383 c 0,107,108
 476 400 476 400 476 425 c 0,109,110
 476 461 476 461 433 490 c 1,111,112
 385 521 385 521 316 521 c 0,113,114
 291 521 291 521 266 517 c 0,115,116
 203 506 203 506 157 468.5 c 128,-1,117
 111 431 111 431 111 393 c 0,118,119
 111 368 111 368 133 351 c 1,120,121
 63 313 63 313 32 234 c 0,11,12
EndSplineSet
EndChar

StartChar: section
Encoding: 167 167 133
Width: 388
Flags: W
LayerCount: 2
Fore
SplineSet
350 387 m 0,0,1
 375 404 375 404 375 430 c 0,2,3
 375 467 375 467 332 496 c 0,4,5
 285 528 285 528 215 528 c 0,6,7
 191 528 191 528 166 524 c 0,8,9
 102 513 102 513 56 474.5 c 128,-1,10
 10 436 10 436 10 397 c 0,11,12
 10 368 10 368 38 350 c 1,13,-1
 87 376 l 1,14,15
 75 396 75 396 75 414 c 0,16,17
 75 461 75 461 155 474 c 1,18,19
 160 419 160 419 207 385 c 0,20,21
 238 362 238 362 275 362 c 0,22,23
 314 362 314 362 350 387 c 0,0,1
204 476 m 1,24,25
 236 474 236 474 266 454.5 c 128,-1,26
 296 435 296 435 296 416 c 256,27,28
 296 397 296 397 275 397 c 0,29,30
 255 397 255 397 227 420 c 0,31,32
 202 440 202 440 202 464 c 0,33,34
 202 470 202 470 204 476 c 1,24,25
330 97 m 1,35,36
 247 57 247 57 178 57 c 0,37,38
 149 57 149 57 131 66 c 0,39,40
 107 78 107 78 107 94 c 0,41,42
 107 116 107 116 179 169 c 0,43,44
 243 217 243 217 255 225 c 1,45,46
 304 264 304 264 319 283 c 0,47,48
 328 295 328 295 328 307 c 0,49,50
 328 323 328 323 314 337 c 0,51,52
 288 363 288 363 229 357 c 0,53,54
 152 348 152 348 148 361 c 0,55,56
 145 370 145 370 155 382 c 1,57,-1
 99 382 l 1,58,59
 60 338 60 338 60 309 c 0,60,61
 60 278 60 278 144 285 c 0,62,63
 177 288 177 288 194 288 c 0,64,65
 236 288 236 288 236 275 c 0,66,67
 236 271 236 271 232 266 c 0,68,69
 226 258 226 258 185 235 c 0,70,71
 133 205 133 205 129 202 c 0,72,73
 45 146 45 146 44 145 c 0,74,75
 6 116 6 116 6 88 c 0,76,77
 6 64 6 64 31 40 c 0,78,79
 52 19 52 19 78 8 c 0,80,81
 112 -6 112 -6 145 -6 c 0,82,83
 158 -6 158 -6 179 -4 c 1,84,85
 197 -1 197 -1 204 -2 c 1,86,87
 132 -38 132 -38 132 -70 c 0,88,89
 132 -79 132 -79 136 -92 c 0,90,91
 149 -131 149 -131 189 -153 c 0,92,93
 224 -172 224 -172 268 -172 c 0,94,95
 320 -172 320 -172 360.5 -144.5 c 128,-1,96
 401 -117 401 -117 410 -72 c 1,97,-1
 382 -40 l 1,98,99
 303 -103 303 -103 253 -103 c 0,100,101
 236 -103 236 -103 219 -97 c 0,102,103
 196 -89 196 -89 196 -76 c 0,104,105
 196 -55 196 -55 263 -16 c 0,106,107
 322 18 322 18 382 52 c 1,108,-1
 330 97 l 1,35,36
EndSplineSet
EndChar

StartChar: bullet
Encoding: 8226 8226 134
Width: 475
Flags: W
LayerCount: 2
Fore
SplineSet
50 262 m 0,0,1
 35 229 35 229 35 192 c 0,2,3
 35 144 35 144 61.5 102.5 c 128,-1,4
 88 61 88 61 134 40 c 0,5,6
 167 25 167 25 202 25 c 0,7,8
 250 25 250 25 291.5 51.5 c 128,-1,9
 333 78 333 78 354 123 c 0,10,11
 369 156 369 156 369 192 c 0,12,13
 369 241 369 241 343 282.5 c 128,-1,14
 317 324 317 324 271 345 c 0,15,16
 239 360 239 360 203 360 c 0,17,18
 155 360 155 360 113 333.5 c 128,-1,19
 71 307 71 307 50 262 c 0,0,1
115 34 m 0,20,21
 22 85 22 85 22 192 c 0,22,23
 22 238 22 238 44.5 280 c 128,-1,24
 67 322 67 322 110 347 c 128,-1,25
 153 372 153 372 203 372 c 0,26,27
 238 372 238 372 272 359 c 1,28,29
 309 354 309 354 347 337 c 1,30,31
 391 313 391 313 415.5 269.5 c 128,-1,32
 440 226 440 226 440 177 c 0,33,34
 440 131 440 131 419 92 c 0,35,36
 395 49 395 49 352 23.5 c 128,-1,37
 309 -2 309 -2 260 -2 c 0,38,39
 223 -2 223 -2 189 13 c 1,40,41
 153 13 153 13 115 34 c 0,20,21
EndSplineSet
EndChar

StartChar: paragraph
Encoding: 182 182 135
Width: 267
Flags: W
LayerCount: 2
Fore
SplineSet
184 268 m 256,0,1
 184 292 184 292 173 310.5 c 128,-1,2
 162 329 162 329 140 328 c 0,3,4
 76 324 76 324 71 188 c 0,5,6
 67 79 67 79 111 6 c 1,7,-1
 38 -1 l 1,8,9
 27 40 27 40 23 57 c 0,10,11
 13 105 13 105 10 157 c 0,12,13
 7 221 7 221 37 282 c 0,14,15
 70 350 70 350 122 360 c 0,16,17
 145 364 145 364 164 364 c 0,18,19
 251 364 251 364 251 284 c 0,20,21
 251 257 251 257 240 229 c 0,22,23
 218 172 218 172 125 172 c 0,24,25
 107 172 107 172 92 175 c 1,26,-1
 81 229 l 1,27,28
 105 211 105 211 132 211 c 0,29,30
 156 211 156 211 170 227.5 c 128,-1,31
 184 244 184 244 184 268 c 256,0,1
EndSplineSet
EndChar

StartChar: germandbls
Encoding: 223 223 136
Width: 400
Flags: W
LayerCount: 2
Fore
SplineSet
123 209 m 0,0,1
 77 132 77 132 77 88 c 0,2,3
 77 67 77 67 88 56 c 0,4,5
 115 30 115 30 150 30 c 0,6,7
 210 30 210 30 271 101 c 0,8,9
 319 156 319 156 319 214 c 0,10,11
 319 255 319 255 288 278 c 0,12,13
 271 291 271 291 247 291 c 0,14,15
 214 291 214 291 179 267.5 c 128,-1,16
 144 244 144 244 123 209 c 0,0,1
110 325 m 1,17,18
 81 310 81 310 58 310 c 0,19,20
 2 310 2 310 2 384 c 0,21,22
 2 461 2 461 60 533 c 0,23,24
 112 599 112 599 168 599 c 0,25,26
 229 599 229 599 235 515 c 1,27,28
 281 582 281 582 279 612 c 1,29,-1
 355 631 l 1,30,31
 356 628 356 628 356 623 c 0,32,33
 356 587 356 587 268 457 c 0,34,35
 168 308 168 308 167 307 c 1,36,37
 222 367 222 367 280 367 c 0,38,39
 295 367 295 367 311 363 c 0,40,41
 343 355 343 355 366.5 316.5 c 128,-1,42
 390 278 390 278 387 245 c 0,43,44
 380 168 380 168 316 88 c 128,-1,45
 252 8 252 8 191 -3 c 0,46,47
 165 -8 165 -8 141 -8 c 0,48,49
 69 -8 69 -8 31 35 c 0,50,51
 9 60 9 60 9 90 c 0,52,53
 9 112 9 112 25 161 c 0,54,55
 44 217 44 217 110 325 c 1,17,18
206 469 m 1,56,57
 198 493 198 493 179 510.5 c 128,-1,58
 160 528 160 528 137 528 c 0,59,60
 105 528 105 528 78 489 c 0,61,62
 57 459 57 459 57 429 c 0,63,64
 57 402 57 402 72.5 384.5 c 128,-1,65
 88 367 88 367 113 367 c 0,66,67
 127 367 127 367 142 373 c 1,68,69
 168 410 168 410 206 469 c 1,56,57
EndSplineSet
EndChar

StartChar: registered
Encoding: 174 174 137
Width: 853
Flags: W
LayerCount: 2
Fore
SplineSet
196 209 m 1,0,1
 232 231 232 231 269 231 c 0,2,3
 291 231 291 231 312 223 c 0,4,5
 347 209 347 209 362 161 c 0,6,7
 366 148 366 148 366 132 c 0,8,9
 366 103 366 103 353 79 c 128,-1,10
 340 55 340 55 322 55 c 0,11,12
 315 55 315 55 308 59 c 0,13,14
 293 68 293 68 293 90 c 0,15,16
 293 103 293 103 299 127 c 0,17,18
 310 165 310 165 310 167 c 1,19,-1
 230 149 l 1,20,21
 212 94 212 94 185 69 c 0,22,23
 182 67 182 67 179 67 c 0,24,25
 173 67 173 67 157 82 c 0,26,27
 138 99 138 99 128 103 c 0,28,29
 122 106 122 106 106 110 c 1,30,31
 121 129 121 129 158 171 c 0,32,33
 169 183 169 183 196 209 c 1,0,1
440 176 m 0,34,35
 417 123 417 123 417 85 c 0,36,37
 417 45 417 45 444 22 c 0,38,39
 454 14 454 14 489 -3 c 0,40,41
 500 -8 500 -8 519 -7 c 0,42,43
 538 -5 538 -5 547 1 c 0,44,45
 566 14 566 14 576 27 c 1,46,47
 595 48 595 48 608 83 c 1,48,49
 609 -6 609 -6 681 -6 c 0,50,51
 697 -6 697 -6 716 0 c 0,52,53
 769 17 769 17 804 103 c 0,54,55
 837 183 837 183 837 271 c 0,56,57
 837 357 837 357 800 420 c 0,58,59
 758 492 758 492 678 506 c 0,60,61
 646 512 646 512 617 512 c 0,62,63
 548 512 548 512 474 474 c 1,64,-1
 444 404 l 1,65,66
 504 448 504 448 569 448 c 0,67,68
 609 448 609 448 654 432 c 0,69,70
 718 410 718 410 754.5 360.5 c 128,-1,71
 791 311 791 311 791 249 c 0,72,73
 791 222 791 222 783 194 c 0,74,75
 766 134 766 134 760 121 c 0,76,77
 744 85 744 85 711 69 c 0,78,79
 704 65 704 65 697 65 c 0,80,81
 660 65 660 65 660 171 c 0,82,83
 660 193 660 193 662 212 c 1,84,-1
 593 197 l 1,85,86
 588 74 588 74 544 46 c 0,87,88
 528 36 528 36 505 44 c 0,89,90
 490 49 490 49 490 74 c 0,91,92
 490 123 490 123 544 229 c 0,93,94
 593 325 593 325 637 378 c 1,95,-1
 544 378 l 1,96,97
 522 364 522 364 478 365 c 0,98,99
 467 365 467 365 440 371 c 128,-1,100
 413 377 413 377 393 377 c 0,101,102
 374 377 374 377 352 373 c 0,103,104
 291 361 291 361 226 309 c 1,105,106
 234 343 234 343 213 364 c 0,107,108
 200 377 200 377 163 370 c 0,109,110
 134 364 134 364 121 366 c 256,111,112
 108 368 108 368 122 385 c 1,113,-1
 71 385 l 1,114,115
 40 352 40 352 40 315 c 0,116,117
 40 289 40 289 75 289 c 0,118,119
 90 289 90 289 117 296 c 128,-1,120
 144 303 144 303 157 303 c 0,121,122
 183 303 183 303 184 270 c 1,123,124
 163 250 163 250 98 177 c 0,125,126
 66 141 66 141 4 67 c 1,127,-1
 24 7 l 1,128,129
 38 27 38 27 46.5 33 c 128,-1,130
 55 39 55 39 70 37 c 0,131,132
 90 34 90 34 124 5 c 0,133,134
 140 -9 140 -9 156 -3 c 0,135,136
 183 7 183 7 222 53 c 1,137,138
 239 13 239 13 268 1 c 0,139,140
 281 -4 281 -4 304 -4 c 1,141,142
 326 -3 326 -3 336 3 c 0,143,144
 371 25 371 25 396.5 78.5 c 128,-1,145
 422 132 422 132 422 183 c 0,146,147
 422 231 422 231 398 257 c 0,148,149
 368 290 368 290 322 290 c 0,150,151
 308 290 308 290 278 287 c 1,152,153
 320 316 320 316 370 316 c 0,154,155
 387 316 387 316 419 310 c 128,-1,156
 451 304 451 304 467 304 c 0,157,158
 486 304 486 304 503 310 c 1,159,160
 473 253 473 253 440 176 c 0,34,35
EndSplineSet
EndChar

StartChar: copyright
Encoding: 169 169 138
Width: 477
Flags: W
LayerCount: 2
Fore
SplineSet
229 378 m 1,0,-1
 136 378 l 1,1,2
 88 307 88 307 32 176 c 0,3,4
 9 123 9 123 9 85 c 0,5,6
 9 45 9 45 36 22 c 0,7,8
 46 14 46 14 81 -3 c 0,9,10
 92 -8 92 -8 118 -8 c 0,11,12
 145 -7 145 -7 153 -1 c 0,13,14
 174 14 174 14 180 21 c 0,15,16
 197 41 197 41 214 83 c 1,17,18
 230 10 230 10 281 1 c 0,19,20
 297 -2 297 -2 313 -2 c 0,21,22
 366 -2 366 -2 407 26 c 0,23,24
 454 58 454 58 454 110 c 0,25,26
 454 137 454 137 431.5 192 c 128,-1,27
 409 247 409 247 409 268 c 0,28,29
 409 299 409 299 441 323 c 1,30,31
 469 341 469 341 497 360 c 1,32,-1
 453 398 l 1,33,34
 372 377 372 377 342 330 c 0,35,36
 329 309 329 309 329 287 c 0,37,38
 329 263 329 263 349 223 c 0,39,40
 372 176 372 176 376 158 c 0,41,42
 381 134 381 134 381 115 c 0,43,44
 381 87 381 87 368 65 c 0,45,46
 357 48 357 48 331 46 c 256,47,48
 305 44 305 44 287 108 c 1,49,50
 273 162 273 162 273 221 c 0,51,52
 273 234 273 234 274 244 c 1,53,-1
 205 229 l 1,54,55
 202 150 202 150 184 97 c 0,56,57
 170 54 170 54 154 46 c 0,58,59
 128 32 128 32 97 44 c 0,60,61
 82 50 82 50 82 74 c 0,62,63
 82 123 82 123 137 229 c 1,64,65
 185 325 185 325 229 378 c 1,0,-1
286 536 m 0,66,67
 337 514 337 514 337 473 c 0,68,69
 337 436 337 436 310 422 c 0,70,71
 256 395 256 395 182 395 c 0,72,73
 63 395 63 395 58 472 c 0,74,75
 51 585 51 585 260 594 c 0,76,77
 442 602 442 602 460 508 c 0,78,79
 468 464 468 464 450 426 c 1,80,-1
 398 412 l 1,81,82
 403 477 403 477 360 517.5 c 128,-1,83
 317 558 317 558 253 558 c 0,84,85
 207 558 207 558 173 541 c 1,86,87
 136 521 136 521 136 490 c 0,88,89
 136 449 136 449 180 438 c 0,90,91
 195 434 195 434 218 440 c 1,92,93
 185 454 185 454 185 485 c 0,94,95
 185 508 185 508 200 522 c 0,96,97
 222 542 222 542 256 542 c 0,98,99
 273 542 273 542 286 536 c 0,66,67
262 458 m 1,100,101
 275 464 275 464 278.5 466.5 c 128,-1,102
 282 469 282 469 284 476 c 0,103,104
 287 487 287 487 275 496.5 c 128,-1,105
 263 506 263 506 250 506 c 0,106,107
 233 506 233 506 233 491 c 0,108,109
 233 481 233 481 262 458 c 1,100,101
EndSplineSet
EndChar

StartChar: trademark
Encoding: 8482 8482 139
Width: 500
Flags: W
LayerCount: 2
Fore
SplineSet
368 721 m 1,0,-1
 368 697 l 1,1,2
 299 697 299 697 277 665 c 0,3,4
 259 640 259 640 259 566 c 2,5,-1
 259 497 l 2,6,7
 259 411 259 411 237 372 c 0,8,9
 219 340 219 340 115 313 c 1,10,11
 206 293 206 293 231 262 c 0,12,13
 259 228 259 228 259 135 c 2,14,-1
 259 59 l 2,15,16
 259 -16 259 -16 276 -40 c 0,17,18
 297 -69 297 -69 368 -70 c 1,19,-1
 368 -93 l 1,20,-1
 338 -93 l 2,21,22
 252 -93 252 -93 219.5 -57.5 c 128,-1,23
 187 -22 187 -22 187 66 c 2,24,-1
 187 160 l 2,25,26
 187 234 187 234 160.5 261 c 128,-1,27
 134 288 134 288 58 298 c 1,28,-1
 58 327 l 1,29,30
 135 339 135 339 159 363 c 0,31,32
 187 390 187 390 187 465 c 2,33,-1
 187 559 l 2,34,35
 187 657 187 657 229 691 c 0,36,37
 266 720 266 720 368 721 c 1,0,-1
EndSplineSet
EndChar

